G04 Layer_Color=32896*
%FSLAX24Y24*%
%MOIN*%
G70*
G01*
G75*
%ADD25C,0.0079*%
D25*
X-7210Y29980D02*
Y30980D01*
X-9210D02*
X-7210D01*
X-9210Y29980D02*
Y30980D01*
Y29980D02*
X-7210D01*
X-7231Y31190D02*
Y32190D01*
X-9231D02*
X-7231D01*
X-9231Y31190D02*
Y32190D01*
Y31190D02*
X-7231D01*
X-10187Y30815D02*
X-9873D01*
X-10187Y30185D02*
X-9873D01*
X-10597Y32005D02*
X-10283D01*
X-10597Y31375D02*
X-10283D01*
X-9725Y21403D02*
Y21717D01*
X-9095Y21403D02*
Y21717D01*
X-10117Y14535D02*
X-9803D01*
X-10117Y13905D02*
X-9803D01*
X-7140Y13700D02*
Y14700D01*
X-9140D02*
X-7140D01*
X-9140Y13700D02*
Y14700D01*
Y13700D02*
X-7140D01*
X-7161Y14910D02*
Y15910D01*
X-9161D02*
X-7161D01*
X-9161Y14910D02*
Y15910D01*
Y14910D02*
X-7161D01*
X-10527Y15725D02*
X-10213D01*
X-10527Y15095D02*
X-10213D01*
X-9605Y4713D02*
Y5027D01*
X-8975Y4713D02*
Y5027D01*
X-9388Y22851D02*
X-9322Y22916D01*
X-9191Y22914D01*
X-9126Y22848D01*
X-9129Y22586D01*
X-9196Y22521D01*
X-9327Y22522D01*
X-9392Y22589D01*
X-9524Y22525D02*
X-9655Y22527D01*
X-9589Y22526D01*
X-9584Y22919D01*
X-9519Y22853D01*
X-9851Y22529D02*
X-9848Y22791D01*
X-10045Y22794D01*
X-10111Y22729D01*
X-10114Y22532D01*
X-10246Y22468D02*
X-10508Y22471D01*
X-10639Y22539D02*
X-10770Y22540D01*
X-10704Y22540D01*
X-10699Y22933D01*
X-10635Y22867D01*
X-8600Y19842D02*
X-8547Y19895D01*
X-8442D01*
X-8390Y19842D01*
Y19632D01*
X-8442Y19580D01*
X-8547D01*
X-8600Y19632D01*
X-8705Y19580D02*
X-8810D01*
X-8757D01*
Y19895D01*
X-8705Y19842D01*
X-8967D02*
X-9020Y19895D01*
X-9125D01*
X-9177Y19842D01*
Y19632D01*
X-9125Y19580D01*
X-9020D01*
X-8967Y19632D01*
Y19842D01*
X-9282D02*
X-9335Y19895D01*
X-9440D01*
X-9492Y19842D01*
Y19632D01*
X-9440Y19580D01*
X-9335D01*
X-9282Y19632D01*
Y19842D01*
X-9597Y19580D02*
Y19790D01*
X-9754D01*
X-9807Y19737D01*
Y19580D01*
X-9912Y19528D02*
X-10122D01*
X-10227Y19580D02*
X-10332D01*
X-10279D01*
Y19895D01*
X-10227Y19842D01*
X-6910Y30955D02*
X-6805D01*
X-6857D01*
Y30692D01*
X-6805Y30640D01*
X-6752D01*
X-6700Y30692D01*
X-7015Y30640D02*
X-7120D01*
X-7067D01*
Y30955D01*
X-7015Y30902D01*
X-7277Y30588D02*
X-7487D01*
X-7592Y30640D02*
X-7697D01*
X-7645D01*
Y30955D01*
X-7592Y30902D01*
X-6803Y32190D02*
X-6698Y32187D01*
X-6750Y32188D01*
X-6756Y31926D01*
X-6705Y31872D01*
X-6652Y31871D01*
X-6599Y31922D01*
X-7125Y31882D02*
X-6915Y31877D01*
X-7120Y32092D01*
X-7119Y32144D01*
X-7065Y32195D01*
X-6960Y32193D01*
X-6909Y32139D01*
X-7231Y31832D02*
X-7441Y31837D01*
X-7544Y31891D02*
X-7649Y31894D01*
X-7597Y31893D01*
X-7590Y32207D01*
X-7538Y32154D01*
X-9310Y30990D02*
Y31305D01*
X-9467D01*
X-9520Y31252D01*
Y31147D01*
X-9467Y31095D01*
X-9310D01*
X-9415D02*
X-9520Y30990D01*
X-9782D02*
Y31305D01*
X-9625Y31147D01*
X-9835D01*
X-9940Y31305D02*
X-10150D01*
Y31252D01*
X-9940Y31042D01*
Y30990D01*
X-10255Y31305D02*
Y30990D01*
Y31095D01*
X-10464Y31305D01*
X-10307Y31147D01*
X-10464Y30990D01*
X-10569D02*
X-10674D01*
X-10622D01*
Y31305D01*
X-10569Y31252D01*
X-10832Y30938D02*
X-11042D01*
X-11147Y30990D02*
X-11252D01*
X-11199D01*
Y31305D01*
X-11147Y31252D01*
X-9600Y32220D02*
Y32535D01*
X-9757D01*
X-9810Y32482D01*
Y32377D01*
X-9757Y32325D01*
X-9600D01*
X-9705D02*
X-9810Y32220D01*
X-10072D02*
Y32535D01*
X-9915Y32377D01*
X-10125D01*
X-10230Y32535D02*
X-10440D01*
Y32482D01*
X-10230Y32272D01*
Y32220D01*
X-10545Y32535D02*
Y32220D01*
Y32325D01*
X-10754Y32535D01*
X-10597Y32377D01*
X-10754Y32220D01*
X-11069D02*
X-10859D01*
X-11069Y32430D01*
Y32482D01*
X-11017Y32535D01*
X-10912D01*
X-10859Y32482D01*
X-11174Y32168D02*
X-11384D01*
X-11489Y32220D02*
X-11594D01*
X-11542D01*
Y32535D01*
X-11489Y32482D01*
X-8720Y20970D02*
X-8405Y20973D01*
X-8406Y21130D01*
X-8459Y21182D01*
X-8564Y21181D01*
X-8616Y21128D01*
X-8615Y20971D01*
X-8616Y21076D02*
X-8722Y21180D01*
X-8724Y21442D02*
X-8409Y21445D01*
X-8565Y21286D01*
X-8567Y21496D01*
X-8410Y21602D02*
X-8412Y21812D01*
X-8464Y21812D01*
X-8673Y21600D01*
X-8725Y21600D01*
X-8728Y21915D02*
X-8413Y21917D01*
X-8623Y21915D02*
X-8519Y22074D01*
X-8623Y21915D02*
X-8729Y22072D01*
X-8783Y22229D02*
X-8784Y22439D01*
X-8733Y22544D02*
X-8734Y22649D01*
X-8733Y22597D01*
X-8418Y22599D01*
X-8470Y22546D01*
X-8600Y4280D02*
X-8285Y4283D01*
X-8286Y4440D01*
X-8339Y4492D01*
X-8444Y4491D01*
X-8496Y4438D01*
X-8495Y4281D01*
X-8496Y4386D02*
X-8602Y4490D01*
X-8604Y4752D02*
X-8289Y4755D01*
X-8445Y4596D01*
X-8447Y4806D01*
X-8290Y4912D02*
X-8292Y5122D01*
X-8344Y5122D01*
X-8553Y4910D01*
X-8605Y4910D01*
X-8608Y5225D02*
X-8293Y5227D01*
X-8503Y5225D02*
X-8399Y5384D01*
X-8503Y5225D02*
X-8609Y5382D01*
X-8480Y3152D02*
X-8427Y3205D01*
X-8322D01*
X-8270Y3152D01*
Y2942D01*
X-8322Y2890D01*
X-8427D01*
X-8480Y2942D01*
X-8585Y2890D02*
X-8690D01*
X-8637D01*
Y3205D01*
X-8585Y3152D01*
X-8847D02*
X-8900Y3205D01*
X-9005D01*
X-9057Y3152D01*
Y2942D01*
X-9005Y2890D01*
X-8900D01*
X-8847Y2942D01*
Y3152D01*
X-9162D02*
X-9215Y3205D01*
X-9320D01*
X-9372Y3152D01*
Y2942D01*
X-9320Y2890D01*
X-9215D01*
X-9162Y2942D01*
Y3152D01*
X-9477Y2890D02*
Y3100D01*
X-9634D01*
X-9687Y3047D01*
Y2890D01*
X-9268Y6161D02*
X-9202Y6226D01*
X-9071Y6224D01*
X-9006Y6158D01*
X-9009Y5896D01*
X-9076Y5831D01*
X-9207Y5832D01*
X-9272Y5899D01*
X-9404Y5835D02*
X-9535Y5836D01*
X-9469Y5836D01*
X-9464Y6229D01*
X-9399Y6163D01*
X-9732Y5839D02*
X-9728Y6101D01*
X-9925Y6104D01*
X-9991Y6039D01*
X-9994Y5842D01*
X-9660Y15960D02*
Y16275D01*
X-9817D01*
X-9870Y16222D01*
Y16117D01*
X-9817Y16065D01*
X-9660D01*
X-9765D02*
X-9870Y15960D01*
X-10132D02*
Y16275D01*
X-9975Y16117D01*
X-10185D01*
X-10290Y16275D02*
X-10500D01*
Y16222D01*
X-10290Y16012D01*
Y15960D01*
X-10605Y16275D02*
Y15960D01*
Y16065D01*
X-10814Y16275D01*
X-10657Y16117D01*
X-10814Y15960D01*
X-11129D02*
X-10919D01*
X-11129Y16170D01*
Y16222D01*
X-11077Y16275D01*
X-10972D01*
X-10919Y16222D01*
X-9240Y14710D02*
Y15025D01*
X-9397D01*
X-9450Y14972D01*
Y14867D01*
X-9397Y14815D01*
X-9240D01*
X-9345D02*
X-9450Y14710D01*
X-9712D02*
Y15025D01*
X-9555Y14867D01*
X-9765D01*
X-9870Y15025D02*
X-10080D01*
Y14972D01*
X-9870Y14762D01*
Y14710D01*
X-10185Y15025D02*
Y14710D01*
Y14815D01*
X-10394Y15025D01*
X-10237Y14867D01*
X-10394Y14710D01*
X-10499D02*
X-10604D01*
X-10552D01*
Y15025D01*
X-10499Y14972D01*
X-6733Y15910D02*
X-6628Y15907D01*
X-6680Y15908D01*
X-6686Y15646D01*
X-6635Y15592D01*
X-6582Y15591D01*
X-6529Y15642D01*
X-7055Y15602D02*
X-6845Y15597D01*
X-7050Y15812D01*
X-7049Y15864D01*
X-6995Y15915D01*
X-6890Y15913D01*
X-6839Y15859D01*
X-6840Y14675D02*
X-6735D01*
X-6787D01*
Y14412D01*
X-6735Y14360D01*
X-6682D01*
X-6630Y14412D01*
X-6945Y14360D02*
X-7050D01*
X-6997D01*
Y14675D01*
X-6945Y14622D01*
M02*
