G04 Layer_Physical_Order=1*
G04 Layer_Color=255*
%FSLAX24Y24*%
%MOIN*%
G70*
G01*
G75*
%ADD10R,0.0394X0.0512*%
%ADD11R,0.0433X0.0709*%
%ADD12R,0.0709X0.0433*%
%ADD13C,0.0394*%
%ADD14C,0.0157*%
%ADD15C,0.0591*%
%ADD16R,0.0591X0.0591*%
%ADD17R,0.0591X0.0591*%
%ADD18C,0.0591*%
%ADD19R,0.0591X0.0591*%
%ADD20C,0.1575*%
%ADD21R,0.0591X0.0591*%
%ADD22R,0.2008X0.0591*%
%ADD23C,0.0500*%
G36*
X5635Y31996D02*
X4749Y31111D01*
X4702Y31049D01*
X4672Y30977D01*
X4662Y30900D01*
Y27600D01*
X4672Y27523D01*
X4702Y27451D01*
X4749Y27389D01*
X7409Y24729D01*
X7471Y24682D01*
X7481Y24678D01*
X7471Y24628D01*
X7203D01*
X4278Y27553D01*
Y28076D01*
X4284Y28084D01*
X4319Y28169D01*
X4331Y28260D01*
X4319Y28351D01*
X4284Y28436D01*
X4229Y28509D01*
X4156Y28564D01*
X4071Y28599D01*
X3980Y28611D01*
X3889Y28599D01*
X3804Y28564D01*
X3731Y28509D01*
X3676Y28436D01*
X3641Y28351D01*
X3629Y28260D01*
X3641Y28169D01*
X3676Y28084D01*
X3682Y28076D01*
Y27430D01*
X3692Y27353D01*
X3722Y27281D01*
X3769Y27219D01*
X6869Y24119D01*
X6924Y24078D01*
X6920Y24049D01*
X6910Y24028D01*
X1600D01*
X1600Y24028D01*
X1523Y24018D01*
X1451Y23988D01*
X1389Y23941D01*
X1389Y23941D01*
X1144Y23695D01*
X1098Y23714D01*
Y25636D01*
X1146Y25644D01*
X1228Y25490D01*
X1339Y25355D01*
X1474Y25244D01*
X1628Y25162D01*
X1795Y25111D01*
X1969Y25094D01*
X2142Y25111D01*
X2309Y25162D01*
X2463Y25244D01*
X2598Y25355D01*
X2709Y25490D01*
X2791Y25644D01*
X2842Y25811D01*
X2859Y25984D01*
X2842Y26158D01*
X2791Y26325D01*
X2709Y26479D01*
X2598Y26614D01*
X2463Y26724D01*
X2309Y26807D01*
X2142Y26857D01*
X1969Y26874D01*
X1795Y26857D01*
X1628Y26807D01*
X1474Y26724D01*
X1339Y26614D01*
X1228Y26479D01*
X1146Y26325D01*
X1098Y26332D01*
Y29857D01*
X3283Y32042D01*
X5616D01*
X5635Y31996D01*
D02*
G37*
G36*
X25849Y16314D02*
X25823Y16305D01*
X25799Y16303D01*
X24891Y17211D01*
X24829Y17258D01*
X24757Y17288D01*
X24680Y17298D01*
X24419D01*
X24359Y17344D01*
X24263Y17384D01*
X24160Y17397D01*
X24057Y17384D01*
X23961Y17344D01*
X23879Y17281D01*
X23816Y17199D01*
X23776Y17103D01*
X23763Y17000D01*
X23776Y16897D01*
X23816Y16801D01*
X23879Y16719D01*
X23961Y16656D01*
X24057Y16616D01*
X24160Y16603D01*
X24263Y16616D01*
X24359Y16656D01*
X24419Y16702D01*
X24557D01*
X25294Y15965D01*
Y15790D01*
X25244Y15773D01*
X25231Y15791D01*
X24861Y16161D01*
X24799Y16208D01*
X24727Y16238D01*
X24650Y16248D01*
X24466D01*
X24441Y16281D01*
X24359Y16344D01*
X24263Y16384D01*
X24160Y16397D01*
X24057Y16384D01*
X23961Y16344D01*
X23879Y16281D01*
X23816Y16199D01*
X23776Y16103D01*
X23763Y16000D01*
X23776Y15897D01*
X23816Y15801D01*
X23879Y15719D01*
X23961Y15656D01*
X24057Y15616D01*
X24160Y15603D01*
X24263Y15616D01*
X24349Y15652D01*
X24527D01*
X24722Y15457D01*
Y5660D01*
X24672Y5653D01*
X24650Y5728D01*
X24567Y5882D01*
X24457Y6016D01*
X24322Y6127D01*
X24168Y6209D01*
X24001Y6260D01*
X23827Y6277D01*
X23654Y6260D01*
X23487Y6209D01*
X23333Y6127D01*
X23198Y6016D01*
X23087Y5882D01*
X23005Y5728D01*
X22954Y5561D01*
X22937Y5387D01*
X22954Y5213D01*
X23005Y5046D01*
X23087Y4892D01*
X23198Y4758D01*
X23333Y4647D01*
X23487Y4565D01*
X23654Y4514D01*
X23827Y4497D01*
X24001Y4514D01*
X24168Y4565D01*
X24322Y4647D01*
X24457Y4758D01*
X24567Y4892D01*
X24650Y5046D01*
X24672Y5121D01*
X24722Y5114D01*
Y3883D01*
X23107Y2268D01*
X21577D01*
X21569Y2318D01*
X21600Y2327D01*
X21754Y2410D01*
X21889Y2520D01*
X22000Y2655D01*
X22082Y2809D01*
X22133Y2976D01*
X22150Y3150D01*
X22133Y3323D01*
X22082Y3490D01*
X22000Y3644D01*
X21889Y3779D01*
X21754Y3890D01*
X21600Y3972D01*
X21433Y4023D01*
X21260Y4040D01*
X21086Y4023D01*
X20919Y3972D01*
X20765Y3890D01*
X20630Y3779D01*
X20520Y3644D01*
X20437Y3490D01*
X20387Y3323D01*
X20370Y3150D01*
X20387Y2976D01*
X20437Y2809D01*
X20520Y2655D01*
X20630Y2520D01*
X20765Y2410D01*
X20919Y2327D01*
X20950Y2318D01*
X20943Y2268D01*
X15323D01*
X11221Y6371D01*
X11159Y6418D01*
X11087Y6448D01*
X11010Y6458D01*
X5889D01*
X1618Y10729D01*
Y11379D01*
X1668Y11383D01*
X1676Y11317D01*
X1716Y11221D01*
X1779Y11139D01*
X1861Y11076D01*
X1957Y11036D01*
X2060Y11023D01*
X2163Y11036D01*
X2259Y11076D01*
X2341Y11139D01*
X2404Y11221D01*
X2444Y11317D01*
X2457Y11420D01*
X2444Y11523D01*
X2404Y11619D01*
X2341Y11701D01*
X2259Y11764D01*
X2163Y11804D01*
X2060Y11817D01*
X1957Y11804D01*
X1861Y11764D01*
X1779Y11701D01*
X1716Y11619D01*
X1676Y11523D01*
X1668Y11457D01*
X1618Y11461D01*
Y11697D01*
X2233Y12312D01*
X7950D01*
X8027Y12322D01*
X8099Y12352D01*
X8161Y12399D01*
X9271Y13509D01*
X9318Y13571D01*
X9348Y13643D01*
X9358Y13720D01*
Y14026D01*
X9454D01*
Y14814D01*
X8666D01*
Y14026D01*
X8762D01*
Y13843D01*
X7827Y12908D01*
X2110D01*
X2110Y12908D01*
X2033Y12898D01*
X1961Y12868D01*
X1899Y12821D01*
X1899Y12821D01*
X1109Y12031D01*
X1062Y11969D01*
X1032Y11897D01*
X1022Y11820D01*
Y10606D01*
X1032Y10529D01*
X1062Y10457D01*
X1109Y10395D01*
X5555Y5949D01*
X5555Y5949D01*
X5617Y5902D01*
X5689Y5872D01*
X5766Y5862D01*
X10887D01*
X14989Y1759D01*
X15051Y1712D01*
X15123Y1682D01*
X15161Y1677D01*
X15200Y1672D01*
X15200Y1672D01*
X20756D01*
Y978D01*
X22960D01*
Y1672D01*
X23230D01*
X23307Y1682D01*
X23379Y1712D01*
X23441Y1759D01*
X25231Y3549D01*
X25231Y3549D01*
X25244Y3567D01*
X25294Y3550D01*
Y2585D01*
X23537Y828D01*
X15503D01*
X11311Y5021D01*
X11249Y5068D01*
X11177Y5098D01*
X11100Y5108D01*
X5513D01*
X968Y9653D01*
Y15031D01*
X1018Y15048D01*
X1039Y15019D01*
X1667Y14392D01*
X1676Y14317D01*
X1716Y14221D01*
X1779Y14139D01*
X1861Y14076D01*
X1957Y14036D01*
X2060Y14023D01*
X2163Y14036D01*
X2259Y14076D01*
X2341Y14139D01*
X2404Y14221D01*
X2444Y14317D01*
X2457Y14420D01*
X2444Y14523D01*
X2404Y14619D01*
X2341Y14701D01*
X2259Y14764D01*
X2163Y14804D01*
X2088Y14813D01*
X1548Y15353D01*
Y17014D01*
X1598Y17017D01*
X1602Y16983D01*
X1632Y16911D01*
X1679Y16849D01*
X1741Y16802D01*
X1813Y16772D01*
X1890Y16762D01*
X6160D01*
X6237Y16772D01*
X6309Y16802D01*
X6371Y16849D01*
X7143Y17622D01*
X8110D01*
X8116Y17623D01*
X8812Y16927D01*
Y16279D01*
X8766Y16219D01*
X8726Y16123D01*
X8713Y16020D01*
X8726Y15917D01*
X8766Y15821D01*
X8829Y15739D01*
X8911Y15676D01*
X9007Y15636D01*
X9110Y15623D01*
X9213Y15636D01*
X9309Y15676D01*
X9369Y15722D01*
X9887D01*
X10412Y15197D01*
Y12463D01*
X9667Y11718D01*
X9319D01*
X9259Y11764D01*
X9163Y11804D01*
X9060Y11817D01*
X8957Y11804D01*
X8861Y11764D01*
X8779Y11701D01*
X8716Y11619D01*
X8676Y11523D01*
X8663Y11420D01*
X8676Y11317D01*
X8716Y11221D01*
X8779Y11139D01*
X8861Y11076D01*
X8957Y11036D01*
X9060Y11023D01*
X9163Y11036D01*
X9259Y11076D01*
X9319Y11122D01*
X9790D01*
X9867Y11132D01*
X9939Y11162D01*
X10001Y11209D01*
X10921Y12129D01*
X10921Y12129D01*
X10968Y12191D01*
X10998Y12263D01*
X11008Y12340D01*
Y15320D01*
X10998Y15397D01*
X10968Y15469D01*
X10921Y15531D01*
X10921Y15531D01*
X10221Y16231D01*
X10159Y16278D01*
X10087Y16308D01*
X10010Y16318D01*
X9914D01*
X9895Y16364D01*
X10491Y16959D01*
X10491Y16959D01*
X10538Y17021D01*
X10568Y17093D01*
X10578Y17170D01*
X10578Y17170D01*
Y19680D01*
X10578Y19680D01*
X10568Y19757D01*
X10538Y19829D01*
X10491Y19891D01*
X10491Y19891D01*
X9851Y20531D01*
X9789Y20578D01*
X9717Y20608D01*
X9640Y20618D01*
X9213D01*
X9142Y20689D01*
X9170Y20732D01*
X9207Y20716D01*
X9310Y20703D01*
X9413Y20716D01*
X9509Y20756D01*
X9591Y20819D01*
X9654Y20901D01*
X9694Y20997D01*
X9707Y21100D01*
X9694Y21203D01*
X9654Y21299D01*
X9591Y21381D01*
X9509Y21444D01*
X9413Y21484D01*
X9310Y21497D01*
X9207Y21484D01*
X9111Y21444D01*
X9029Y21381D01*
X8966Y21299D01*
X8926Y21203D01*
X8913Y21100D01*
X8926Y20997D01*
X8942Y20960D01*
X8899Y20932D01*
X8703Y21128D01*
X8694Y21203D01*
X8654Y21299D01*
X8591Y21381D01*
X8509Y21444D01*
X8413Y21484D01*
X8310Y21497D01*
X8207Y21484D01*
X8170Y21468D01*
X8142Y21511D01*
X8313Y21682D01*
X10537D01*
X10675Y21544D01*
X10654Y21494D01*
X9916D01*
Y20706D01*
X10704D01*
Y21444D01*
X10754Y21465D01*
X12992Y19227D01*
Y18504D01*
X13780D01*
Y18600D01*
X16538D01*
X16558Y18554D01*
X15679Y17675D01*
X15632Y17614D01*
X15602Y17542D01*
X15592Y17465D01*
Y10840D01*
X15602Y10763D01*
X15632Y10691D01*
X15679Y10629D01*
X17159Y9149D01*
X17221Y9102D01*
X17293Y9072D01*
X17370Y9062D01*
X20600D01*
X20677Y9072D01*
X20749Y9102D01*
X20811Y9149D01*
X21341Y9679D01*
X21388Y9741D01*
X21418Y9813D01*
X21428Y9890D01*
Y13657D01*
X22473Y14702D01*
X22901D01*
X22961Y14656D01*
X23057Y14616D01*
X23160Y14603D01*
X23263Y14616D01*
X23359Y14656D01*
X23441Y14719D01*
X23504Y14801D01*
X23544Y14897D01*
X23557Y15000D01*
X23544Y15103D01*
X23504Y15199D01*
X23441Y15281D01*
X23359Y15344D01*
X23263Y15384D01*
X23160Y15397D01*
X23057Y15384D01*
X22961Y15344D01*
X22901Y15298D01*
X22350D01*
X22350Y15298D01*
X22273Y15288D01*
X22201Y15258D01*
X22139Y15211D01*
X22139Y15211D01*
X20919Y13991D01*
X20872Y13929D01*
X20842Y13857D01*
X20832Y13780D01*
Y10013D01*
X20477Y9658D01*
X17493D01*
X16188Y10963D01*
Y17341D01*
X16912Y18066D01*
X16955Y18038D01*
X16939Y18000D01*
X16926Y17898D01*
X16939Y17795D01*
X16979Y17699D01*
X17042Y17617D01*
X17124Y17554D01*
X17220Y17514D01*
X17295Y17504D01*
X17491Y17308D01*
X17463Y17266D01*
X17426Y17281D01*
X17323Y17295D01*
X17220Y17281D01*
X17124Y17242D01*
X17042Y17178D01*
X16979Y17096D01*
X16939Y17000D01*
X16926Y16898D01*
X16939Y16795D01*
X16979Y16699D01*
X17042Y16617D01*
X17124Y16554D01*
X17220Y16514D01*
X17323Y16501D01*
X17426Y16514D01*
X17521Y16554D01*
X17604Y16617D01*
X17667Y16699D01*
X17706Y16795D01*
X17720Y16898D01*
X17706Y17000D01*
X17691Y17038D01*
X17733Y17066D01*
X19387Y15412D01*
Y10630D01*
X19291D01*
Y9843D01*
X20079D01*
Y10630D01*
X19983D01*
Y15535D01*
X19983Y15535D01*
X19973Y15613D01*
X19943Y15684D01*
X19896Y15746D01*
X17748Y17894D01*
X19251Y19396D01*
X19251Y19396D01*
X19298Y19458D01*
X19328Y19530D01*
X19338Y19607D01*
Y20820D01*
X19338Y20820D01*
X19328Y20897D01*
X19298Y20969D01*
X19251Y21031D01*
X19251Y21031D01*
X15741Y24541D01*
X15679Y24588D01*
X15669Y24592D01*
X15679Y24642D01*
X15817D01*
X20982Y19477D01*
Y17690D01*
X20992Y17613D01*
X21022Y17541D01*
X21069Y17479D01*
X22759Y15789D01*
X22821Y15742D01*
X22883Y15717D01*
X22961Y15656D01*
X23057Y15616D01*
X23160Y15603D01*
X23263Y15616D01*
X23359Y15656D01*
X23441Y15719D01*
X23504Y15801D01*
X23544Y15897D01*
X23557Y16000D01*
X23544Y16103D01*
X23504Y16199D01*
X23441Y16281D01*
X23359Y16344D01*
X23263Y16384D01*
X23160Y16397D01*
X23057Y16384D01*
X23022Y16369D01*
X21578Y17813D01*
Y19600D01*
X21569Y19669D01*
X21585Y19684D01*
X21614Y19695D01*
X21702Y19607D01*
Y17990D01*
X21712Y17913D01*
X21742Y17841D01*
X21789Y17779D01*
X22779Y16789D01*
X22779Y16789D01*
X22841Y16742D01*
X22871Y16730D01*
X22879Y16719D01*
X22961Y16656D01*
X23057Y16616D01*
X23160Y16603D01*
X23263Y16616D01*
X23359Y16656D01*
X23441Y16719D01*
X23504Y16801D01*
X23544Y16897D01*
X23557Y17000D01*
X23544Y17103D01*
X23504Y17199D01*
X23441Y17281D01*
X23359Y17344D01*
X23263Y17384D01*
X23160Y17397D01*
X23057Y17384D01*
X23036Y17375D01*
X22298Y18113D01*
Y19730D01*
X22298Y19730D01*
X22288Y19807D01*
X22258Y19879D01*
X22211Y19941D01*
X21971Y20180D01*
X21999Y20223D01*
X22005Y20220D01*
X22082Y20210D01*
X22082Y20210D01*
X22529D01*
X22767Y19972D01*
X22776Y19897D01*
X22816Y19801D01*
X22879Y19719D01*
X22961Y19656D01*
X23057Y19616D01*
X23160Y19603D01*
X23263Y19616D01*
X23359Y19656D01*
X23441Y19719D01*
X23504Y19801D01*
X23544Y19897D01*
X23557Y20000D01*
X23544Y20103D01*
X23504Y20199D01*
X23441Y20281D01*
X23359Y20344D01*
X23263Y20384D01*
X23188Y20393D01*
X22992Y20589D01*
X23020Y20632D01*
X23057Y20616D01*
X23160Y20603D01*
X23263Y20616D01*
X23359Y20656D01*
X23441Y20719D01*
X23504Y20801D01*
X23544Y20897D01*
X23557Y21000D01*
X23544Y21103D01*
X23504Y21199D01*
X23441Y21281D01*
X23359Y21344D01*
X23263Y21384D01*
X23160Y21397D01*
X23057Y21384D01*
X22961Y21344D01*
X22901Y21298D01*
X22593D01*
X22230Y21661D01*
X22254Y21708D01*
X22300Y21702D01*
X22300Y21702D01*
X22901D01*
X22961Y21656D01*
X23057Y21616D01*
X23160Y21603D01*
X23263Y21616D01*
X23359Y21656D01*
X23441Y21719D01*
X23504Y21801D01*
X23544Y21897D01*
X23557Y22000D01*
X23544Y22103D01*
X23504Y22199D01*
X23441Y22281D01*
X23359Y22344D01*
X23263Y22384D01*
X23160Y22397D01*
X23057Y22384D01*
X22961Y22344D01*
X22901Y22298D01*
X22423D01*
X19608Y25113D01*
Y31700D01*
X19598Y31777D01*
X19568Y31849D01*
X19521Y31911D01*
X19521Y31911D01*
X19459Y31972D01*
X19476Y32026D01*
X19481Y32027D01*
X19702Y31807D01*
Y25360D01*
X19712Y25283D01*
X19742Y25211D01*
X19789Y25149D01*
X21149Y23789D01*
X21149Y23789D01*
X21211Y23742D01*
X21283Y23712D01*
X21360Y23702D01*
X22901D01*
X22961Y23656D01*
X23057Y23616D01*
X23160Y23603D01*
X23263Y23616D01*
X23359Y23656D01*
X23441Y23719D01*
X23504Y23801D01*
X23544Y23897D01*
X23557Y24000D01*
X23544Y24103D01*
X23504Y24199D01*
X23441Y24281D01*
X23359Y24344D01*
X23263Y24384D01*
X23160Y24397D01*
X23057Y24384D01*
X22961Y24344D01*
X22901Y24298D01*
X21483D01*
X20298Y25483D01*
Y31930D01*
X20288Y32007D01*
X20258Y32079D01*
X20211Y32141D01*
X20211Y32141D01*
X19849Y32502D01*
X19868Y32549D01*
X25849D01*
Y16314D01*
D02*
G37*
G36*
X14918Y21471D02*
X14890Y21428D01*
X14853Y21444D01*
X14750Y21457D01*
X14647Y21444D01*
X14551Y21404D01*
X14469Y21341D01*
X14406Y21259D01*
X14366Y21163D01*
X14353Y21060D01*
X14366Y20957D01*
X14392Y20895D01*
Y20773D01*
X13340Y19721D01*
X10871Y22191D01*
X10809Y22238D01*
X10737Y22268D01*
X10660Y22278D01*
X8190D01*
X8190Y22278D01*
X8113Y22268D01*
X8041Y22238D01*
X7979Y22191D01*
X7282Y21493D01*
X7207Y21484D01*
X7111Y21444D01*
X7029Y21381D01*
X6966Y21299D01*
X6926Y21203D01*
X6913Y21100D01*
X6926Y20997D01*
X6966Y20901D01*
X7029Y20819D01*
X7111Y20756D01*
X7156Y20738D01*
X7146Y20688D01*
X6474D01*
X6464Y20738D01*
X6509Y20756D01*
X6591Y20819D01*
X6654Y20901D01*
X6694Y20997D01*
X6707Y21100D01*
X6694Y21203D01*
X6654Y21299D01*
X6608Y21359D01*
Y21640D01*
X6598Y21717D01*
X6568Y21789D01*
X6521Y21851D01*
X5576Y22795D01*
X5596Y22845D01*
X11543D01*
X12918Y21471D01*
X12890Y21428D01*
X12853Y21444D01*
X12750Y21457D01*
X12647Y21444D01*
X12551Y21404D01*
X12469Y21341D01*
X12406Y21259D01*
X12366Y21163D01*
X12353Y21060D01*
X12366Y20957D01*
X12406Y20861D01*
X12469Y20779D01*
X12551Y20716D01*
X12647Y20676D01*
X12750Y20663D01*
X12853Y20676D01*
X12949Y20716D01*
X13031Y20779D01*
X13094Y20861D01*
X13134Y20957D01*
X13147Y21060D01*
X13134Y21163D01*
X13118Y21200D01*
X13161Y21228D01*
X13357Y21032D01*
X13366Y20957D01*
X13406Y20861D01*
X13469Y20779D01*
X13551Y20716D01*
X13647Y20676D01*
X13750Y20663D01*
X13853Y20676D01*
X13949Y20716D01*
X14031Y20779D01*
X14094Y20861D01*
X14134Y20957D01*
X14147Y21060D01*
X14134Y21163D01*
X14094Y21259D01*
X14031Y21341D01*
X13949Y21404D01*
X13853Y21444D01*
X13778Y21453D01*
X11877Y23354D01*
X11840Y23382D01*
X11857Y23432D01*
X12957D01*
X14918Y21471D01*
D02*
G37*
G36*
X16287Y32502D02*
X15347Y31563D01*
X15301Y31544D01*
X15219Y31481D01*
X15156Y31399D01*
X15116Y31303D01*
X15103Y31200D01*
X15116Y31097D01*
X15156Y31001D01*
X15219Y30919D01*
X15301Y30856D01*
X15397Y30816D01*
X15500Y30803D01*
X15603Y30816D01*
X15699Y30856D01*
X15781Y30919D01*
X15844Y31001D01*
X15884Y31097D01*
X15897Y31200D01*
X15889Y31262D01*
X16683Y32057D01*
X17870D01*
X17890Y32011D01*
X17472Y31593D01*
X17397Y31584D01*
X17301Y31544D01*
X17219Y31481D01*
X17156Y31399D01*
X17116Y31303D01*
X17103Y31200D01*
X17116Y31097D01*
X17156Y31001D01*
X17219Y30919D01*
X17301Y30856D01*
X17397Y30816D01*
X17500Y30803D01*
X17603Y30816D01*
X17699Y30856D01*
X17781Y30919D01*
X17844Y31001D01*
X17884Y31097D01*
X17893Y31172D01*
X18089Y31368D01*
X18132Y31340D01*
X18116Y31303D01*
X18103Y31200D01*
X18116Y31097D01*
X18156Y31001D01*
X18219Y30919D01*
X18301Y30856D01*
X18397Y30816D01*
X18500Y30803D01*
X18603Y30816D01*
X18699Y30856D01*
X18781Y30919D01*
X18844Y31001D01*
X18884Y31097D01*
X18897Y31200D01*
X18884Y31303D01*
X18844Y31399D01*
X18781Y31481D01*
X18736Y31515D01*
X18753Y31565D01*
X19012D01*
Y24990D01*
X19018Y24944D01*
X18971Y24920D01*
X18888Y25003D01*
Y27980D01*
X18878Y28057D01*
X18848Y28129D01*
X18801Y28191D01*
X18801Y28191D01*
X17511Y29481D01*
X17449Y29528D01*
X17377Y29558D01*
X17300Y29568D01*
X15533D01*
X15298Y29804D01*
X15326Y29846D01*
X15397Y29816D01*
X15500Y29803D01*
X15603Y29816D01*
X15699Y29856D01*
X15781Y29919D01*
X15844Y30001D01*
X15884Y30097D01*
X15897Y30200D01*
X15884Y30303D01*
X15844Y30399D01*
X15781Y30481D01*
X15699Y30544D01*
X15603Y30584D01*
X15500Y30597D01*
X15397Y30584D01*
X15301Y30544D01*
X15219Y30481D01*
X15156Y30399D01*
X15116Y30303D01*
X15103Y30200D01*
X15116Y30097D01*
X15146Y30026D01*
X15104Y29998D01*
X14896Y30205D01*
X14884Y30303D01*
X14844Y30399D01*
X14781Y30481D01*
X14699Y30544D01*
X14603Y30584D01*
X14500Y30597D01*
X14397Y30584D01*
X14301Y30544D01*
X14219Y30481D01*
X14156Y30399D01*
X14116Y30303D01*
X14103Y30200D01*
X14116Y30097D01*
X14156Y30001D01*
X14219Y29919D01*
X14301Y29856D01*
X14397Y29816D01*
X14449Y29810D01*
X15199Y29059D01*
X15199Y29059D01*
X15261Y29012D01*
X15320Y28988D01*
X15310Y28938D01*
X14463D01*
X13798Y29603D01*
Y29941D01*
X13844Y30001D01*
X13884Y30097D01*
X13897Y30200D01*
X13884Y30303D01*
X13844Y30399D01*
X13798Y30459D01*
Y30941D01*
X13844Y31001D01*
X13884Y31097D01*
X13897Y31200D01*
X13884Y31303D01*
X13844Y31399D01*
X13781Y31481D01*
X13699Y31544D01*
X13603Y31584D01*
X13528Y31593D01*
X12619Y32502D01*
X12638Y32549D01*
X16267D01*
X16287Y32502D01*
D02*
G37*
G36*
X8000Y29032D02*
X7941Y29008D01*
X7879Y28961D01*
X7289Y28371D01*
X7242Y28309D01*
X7212Y28237D01*
X7202Y28160D01*
Y27120D01*
X7212Y27043D01*
X7229Y27003D01*
X7186Y26975D01*
X6528Y27633D01*
Y28817D01*
X6793Y29082D01*
X7990D01*
X8000Y29032D01*
D02*
G37*
G36*
X13107Y31172D02*
X13116Y31097D01*
X13156Y31001D01*
X13202Y30941D01*
Y30459D01*
X13156Y30399D01*
X13116Y30303D01*
X13103Y30200D01*
X13116Y30097D01*
X13156Y30001D01*
X13202Y29941D01*
Y29480D01*
X13212Y29403D01*
X13242Y29331D01*
X13289Y29269D01*
X14129Y28429D01*
X14129Y28429D01*
X14191Y28382D01*
X14263Y28352D01*
X14340Y28342D01*
X15907D01*
X15999Y28250D01*
X15980Y28204D01*
X15956D01*
Y27416D01*
X16744D01*
Y28204D01*
X16648D01*
Y28320D01*
X16638Y28397D01*
X16608Y28469D01*
X16561Y28531D01*
X16561Y28531D01*
X16241Y28851D01*
X16179Y28898D01*
X16120Y28922D01*
X16130Y28972D01*
X17177D01*
X18292Y27857D01*
Y24880D01*
X18302Y24803D01*
X18319Y24763D01*
X18276Y24735D01*
X16621Y26391D01*
X16559Y26438D01*
X16487Y26468D01*
X16410Y26478D01*
X13010D01*
X13000Y26499D01*
X12996Y26528D01*
X13051Y26569D01*
X13561Y27079D01*
X13608Y27141D01*
X13638Y27213D01*
X13643Y27251D01*
X13648Y27290D01*
X13648Y27290D01*
Y27551D01*
X13694Y27611D01*
X13734Y27707D01*
X13747Y27810D01*
X13734Y27913D01*
X13694Y28009D01*
X13648Y28069D01*
Y28220D01*
X13648Y28220D01*
X13638Y28297D01*
X13608Y28369D01*
X13561Y28431D01*
X13561Y28431D01*
X12798Y29193D01*
Y29941D01*
X12844Y30001D01*
X12884Y30097D01*
X12897Y30200D01*
X12884Y30303D01*
X12844Y30399D01*
X12798Y30459D01*
Y30941D01*
X12844Y31001D01*
X12884Y31097D01*
X12897Y31200D01*
X12884Y31303D01*
X12868Y31340D01*
X12911Y31368D01*
X13107Y31172D01*
D02*
G37*
G36*
X-151Y16687D02*
X-11660D01*
Y32549D01*
X-151D01*
Y16687D01*
D02*
G37*
G36*
X2901Y32502D02*
X589Y30191D01*
X542Y30129D01*
X512Y30057D01*
X502Y29980D01*
Y22500D01*
X512Y22423D01*
X542Y22351D01*
X589Y22289D01*
X1329Y21549D01*
X1391Y21502D01*
X1435Y21484D01*
X1591Y21328D01*
X1653Y21281D01*
X1724Y21251D01*
X1763Y21246D01*
X1802Y21241D01*
X1802Y21241D01*
X1967D01*
Y21224D01*
X2873D01*
Y21241D01*
X3387D01*
X4448Y20179D01*
X4448Y20179D01*
X4510Y20132D01*
X4544Y20118D01*
X4534Y20068D01*
X1590D01*
X1513Y20058D01*
X1441Y20028D01*
X1379Y19981D01*
X1379Y19981D01*
X459Y19061D01*
X412Y18999D01*
X382Y18927D01*
X372Y18850D01*
Y9530D01*
X382Y9453D01*
X412Y9381D01*
X459Y9319D01*
X5179Y4599D01*
X5241Y4552D01*
X5313Y4522D01*
X5390Y4512D01*
X10977D01*
X15169Y319D01*
X15231Y272D01*
X15303Y242D01*
X15380Y232D01*
X23660D01*
X23737Y242D01*
X23809Y272D01*
X23871Y319D01*
X25799Y2247D01*
X25823Y2245D01*
X25849Y2236D01*
Y151D01*
X151D01*
Y32549D01*
X2882D01*
X2901Y32502D01*
D02*
G37*
G36*
X-151Y151D02*
X-11660D01*
Y16384D01*
X-151D01*
Y151D01*
D02*
G37*
G36*
X2788Y23382D02*
X2751Y23354D01*
X2314Y22916D01*
X1967D01*
Y22287D01*
X2873D01*
Y22633D01*
X2981Y22741D01*
X3027Y22722D01*
Y22317D01*
X3933D01*
Y22334D01*
X5195D01*
X6012Y21517D01*
Y21359D01*
X5966Y21299D01*
X5926Y21203D01*
X5913Y21100D01*
X5926Y20997D01*
X5966Y20901D01*
X6029Y20819D01*
X6111Y20756D01*
X6156Y20738D01*
X6146Y20688D01*
X5474D01*
X5464Y20738D01*
X5509Y20756D01*
X5591Y20819D01*
X5654Y20901D01*
X5694Y20997D01*
X5707Y21100D01*
X5694Y21203D01*
X5654Y21299D01*
X5591Y21381D01*
X5509Y21444D01*
X5413Y21484D01*
X5310Y21497D01*
X5207Y21484D01*
X5111Y21444D01*
X5029Y21381D01*
X4966Y21299D01*
X4926Y21203D01*
X4913Y21100D01*
X4926Y20997D01*
X4966Y20901D01*
X5029Y20819D01*
X5111Y20756D01*
X5156Y20738D01*
X5146Y20688D01*
X4782D01*
X3933Y21537D01*
Y21883D01*
X3027D01*
Y21836D01*
X2873D01*
Y21853D01*
X1967D01*
Y21853D01*
X1917Y21844D01*
X1118Y22643D01*
Y22827D01*
X1723Y23432D01*
X2771D01*
X2788Y23382D01*
D02*
G37*
G36*
X17939Y21500D02*
X17920Y21454D01*
X17356D01*
Y20666D01*
X18144D01*
Y21230D01*
X18190Y21249D01*
X18742Y20697D01*
Y19730D01*
X17763Y18751D01*
X17717Y18770D01*
Y19291D01*
X16929D01*
Y19195D01*
X13780D01*
Y19291D01*
X13780Y19291D01*
X13780D01*
X13796Y19335D01*
X14901Y20439D01*
X14948Y20501D01*
X14978Y20573D01*
X14988Y20650D01*
Y20746D01*
X15031Y20779D01*
X15094Y20861D01*
X15134Y20957D01*
X15147Y21060D01*
X15134Y21163D01*
X15118Y21200D01*
X15161Y21228D01*
X15357Y21032D01*
X15366Y20957D01*
X15406Y20861D01*
X15469Y20779D01*
X15551Y20716D01*
X15647Y20676D01*
X15750Y20663D01*
X15853Y20676D01*
X15949Y20716D01*
X16031Y20779D01*
X16094Y20861D01*
X16134Y20957D01*
X16147Y21060D01*
X16134Y21163D01*
X16094Y21259D01*
X16031Y21341D01*
X15949Y21404D01*
X15853Y21444D01*
X15778Y21453D01*
X13291Y23941D01*
X13236Y23982D01*
X13240Y24011D01*
X13250Y24032D01*
X15407D01*
X17939Y21500D01*
D02*
G37*
G36*
X8879Y20109D02*
X8879Y20109D01*
X8941Y20062D01*
X9013Y20032D01*
X9090Y20022D01*
X9090Y20022D01*
X9517D01*
X9982Y19557D01*
Y17293D01*
X9454Y16765D01*
X9408Y16784D01*
Y17050D01*
X9408Y17050D01*
X9398Y17127D01*
X9368Y17199D01*
X9321Y17261D01*
X9321Y17261D01*
X8416Y18165D01*
X8410Y18765D01*
X8454Y18821D01*
X8494Y18917D01*
X8507Y19020D01*
X8494Y19123D01*
X8454Y19219D01*
X8391Y19301D01*
X8309Y19364D01*
X8213Y19404D01*
X8110Y19417D01*
X8007Y19404D01*
X7911Y19364D01*
X7829Y19301D01*
X7766Y19219D01*
X7726Y19123D01*
X7713Y19020D01*
X7726Y18917D01*
X7766Y18821D01*
X7815Y18758D01*
X7820Y18253D01*
X7785Y18218D01*
X7020D01*
X7020Y18218D01*
X6943Y18208D01*
X6871Y18178D01*
X6809Y18131D01*
X6809Y18131D01*
X6037Y17358D01*
X1890D01*
X1813Y17348D01*
X1741Y17318D01*
X1679Y17271D01*
X1632Y17209D01*
X1602Y17137D01*
X1598Y17103D01*
X1548Y17106D01*
Y18137D01*
X2043Y18632D01*
X2110Y18623D01*
X2213Y18636D01*
X2309Y18676D01*
X2391Y18739D01*
X2454Y18821D01*
X2494Y18917D01*
X2507Y19020D01*
X2494Y19123D01*
X2454Y19219D01*
X2391Y19301D01*
X2309Y19364D01*
X2213Y19404D01*
X2110Y19417D01*
X2007Y19404D01*
X1911Y19364D01*
X1829Y19301D01*
X1766Y19219D01*
X1751Y19182D01*
X1039Y18471D01*
X1018Y18442D01*
X968Y18459D01*
Y18727D01*
X1713Y19472D01*
X8377D01*
X8716Y19133D01*
Y18626D01*
X9504D01*
Y19414D01*
X9277D01*
X8711Y19981D01*
X8649Y20028D01*
X8577Y20058D01*
X8500Y20068D01*
X8254D01*
X8245Y20118D01*
X8279Y20132D01*
X8341Y20179D01*
X8521Y20359D01*
X8521Y20359D01*
X8545Y20391D01*
X8595Y20394D01*
X8879Y20109D01*
D02*
G37*
G36*
X12668Y31611D02*
X12640Y31568D01*
X12603Y31584D01*
X12500Y31597D01*
X12397Y31584D01*
X12301Y31544D01*
X12219Y31481D01*
X12156Y31399D01*
X12116Y31303D01*
X12103Y31200D01*
X12116Y31097D01*
X12156Y31001D01*
X12202Y30941D01*
Y30459D01*
X12156Y30399D01*
X12116Y30303D01*
X12103Y30200D01*
X12116Y30097D01*
X12156Y30001D01*
X12202Y29941D01*
Y29070D01*
X12212Y28993D01*
X12242Y28921D01*
X12289Y28859D01*
X13052Y28097D01*
Y28069D01*
X13006Y28009D01*
X12966Y27913D01*
X12953Y27810D01*
X12966Y27707D01*
X13006Y27611D01*
X13052Y27551D01*
Y27413D01*
X12717Y27078D01*
X8993D01*
X8668Y27403D01*
Y27651D01*
X8714Y27711D01*
X8754Y27807D01*
X8767Y27910D01*
X8754Y28013D01*
X8714Y28109D01*
X8651Y28191D01*
X8569Y28254D01*
X8473Y28294D01*
X8370Y28307D01*
X8267Y28294D01*
X8171Y28254D01*
X8089Y28191D01*
X8026Y28109D01*
X7986Y28013D01*
X7973Y27910D01*
X7986Y27807D01*
X8026Y27711D01*
X8072Y27651D01*
Y27280D01*
X8082Y27203D01*
X8112Y27131D01*
X8159Y27069D01*
X8659Y26569D01*
X8714Y26528D01*
X8710Y26499D01*
X8700Y26478D01*
X8563D01*
X7798Y27243D01*
Y28037D01*
X8213Y28452D01*
X10730D01*
X10807Y28462D01*
X10879Y28492D01*
X10941Y28539D01*
X11711Y29309D01*
X11711Y29309D01*
X11758Y29371D01*
X11788Y29443D01*
X11798Y29520D01*
Y29941D01*
X11844Y30001D01*
X11884Y30097D01*
X11897Y30200D01*
X11884Y30303D01*
X11844Y30399D01*
X11781Y30481D01*
X11699Y30544D01*
X11603Y30584D01*
X11500Y30597D01*
X11397Y30584D01*
X11301Y30544D01*
X11219Y30481D01*
X11156Y30399D01*
X11116Y30303D01*
X11103Y30200D01*
X11116Y30097D01*
X11156Y30001D01*
X11202Y29941D01*
Y29643D01*
X10607Y29048D01*
X8290D01*
X8280Y29098D01*
X8339Y29122D01*
X8401Y29169D01*
X8711Y29479D01*
X8758Y29541D01*
X8788Y29613D01*
X8798Y29690D01*
Y29941D01*
X8844Y30001D01*
X8884Y30097D01*
X8897Y30200D01*
X8884Y30303D01*
X8844Y30399D01*
X8781Y30481D01*
X8699Y30544D01*
X8603Y30584D01*
X8500Y30597D01*
X8397Y30584D01*
X8301Y30544D01*
X8219Y30481D01*
X8156Y30399D01*
X8116Y30303D01*
X8103Y30200D01*
X8116Y30097D01*
X8156Y30001D01*
X8202Y29941D01*
Y29813D01*
X8067Y29678D01*
X6670D01*
X6593Y29668D01*
X6521Y29638D01*
X6459Y29591D01*
X6019Y29151D01*
X5972Y29089D01*
X5942Y29017D01*
X5932Y28940D01*
Y27510D01*
X5942Y27433D01*
X5972Y27361D01*
X6019Y27299D01*
X7989Y25329D01*
X7989Y25329D01*
X8044Y25288D01*
X8040Y25259D01*
X8030Y25238D01*
X7743D01*
X5258Y27723D01*
Y30777D01*
X6031Y31550D01*
X7227D01*
X7244Y31500D01*
X7219Y31481D01*
X7156Y31399D01*
X7116Y31303D01*
X7103Y31200D01*
X7116Y31097D01*
X7156Y31001D01*
X7219Y30919D01*
X7301Y30856D01*
X7397Y30816D01*
X7500Y30803D01*
X7603Y30816D01*
X7699Y30856D01*
X7781Y30919D01*
X7844Y31001D01*
X7884Y31097D01*
X7897Y31200D01*
X7884Y31303D01*
X7868Y31340D01*
X7911Y31368D01*
X8107Y31172D01*
X8116Y31097D01*
X8156Y31001D01*
X8219Y30919D01*
X8301Y30856D01*
X8397Y30816D01*
X8500Y30803D01*
X8603Y30816D01*
X8699Y30856D01*
X8781Y30919D01*
X8844Y31001D01*
X8884Y31097D01*
X8897Y31200D01*
X8884Y31303D01*
X8844Y31399D01*
X8781Y31481D01*
X8699Y31544D01*
X8603Y31584D01*
X8528Y31593D01*
X8125Y31996D01*
X8144Y32042D01*
X12237D01*
X12668Y31611D01*
D02*
G37*
%LPC*%
G36*
X3157Y31081D02*
X2983Y31064D01*
X2816Y31013D01*
X2663Y30931D01*
X2528Y30820D01*
X2417Y30685D01*
X2335Y30532D01*
X2284Y30365D01*
X2267Y30191D01*
X2284Y30017D01*
X2335Y29850D01*
X2417Y29696D01*
X2528Y29562D01*
X2663Y29451D01*
X2816Y29369D01*
X2983Y29318D01*
X3157Y29301D01*
X3331Y29318D01*
X3498Y29369D01*
X3652Y29451D01*
X3786Y29562D01*
X3897Y29696D01*
X3979Y29850D01*
X4030Y30017D01*
X4047Y30191D01*
X4030Y30365D01*
X3979Y30532D01*
X3897Y30685D01*
X3786Y30820D01*
X3652Y30931D01*
X3498Y31013D01*
X3331Y31064D01*
X3157Y31081D01*
D02*
G37*
G36*
X7060Y11817D02*
X6957Y11804D01*
X6861Y11764D01*
X6779Y11701D01*
X6716Y11619D01*
X6676Y11523D01*
X6663Y11420D01*
X6676Y11317D01*
X6716Y11221D01*
X6779Y11139D01*
X6861Y11076D01*
X6957Y11036D01*
X7060Y11023D01*
X7163Y11036D01*
X7259Y11076D01*
X7341Y11139D01*
X7404Y11221D01*
X7444Y11317D01*
X7457Y11420D01*
X7444Y11523D01*
X7404Y11619D01*
X7341Y11701D01*
X7259Y11764D01*
X7163Y11804D01*
X7060Y11817D01*
D02*
G37*
G36*
X4060D02*
X3957Y11804D01*
X3861Y11764D01*
X3779Y11701D01*
X3716Y11619D01*
X3676Y11523D01*
X3663Y11420D01*
X3676Y11317D01*
X3716Y11221D01*
X3779Y11139D01*
X3861Y11076D01*
X3957Y11036D01*
X4060Y11023D01*
X4163Y11036D01*
X4259Y11076D01*
X4341Y11139D01*
X4404Y11221D01*
X4444Y11317D01*
X4457Y11420D01*
X4444Y11523D01*
X4404Y11619D01*
X4341Y11701D01*
X4259Y11764D01*
X4163Y11804D01*
X4060Y11817D01*
D02*
G37*
G36*
X5060D02*
X4957Y11804D01*
X4861Y11764D01*
X4779Y11701D01*
X4716Y11619D01*
X4676Y11523D01*
X4663Y11420D01*
X4676Y11317D01*
X4716Y11221D01*
X4779Y11139D01*
X4861Y11076D01*
X4957Y11036D01*
X5060Y11023D01*
X5163Y11036D01*
X5259Y11076D01*
X5341Y11139D01*
X5404Y11221D01*
X5444Y11317D01*
X5457Y11420D01*
X5444Y11523D01*
X5404Y11619D01*
X5341Y11701D01*
X5259Y11764D01*
X5163Y11804D01*
X5060Y11817D01*
D02*
G37*
G36*
X6060D02*
X5957Y11804D01*
X5861Y11764D01*
X5779Y11701D01*
X5716Y11619D01*
X5676Y11523D01*
X5663Y11420D01*
X5676Y11317D01*
X5716Y11221D01*
X5779Y11139D01*
X5861Y11076D01*
X5957Y11036D01*
X6060Y11023D01*
X6163Y11036D01*
X6259Y11076D01*
X6341Y11139D01*
X6404Y11221D01*
X6444Y11317D01*
X6457Y11420D01*
X6444Y11523D01*
X6404Y11619D01*
X6341Y11701D01*
X6259Y11764D01*
X6163Y11804D01*
X6060Y11817D01*
D02*
G37*
G36*
X17323Y12295D02*
X17220Y12281D01*
X17124Y12242D01*
X17042Y12178D01*
X16979Y12096D01*
X16939Y12000D01*
X16926Y11898D01*
X16939Y11795D01*
X16979Y11699D01*
X17042Y11617D01*
X17124Y11554D01*
X17220Y11514D01*
X17323Y11501D01*
X17426Y11514D01*
X17521Y11554D01*
X17604Y11617D01*
X17667Y11699D01*
X17706Y11795D01*
X17720Y11898D01*
X17706Y12000D01*
X17667Y12096D01*
X17604Y12178D01*
X17521Y12242D01*
X17426Y12281D01*
X17323Y12295D01*
D02*
G37*
G36*
X23160Y12397D02*
X23057Y12384D01*
X22961Y12344D01*
X22879Y12281D01*
X22816Y12199D01*
X22776Y12103D01*
X22763Y12000D01*
X22776Y11897D01*
X22816Y11801D01*
X22879Y11719D01*
X22961Y11656D01*
X23057Y11616D01*
X23160Y11603D01*
X23263Y11616D01*
X23359Y11656D01*
X23441Y11719D01*
X23504Y11801D01*
X23544Y11897D01*
X23557Y12000D01*
X23544Y12103D01*
X23504Y12199D01*
X23441Y12281D01*
X23359Y12344D01*
X23263Y12384D01*
X23160Y12397D01*
D02*
G37*
G36*
X24160D02*
X24057Y12384D01*
X23961Y12344D01*
X23879Y12281D01*
X23816Y12199D01*
X23776Y12103D01*
X23763Y12000D01*
X23776Y11897D01*
X23816Y11801D01*
X23879Y11719D01*
X23961Y11656D01*
X24057Y11616D01*
X24160Y11603D01*
X24263Y11616D01*
X24359Y11656D01*
X24441Y11719D01*
X24504Y11801D01*
X24544Y11897D01*
X24557Y12000D01*
X24544Y12103D01*
X24504Y12199D01*
X24441Y12281D01*
X24359Y12344D01*
X24263Y12384D01*
X24160Y12397D01*
D02*
G37*
G36*
X13386Y12295D02*
X13283Y12281D01*
X13187Y12242D01*
X13105Y12178D01*
X13042Y12096D01*
X13002Y12000D01*
X12989Y11898D01*
X13002Y11795D01*
X13042Y11699D01*
X13105Y11617D01*
X13187Y11554D01*
X13283Y11514D01*
X13386Y11501D01*
X13489Y11514D01*
X13584Y11554D01*
X13667Y11617D01*
X13730Y11699D01*
X13769Y11795D01*
X13783Y11898D01*
X13769Y12000D01*
X13730Y12096D01*
X13667Y12178D01*
X13584Y12242D01*
X13489Y12281D01*
X13386Y12295D01*
D02*
G37*
G36*
X23160Y10397D02*
X23057Y10384D01*
X22961Y10344D01*
X22879Y10281D01*
X22816Y10199D01*
X22776Y10103D01*
X22763Y10000D01*
X22776Y9897D01*
X22816Y9801D01*
X22879Y9719D01*
X22961Y9656D01*
X23057Y9616D01*
X23160Y9603D01*
X23263Y9616D01*
X23359Y9656D01*
X23441Y9719D01*
X23504Y9801D01*
X23544Y9897D01*
X23557Y10000D01*
X23544Y10103D01*
X23504Y10199D01*
X23441Y10281D01*
X23359Y10344D01*
X23263Y10384D01*
X23160Y10397D01*
D02*
G37*
G36*
X24160D02*
X24057Y10384D01*
X23961Y10344D01*
X23879Y10281D01*
X23816Y10199D01*
X23776Y10103D01*
X23763Y10000D01*
X23776Y9897D01*
X23816Y9801D01*
X23879Y9719D01*
X23961Y9656D01*
X24057Y9616D01*
X24160Y9603D01*
X24263Y9616D01*
X24359Y9656D01*
X24441Y9719D01*
X24504Y9801D01*
X24544Y9897D01*
X24557Y10000D01*
X24544Y10103D01*
X24504Y10199D01*
X24441Y10281D01*
X24359Y10344D01*
X24263Y10384D01*
X24160Y10397D01*
D02*
G37*
G36*
X4331Y10630D02*
X3543D01*
Y9843D01*
X4331D01*
Y10630D01*
D02*
G37*
G36*
X24160Y11397D02*
X24057Y11384D01*
X23961Y11344D01*
X23879Y11281D01*
X23816Y11199D01*
X23776Y11103D01*
X23763Y11000D01*
X23776Y10897D01*
X23816Y10801D01*
X23879Y10719D01*
X23961Y10656D01*
X24057Y10616D01*
X24160Y10603D01*
X24263Y10616D01*
X24359Y10656D01*
X24441Y10719D01*
X24504Y10801D01*
X24544Y10897D01*
X24557Y11000D01*
X24544Y11103D01*
X24504Y11199D01*
X24441Y11281D01*
X24359Y11344D01*
X24263Y11384D01*
X24160Y11397D01*
D02*
G37*
G36*
X8110Y16417D02*
X8007Y16404D01*
X7911Y16364D01*
X7829Y16301D01*
X7766Y16219D01*
X7726Y16123D01*
X7713Y16020D01*
X7726Y15917D01*
X7766Y15821D01*
X7829Y15739D01*
X7832Y15737D01*
Y15570D01*
X7842Y15493D01*
X7872Y15421D01*
X7919Y15359D01*
X8239Y15039D01*
X8239Y15039D01*
X8301Y14992D01*
X8373Y14962D01*
X8450Y14952D01*
X9557D01*
X9692Y14817D01*
Y13603D01*
X7849Y11761D01*
X7838Y11746D01*
X7779Y11701D01*
X7716Y11619D01*
X7676Y11523D01*
X7663Y11420D01*
X7676Y11317D01*
X7716Y11221D01*
X7779Y11139D01*
X7861Y11076D01*
X7901Y11060D01*
X7911Y11052D01*
X7983Y11022D01*
X8060Y11012D01*
X8137Y11022D01*
X8209Y11052D01*
X8219Y11060D01*
X8259Y11076D01*
X8341Y11139D01*
X8404Y11221D01*
X8444Y11317D01*
X8457Y11420D01*
X8445Y11514D01*
X10201Y13269D01*
X10248Y13331D01*
X10278Y13403D01*
X10288Y13480D01*
Y14940D01*
X10278Y15017D01*
X10248Y15089D01*
X10201Y15151D01*
X9891Y15461D01*
X9829Y15508D01*
X9757Y15538D01*
X9680Y15548D01*
X8573D01*
X8428Y15693D01*
Y15787D01*
X8454Y15821D01*
X8494Y15917D01*
X8507Y16020D01*
X8494Y16123D01*
X8454Y16219D01*
X8391Y16301D01*
X8309Y16364D01*
X8213Y16404D01*
X8110Y16417D01*
D02*
G37*
G36*
X3060Y11817D02*
X2957Y11804D01*
X2861Y11764D01*
X2779Y11701D01*
X2716Y11619D01*
X2676Y11523D01*
X2663Y11420D01*
X2676Y11317D01*
X2716Y11221D01*
X2779Y11139D01*
X2861Y11076D01*
X2957Y11036D01*
X3060Y11023D01*
X3163Y11036D01*
X3259Y11076D01*
X3341Y11139D01*
X3404Y11221D01*
X3444Y11317D01*
X3457Y11420D01*
X3444Y11523D01*
X3404Y11619D01*
X3341Y11701D01*
X3259Y11764D01*
X3163Y11804D01*
X3060Y11817D01*
D02*
G37*
G36*
X23160Y11397D02*
X23057Y11384D01*
X22961Y11344D01*
X22879Y11281D01*
X22816Y11199D01*
X22776Y11103D01*
X22763Y11000D01*
X22776Y10897D01*
X22816Y10801D01*
X22879Y10719D01*
X22961Y10656D01*
X23057Y10616D01*
X23160Y10603D01*
X23263Y10616D01*
X23359Y10656D01*
X23441Y10719D01*
X23504Y10801D01*
X23544Y10897D01*
X23557Y11000D01*
X23544Y11103D01*
X23504Y11199D01*
X23441Y11281D01*
X23359Y11344D01*
X23263Y11384D01*
X23160Y11397D01*
D02*
G37*
G36*
X7370Y15408D02*
X4750D01*
X4673Y15398D01*
X4601Y15368D01*
X4539Y15321D01*
X4539Y15321D01*
X4032Y14813D01*
X3957Y14804D01*
X3861Y14764D01*
X3779Y14701D01*
X3716Y14619D01*
X3676Y14523D01*
X3663Y14420D01*
X3676Y14317D01*
X3716Y14221D01*
X3779Y14139D01*
X3861Y14076D01*
X3957Y14036D01*
X4060Y14023D01*
X4163Y14036D01*
X4259Y14076D01*
X4341Y14139D01*
X4404Y14221D01*
X4444Y14317D01*
X4453Y14392D01*
X4649Y14588D01*
X4692Y14560D01*
X4676Y14523D01*
X4663Y14420D01*
X4676Y14317D01*
X4716Y14221D01*
X4767Y14155D01*
X4772Y14113D01*
X4802Y14041D01*
X4849Y13979D01*
X5419Y13409D01*
X5419Y13409D01*
X5481Y13362D01*
X5553Y13332D01*
X5630Y13322D01*
X5630Y13322D01*
X6640D01*
X6717Y13332D01*
X6789Y13362D01*
X6851Y13409D01*
X7271Y13829D01*
X7271Y13829D01*
X7318Y13891D01*
X7348Y13963D01*
X7358Y14040D01*
X7358Y14040D01*
Y14161D01*
X7404Y14221D01*
X7444Y14317D01*
X7457Y14420D01*
X7444Y14523D01*
X7428Y14560D01*
X7471Y14588D01*
X7667Y14392D01*
X7676Y14317D01*
X7716Y14221D01*
X7779Y14139D01*
X7861Y14076D01*
X7957Y14036D01*
X8060Y14023D01*
X8163Y14036D01*
X8259Y14076D01*
X8341Y14139D01*
X8404Y14221D01*
X8444Y14317D01*
X8457Y14420D01*
X8444Y14523D01*
X8404Y14619D01*
X8341Y14701D01*
X8259Y14764D01*
X8163Y14804D01*
X8088Y14813D01*
X7581Y15321D01*
X7519Y15368D01*
X7447Y15398D01*
X7370Y15408D01*
D02*
G37*
G36*
X13386Y15295D02*
X13283Y15281D01*
X13187Y15242D01*
X13105Y15178D01*
X13042Y15096D01*
X13002Y15000D01*
X12989Y14898D01*
X13002Y14795D01*
X13042Y14699D01*
X13105Y14617D01*
X13187Y14554D01*
X13283Y14514D01*
X13386Y14501D01*
X13489Y14514D01*
X13584Y14554D01*
X13667Y14617D01*
X13730Y14699D01*
X13769Y14795D01*
X13783Y14898D01*
X13769Y15000D01*
X13730Y15096D01*
X13667Y15178D01*
X13584Y15242D01*
X13489Y15281D01*
X13386Y15295D01*
D02*
G37*
G36*
X3060Y14817D02*
X2957Y14804D01*
X2861Y14764D01*
X2779Y14701D01*
X2716Y14619D01*
X2676Y14523D01*
X2663Y14420D01*
X2676Y14317D01*
X2716Y14221D01*
X2779Y14139D01*
X2861Y14076D01*
X2957Y14036D01*
X3060Y14023D01*
X3163Y14036D01*
X3259Y14076D01*
X3341Y14139D01*
X3404Y14221D01*
X3444Y14317D01*
X3457Y14420D01*
X3444Y14523D01*
X3404Y14619D01*
X3341Y14701D01*
X3259Y14764D01*
X3163Y14804D01*
X3060Y14817D01*
D02*
G37*
G36*
X17323Y15295D02*
X17220Y15281D01*
X17124Y15242D01*
X17042Y15178D01*
X16979Y15096D01*
X16939Y15000D01*
X16926Y14898D01*
X16939Y14795D01*
X16979Y14699D01*
X17042Y14617D01*
X17124Y14554D01*
X17220Y14514D01*
X17323Y14501D01*
X17426Y14514D01*
X17521Y14554D01*
X17604Y14617D01*
X17667Y14699D01*
X17706Y14795D01*
X17720Y14898D01*
X17706Y15000D01*
X17667Y15096D01*
X17604Y15178D01*
X17521Y15242D01*
X17426Y15281D01*
X17323Y15295D01*
D02*
G37*
G36*
X13386Y16295D02*
X13283Y16281D01*
X13187Y16242D01*
X13105Y16178D01*
X13042Y16096D01*
X13002Y16000D01*
X12989Y15898D01*
X13002Y15795D01*
X13042Y15699D01*
X13105Y15617D01*
X13187Y15554D01*
X13283Y15514D01*
X13386Y15501D01*
X13489Y15514D01*
X13584Y15554D01*
X13667Y15617D01*
X13730Y15699D01*
X13769Y15795D01*
X13783Y15898D01*
X13769Y16000D01*
X13730Y16096D01*
X13667Y16178D01*
X13584Y16242D01*
X13489Y16281D01*
X13386Y16295D01*
D02*
G37*
G36*
X17323D02*
X17220Y16281D01*
X17124Y16242D01*
X17042Y16178D01*
X16979Y16096D01*
X16939Y16000D01*
X16926Y15898D01*
X16939Y15795D01*
X16979Y15699D01*
X17042Y15617D01*
X17124Y15554D01*
X17220Y15514D01*
X17323Y15501D01*
X17426Y15514D01*
X17521Y15554D01*
X17604Y15617D01*
X17667Y15699D01*
X17706Y15795D01*
X17720Y15898D01*
X17706Y16000D01*
X17667Y16096D01*
X17604Y16178D01*
X17521Y16242D01*
X17426Y16281D01*
X17323Y16295D01*
D02*
G37*
G36*
X2110Y16417D02*
X2007Y16404D01*
X1911Y16364D01*
X1829Y16301D01*
X1766Y16219D01*
X1726Y16123D01*
X1713Y16020D01*
X1726Y15917D01*
X1766Y15821D01*
X1829Y15739D01*
X1911Y15676D01*
X2007Y15636D01*
X2110Y15623D01*
X2213Y15636D01*
X2309Y15676D01*
X2391Y15739D01*
X2454Y15821D01*
X2494Y15917D01*
X2507Y16020D01*
X2494Y16123D01*
X2454Y16219D01*
X2391Y16301D01*
X2309Y16364D01*
X2213Y16404D01*
X2110Y16417D01*
D02*
G37*
G36*
X24160Y15397D02*
X24057Y15384D01*
X23961Y15344D01*
X23879Y15281D01*
X23816Y15199D01*
X23776Y15103D01*
X23763Y15000D01*
X23776Y14897D01*
X23816Y14801D01*
X23879Y14719D01*
X23961Y14656D01*
X24057Y14616D01*
X24160Y14603D01*
X24263Y14616D01*
X24359Y14656D01*
X24441Y14719D01*
X24504Y14801D01*
X24544Y14897D01*
X24557Y15000D01*
X24544Y15103D01*
X24504Y15199D01*
X24441Y15281D01*
X24359Y15344D01*
X24263Y15384D01*
X24160Y15397D01*
D02*
G37*
G36*
X13386Y13295D02*
X13283Y13281D01*
X13187Y13242D01*
X13105Y13178D01*
X13042Y13096D01*
X13002Y13000D01*
X12989Y12898D01*
X13002Y12795D01*
X13042Y12699D01*
X13105Y12617D01*
X13187Y12554D01*
X13283Y12514D01*
X13386Y12501D01*
X13489Y12514D01*
X13584Y12554D01*
X13667Y12617D01*
X13730Y12699D01*
X13769Y12795D01*
X13783Y12898D01*
X13769Y13000D01*
X13730Y13096D01*
X13667Y13178D01*
X13584Y13242D01*
X13489Y13281D01*
X13386Y13295D01*
D02*
G37*
G36*
X17323D02*
X17220Y13281D01*
X17124Y13242D01*
X17042Y13178D01*
X16979Y13096D01*
X16939Y13000D01*
X16926Y12898D01*
X16939Y12795D01*
X16979Y12699D01*
X17042Y12617D01*
X17124Y12554D01*
X17220Y12514D01*
X17323Y12501D01*
X17426Y12514D01*
X17521Y12554D01*
X17604Y12617D01*
X17667Y12699D01*
X17706Y12795D01*
X17720Y12898D01*
X17706Y13000D01*
X17667Y13096D01*
X17604Y13178D01*
X17521Y13242D01*
X17426Y13281D01*
X17323Y13295D01*
D02*
G37*
G36*
Y14295D02*
X17220Y14281D01*
X17124Y14242D01*
X17042Y14178D01*
X16979Y14096D01*
X16939Y14000D01*
X16926Y13898D01*
X16939Y13795D01*
X16979Y13699D01*
X17042Y13617D01*
X17124Y13554D01*
X17220Y13514D01*
X17323Y13501D01*
X17426Y13514D01*
X17521Y13554D01*
X17604Y13617D01*
X17667Y13699D01*
X17706Y13795D01*
X17720Y13898D01*
X17706Y14000D01*
X17667Y14096D01*
X17604Y14178D01*
X17521Y14242D01*
X17426Y14281D01*
X17323Y14295D01*
D02*
G37*
G36*
X23160Y14397D02*
X23057Y14384D01*
X22961Y14344D01*
X22879Y14281D01*
X22816Y14199D01*
X22776Y14103D01*
X22763Y14000D01*
X22776Y13897D01*
X22816Y13801D01*
X22879Y13719D01*
X22961Y13656D01*
X23057Y13616D01*
X23160Y13603D01*
X23263Y13616D01*
X23359Y13656D01*
X23441Y13719D01*
X23504Y13801D01*
X23544Y13897D01*
X23557Y14000D01*
X23544Y14103D01*
X23504Y14199D01*
X23441Y14281D01*
X23359Y14344D01*
X23263Y14384D01*
X23160Y14397D01*
D02*
G37*
G36*
X24160D02*
X24057Y14384D01*
X23961Y14344D01*
X23879Y14281D01*
X23816Y14199D01*
X23776Y14103D01*
X23763Y14000D01*
X23776Y13897D01*
X23816Y13801D01*
X23879Y13719D01*
X23961Y13656D01*
X24057Y13616D01*
X24160Y13603D01*
X24263Y13616D01*
X24359Y13656D01*
X24441Y13719D01*
X24504Y13801D01*
X24544Y13897D01*
X24557Y14000D01*
X24544Y14103D01*
X24504Y14199D01*
X24441Y14281D01*
X24359Y14344D01*
X24263Y14384D01*
X24160Y14397D01*
D02*
G37*
G36*
X23160Y13397D02*
X23057Y13384D01*
X22961Y13344D01*
X22879Y13281D01*
X22816Y13199D01*
X22776Y13103D01*
X22763Y13000D01*
X22776Y12897D01*
X22816Y12801D01*
X22879Y12719D01*
X22961Y12656D01*
X23057Y12616D01*
X23160Y12603D01*
X23263Y12616D01*
X23359Y12656D01*
X23441Y12719D01*
X23504Y12801D01*
X23544Y12897D01*
X23557Y13000D01*
X23544Y13103D01*
X23504Y13199D01*
X23441Y13281D01*
X23359Y13344D01*
X23263Y13384D01*
X23160Y13397D01*
D02*
G37*
G36*
X24160D02*
X24057Y13384D01*
X23961Y13344D01*
X23879Y13281D01*
X23816Y13199D01*
X23776Y13103D01*
X23763Y13000D01*
X23776Y12897D01*
X23816Y12801D01*
X23879Y12719D01*
X23961Y12656D01*
X24057Y12616D01*
X24160Y12603D01*
X24263Y12616D01*
X24359Y12656D01*
X24441Y12719D01*
X24504Y12801D01*
X24544Y12897D01*
X24557Y13000D01*
X24544Y13103D01*
X24504Y13199D01*
X24441Y13281D01*
X24359Y13344D01*
X24263Y13384D01*
X24160Y13397D01*
D02*
G37*
G36*
X13386Y14295D02*
X13283Y14281D01*
X13187Y14242D01*
X13105Y14178D01*
X13042Y14096D01*
X13002Y14000D01*
X12989Y13898D01*
X13002Y13795D01*
X13042Y13699D01*
X13105Y13617D01*
X13187Y13554D01*
X13283Y13514D01*
X13386Y13501D01*
X13489Y13514D01*
X13584Y13554D01*
X13667Y13617D01*
X13730Y13699D01*
X13769Y13795D01*
X13783Y13898D01*
X13769Y14000D01*
X13730Y14096D01*
X13667Y14178D01*
X13584Y14242D01*
X13489Y14281D01*
X13386Y14295D01*
D02*
G37*
G36*
X20079Y3937D02*
X19291D01*
Y3150D01*
X20079D01*
Y3937D01*
D02*
G37*
G36*
X23160Y8397D02*
X23057Y8384D01*
X22961Y8344D01*
X22879Y8281D01*
X22816Y8199D01*
X22776Y8103D01*
X22763Y8000D01*
X22776Y7897D01*
X22816Y7801D01*
X22879Y7719D01*
X22961Y7656D01*
X23057Y7616D01*
X23160Y7603D01*
X23263Y7616D01*
X23359Y7656D01*
X23441Y7719D01*
X23504Y7801D01*
X23544Y7897D01*
X23557Y8000D01*
X23544Y8103D01*
X23504Y8199D01*
X23441Y8281D01*
X23359Y8344D01*
X23263Y8384D01*
X23160Y8397D01*
D02*
G37*
G36*
X24160D02*
X24057Y8384D01*
X23961Y8344D01*
X23879Y8281D01*
X23816Y8199D01*
X23776Y8103D01*
X23763Y8000D01*
X23776Y7897D01*
X23816Y7801D01*
X23879Y7719D01*
X23961Y7656D01*
X24057Y7616D01*
X24160Y7603D01*
X24263Y7616D01*
X24359Y7656D01*
X24441Y7719D01*
X24504Y7801D01*
X24544Y7897D01*
X24557Y8000D01*
X24544Y8103D01*
X24504Y8199D01*
X24441Y8281D01*
X24359Y8344D01*
X24263Y8384D01*
X24160Y8397D01*
D02*
G37*
G36*
X23160Y9397D02*
X23057Y9384D01*
X22961Y9344D01*
X22879Y9281D01*
X22816Y9199D01*
X22776Y9103D01*
X22763Y9000D01*
X22776Y8897D01*
X22816Y8801D01*
X22879Y8719D01*
X22961Y8656D01*
X23057Y8616D01*
X23160Y8603D01*
X23263Y8616D01*
X23359Y8656D01*
X23441Y8719D01*
X23504Y8801D01*
X23544Y8897D01*
X23557Y9000D01*
X23544Y9103D01*
X23504Y9199D01*
X23441Y9281D01*
X23359Y9344D01*
X23263Y9384D01*
X23160Y9397D01*
D02*
G37*
G36*
X24160D02*
X24057Y9384D01*
X23961Y9344D01*
X23879Y9281D01*
X23816Y9199D01*
X23776Y9103D01*
X23763Y9000D01*
X23776Y8897D01*
X23816Y8801D01*
X23879Y8719D01*
X23961Y8656D01*
X24057Y8616D01*
X24160Y8603D01*
X24263Y8616D01*
X24359Y8656D01*
X24441Y8719D01*
X24504Y8801D01*
X24544Y8897D01*
X24557Y9000D01*
X24544Y9103D01*
X24504Y9199D01*
X24441Y9281D01*
X24359Y9344D01*
X24263Y9384D01*
X24160Y9397D01*
D02*
G37*
G36*
X3110Y16417D02*
X3007Y16404D01*
X2911Y16364D01*
X2829Y16301D01*
X2766Y16219D01*
X2726Y16123D01*
X2713Y16020D01*
X2726Y15917D01*
X2766Y15821D01*
X2829Y15739D01*
X2911Y15676D01*
X3007Y15636D01*
X3110Y15623D01*
X3213Y15636D01*
X3309Y15676D01*
X3391Y15739D01*
X3454Y15821D01*
X3494Y15917D01*
X3507Y16020D01*
X3494Y16123D01*
X3454Y16219D01*
X3391Y16301D01*
X3309Y16364D01*
X3213Y16404D01*
X3110Y16417D01*
D02*
G37*
G36*
X23160Y26397D02*
X23057Y26384D01*
X22961Y26344D01*
X22879Y26281D01*
X22816Y26199D01*
X22776Y26103D01*
X22763Y26000D01*
X22776Y25897D01*
X22816Y25801D01*
X22879Y25719D01*
X22961Y25656D01*
X23057Y25616D01*
X23160Y25603D01*
X23263Y25616D01*
X23359Y25656D01*
X23441Y25719D01*
X23504Y25801D01*
X23544Y25897D01*
X23557Y26000D01*
X23544Y26103D01*
X23504Y26199D01*
X23441Y26281D01*
X23359Y26344D01*
X23263Y26384D01*
X23160Y26397D01*
D02*
G37*
G36*
X24160D02*
X24057Y26384D01*
X23961Y26344D01*
X23879Y26281D01*
X23816Y26199D01*
X23776Y26103D01*
X23763Y26000D01*
X23776Y25897D01*
X23816Y25801D01*
X23879Y25719D01*
X23961Y25656D01*
X24057Y25616D01*
X24160Y25603D01*
X24263Y25616D01*
X24359Y25656D01*
X24441Y25719D01*
X24504Y25801D01*
X24544Y25897D01*
X24557Y26000D01*
X24544Y26103D01*
X24504Y26199D01*
X24441Y26281D01*
X24359Y26344D01*
X24263Y26384D01*
X24160Y26397D01*
D02*
G37*
G36*
Y27397D02*
X24057Y27384D01*
X23961Y27344D01*
X23879Y27281D01*
X23816Y27199D01*
X23776Y27103D01*
X23763Y27000D01*
X23776Y26897D01*
X23816Y26801D01*
X23879Y26719D01*
X23961Y26656D01*
X24057Y26616D01*
X24160Y26603D01*
X24263Y26616D01*
X24359Y26656D01*
X24441Y26719D01*
X24504Y26801D01*
X24544Y26897D01*
X24557Y27000D01*
X24544Y27103D01*
X24504Y27199D01*
X24441Y27281D01*
X24359Y27344D01*
X24263Y27384D01*
X24160Y27397D01*
D02*
G37*
G36*
X23554Y27394D02*
X22766D01*
Y26606D01*
X23554D01*
Y27394D01*
D02*
G37*
G36*
X23160Y25397D02*
X23057Y25384D01*
X22961Y25344D01*
X22879Y25281D01*
X22816Y25199D01*
X22776Y25103D01*
X22763Y25000D01*
X22776Y24897D01*
X22816Y24801D01*
X22879Y24719D01*
X22961Y24656D01*
X23057Y24616D01*
X23160Y24603D01*
X23263Y24616D01*
X23359Y24656D01*
X23441Y24719D01*
X23504Y24801D01*
X23544Y24897D01*
X23557Y25000D01*
X23544Y25103D01*
X23504Y25199D01*
X23441Y25281D01*
X23359Y25344D01*
X23263Y25384D01*
X23160Y25397D01*
D02*
G37*
G36*
X24160D02*
X24057Y25384D01*
X23961Y25344D01*
X23879Y25281D01*
X23816Y25199D01*
X23776Y25103D01*
X23763Y25000D01*
X23776Y24897D01*
X23816Y24801D01*
X23879Y24719D01*
X23961Y24656D01*
X24057Y24616D01*
X24160Y24603D01*
X24263Y24616D01*
X24359Y24656D01*
X24441Y24719D01*
X24504Y24801D01*
X24544Y24897D01*
X24557Y25000D01*
X24544Y25103D01*
X24504Y25199D01*
X24441Y25281D01*
X24359Y25344D01*
X24263Y25384D01*
X24160Y25397D01*
D02*
G37*
G36*
X21260Y26874D02*
X21086Y26857D01*
X20919Y26807D01*
X20765Y26724D01*
X20630Y26614D01*
X20520Y26479D01*
X20437Y26325D01*
X20387Y26158D01*
X20370Y25984D01*
X20387Y25811D01*
X20437Y25644D01*
X20520Y25490D01*
X20630Y25355D01*
X20765Y25244D01*
X20919Y25162D01*
X21086Y25111D01*
X21260Y25094D01*
X21433Y25111D01*
X21600Y25162D01*
X21754Y25244D01*
X21889Y25355D01*
X22000Y25490D01*
X22082Y25644D01*
X22133Y25811D01*
X22150Y25984D01*
X22133Y26158D01*
X22082Y26325D01*
X22000Y26479D01*
X21889Y26614D01*
X21754Y26724D01*
X21600Y26807D01*
X21433Y26857D01*
X21260Y26874D01*
D02*
G37*
G36*
X22843Y31081D02*
X22669Y31064D01*
X22502Y31013D01*
X22348Y30931D01*
X22214Y30820D01*
X22103Y30685D01*
X22021Y30532D01*
X21970Y30365D01*
X21953Y30191D01*
X21970Y30017D01*
X22021Y29850D01*
X22103Y29696D01*
X22214Y29562D01*
X22348Y29451D01*
X22502Y29369D01*
X22669Y29318D01*
X22843Y29301D01*
X23017Y29318D01*
X23184Y29369D01*
X23337Y29451D01*
X23472Y29562D01*
X23583Y29696D01*
X23665Y29850D01*
X23716Y30017D01*
X23733Y30191D01*
X23716Y30365D01*
X23665Y30532D01*
X23583Y30685D01*
X23472Y30820D01*
X23337Y30931D01*
X23184Y31013D01*
X23017Y31064D01*
X22843Y31081D01*
D02*
G37*
G36*
X24160Y20397D02*
X24057Y20384D01*
X23961Y20344D01*
X23879Y20281D01*
X23816Y20199D01*
X23776Y20103D01*
X23763Y20000D01*
X23776Y19897D01*
X23816Y19801D01*
X23879Y19719D01*
X23961Y19656D01*
X24057Y19616D01*
X24160Y19603D01*
X24263Y19616D01*
X24359Y19656D01*
X24441Y19719D01*
X24504Y19801D01*
X24544Y19897D01*
X24557Y20000D01*
X24544Y20103D01*
X24504Y20199D01*
X24441Y20281D01*
X24359Y20344D01*
X24263Y20384D01*
X24160Y20397D01*
D02*
G37*
G36*
X7110Y16417D02*
X7007Y16404D01*
X6911Y16364D01*
X6829Y16301D01*
X6766Y16219D01*
X6726Y16123D01*
X6713Y16020D01*
X6726Y15917D01*
X6766Y15821D01*
X6829Y15739D01*
X6911Y15676D01*
X7007Y15636D01*
X7110Y15623D01*
X7213Y15636D01*
X7309Y15676D01*
X7391Y15739D01*
X7454Y15821D01*
X7494Y15917D01*
X7507Y16020D01*
X7494Y16123D01*
X7454Y16219D01*
X7391Y16301D01*
X7309Y16364D01*
X7213Y16404D01*
X7110Y16417D01*
D02*
G37*
G36*
X13386Y17295D02*
X13283Y17281D01*
X13187Y17242D01*
X13105Y17178D01*
X13042Y17096D01*
X13002Y17000D01*
X12989Y16898D01*
X13002Y16795D01*
X13042Y16699D01*
X13105Y16617D01*
X13187Y16554D01*
X13283Y16514D01*
X13386Y16501D01*
X13489Y16514D01*
X13584Y16554D01*
X13667Y16617D01*
X13730Y16699D01*
X13769Y16795D01*
X13783Y16898D01*
X13769Y17000D01*
X13730Y17096D01*
X13667Y17178D01*
X13584Y17242D01*
X13489Y17281D01*
X13386Y17295D01*
D02*
G37*
G36*
X4110Y16417D02*
X4007Y16404D01*
X3911Y16364D01*
X3829Y16301D01*
X3766Y16219D01*
X3726Y16123D01*
X3713Y16020D01*
X3726Y15917D01*
X3766Y15821D01*
X3829Y15739D01*
X3911Y15676D01*
X4007Y15636D01*
X4110Y15623D01*
X4213Y15636D01*
X4309Y15676D01*
X4391Y15739D01*
X4454Y15821D01*
X4494Y15917D01*
X4507Y16020D01*
X4494Y16123D01*
X4454Y16219D01*
X4391Y16301D01*
X4309Y16364D01*
X4213Y16404D01*
X4110Y16417D01*
D02*
G37*
G36*
X5110D02*
X5007Y16404D01*
X4911Y16364D01*
X4829Y16301D01*
X4766Y16219D01*
X4726Y16123D01*
X4713Y16020D01*
X4726Y15917D01*
X4766Y15821D01*
X4829Y15739D01*
X4911Y15676D01*
X5007Y15636D01*
X5110Y15623D01*
X5213Y15636D01*
X5309Y15676D01*
X5391Y15739D01*
X5454Y15821D01*
X5494Y15917D01*
X5507Y16020D01*
X5494Y16123D01*
X5454Y16219D01*
X5391Y16301D01*
X5309Y16364D01*
X5213Y16404D01*
X5110Y16417D01*
D02*
G37*
G36*
X6110D02*
X6007Y16404D01*
X5911Y16364D01*
X5829Y16301D01*
X5766Y16219D01*
X5726Y16123D01*
X5713Y16020D01*
X5726Y15917D01*
X5766Y15821D01*
X5829Y15739D01*
X5911Y15676D01*
X6007Y15636D01*
X6110Y15623D01*
X6213Y15636D01*
X6309Y15676D01*
X6391Y15739D01*
X6454Y15821D01*
X6494Y15917D01*
X6507Y16020D01*
X6494Y16123D01*
X6454Y16219D01*
X6391Y16301D01*
X6309Y16364D01*
X6213Y16404D01*
X6110Y16417D01*
D02*
G37*
G36*
X23160Y19397D02*
X23057Y19384D01*
X22961Y19344D01*
X22879Y19281D01*
X22816Y19199D01*
X22776Y19103D01*
X22763Y19000D01*
X22776Y18897D01*
X22816Y18801D01*
X22879Y18719D01*
X22961Y18656D01*
X23057Y18616D01*
X23160Y18603D01*
X23263Y18616D01*
X23359Y18656D01*
X23441Y18719D01*
X23504Y18801D01*
X23544Y18897D01*
X23557Y19000D01*
X23544Y19103D01*
X23504Y19199D01*
X23441Y19281D01*
X23359Y19344D01*
X23263Y19384D01*
X23160Y19397D01*
D02*
G37*
G36*
X24160D02*
X24057Y19384D01*
X23961Y19344D01*
X23879Y19281D01*
X23816Y19199D01*
X23776Y19103D01*
X23763Y19000D01*
X23776Y18897D01*
X23816Y18801D01*
X23879Y18719D01*
X23961Y18656D01*
X24057Y18616D01*
X24160Y18603D01*
X24263Y18616D01*
X24359Y18656D01*
X24441Y18719D01*
X24504Y18801D01*
X24544Y18897D01*
X24557Y19000D01*
X24544Y19103D01*
X24504Y19199D01*
X24441Y19281D01*
X24359Y19344D01*
X24263Y19384D01*
X24160Y19397D01*
D02*
G37*
G36*
X13386Y18295D02*
X13283Y18281D01*
X13187Y18242D01*
X13105Y18178D01*
X13042Y18096D01*
X13002Y18000D01*
X12989Y17898D01*
X13002Y17795D01*
X13042Y17699D01*
X13105Y17617D01*
X13187Y17554D01*
X13283Y17514D01*
X13386Y17501D01*
X13489Y17514D01*
X13584Y17554D01*
X13667Y17617D01*
X13730Y17699D01*
X13769Y17795D01*
X13783Y17898D01*
X13769Y18000D01*
X13730Y18096D01*
X13667Y18178D01*
X13584Y18242D01*
X13489Y18281D01*
X13386Y18295D01*
D02*
G37*
G36*
X23160Y18397D02*
X23057Y18384D01*
X22961Y18344D01*
X22879Y18281D01*
X22816Y18199D01*
X22776Y18103D01*
X22763Y18000D01*
X22776Y17897D01*
X22816Y17801D01*
X22879Y17719D01*
X22961Y17656D01*
X23057Y17616D01*
X23160Y17603D01*
X23263Y17616D01*
X23359Y17656D01*
X23441Y17719D01*
X23504Y17801D01*
X23544Y17897D01*
X23557Y18000D01*
X23544Y18103D01*
X23504Y18199D01*
X23441Y18281D01*
X23359Y18344D01*
X23263Y18384D01*
X23160Y18397D01*
D02*
G37*
G36*
X24160D02*
X24057Y18384D01*
X23961Y18344D01*
X23879Y18281D01*
X23816Y18199D01*
X23776Y18103D01*
X23763Y18000D01*
X23776Y17897D01*
X23816Y17801D01*
X23879Y17719D01*
X23961Y17656D01*
X24057Y17616D01*
X24160Y17603D01*
X24263Y17616D01*
X24359Y17656D01*
X24441Y17719D01*
X24504Y17801D01*
X24544Y17897D01*
X24557Y18000D01*
X24544Y18103D01*
X24504Y18199D01*
X24441Y18281D01*
X24359Y18344D01*
X24263Y18384D01*
X24160Y18397D01*
D02*
G37*
G36*
X23160Y23397D02*
X23057Y23384D01*
X22961Y23344D01*
X22879Y23281D01*
X22816Y23199D01*
X22776Y23103D01*
X22763Y23000D01*
X22776Y22897D01*
X22816Y22801D01*
X22879Y22719D01*
X22961Y22656D01*
X23057Y22616D01*
X23160Y22603D01*
X23263Y22616D01*
X23359Y22656D01*
X23441Y22719D01*
X23504Y22801D01*
X23544Y22897D01*
X23557Y23000D01*
X23544Y23103D01*
X23504Y23199D01*
X23441Y23281D01*
X23359Y23344D01*
X23263Y23384D01*
X23160Y23397D01*
D02*
G37*
G36*
X24160D02*
X24057Y23384D01*
X23961Y23344D01*
X23879Y23281D01*
X23816Y23199D01*
X23776Y23103D01*
X23763Y23000D01*
X23776Y22897D01*
X23816Y22801D01*
X23879Y22719D01*
X23961Y22656D01*
X24057Y22616D01*
X24160Y22603D01*
X24263Y22616D01*
X24359Y22656D01*
X24441Y22719D01*
X24504Y22801D01*
X24544Y22897D01*
X24557Y23000D01*
X24544Y23103D01*
X24504Y23199D01*
X24441Y23281D01*
X24359Y23344D01*
X24263Y23384D01*
X24160Y23397D01*
D02*
G37*
G36*
Y24397D02*
X24057Y24384D01*
X23961Y24344D01*
X23879Y24281D01*
X23816Y24199D01*
X23776Y24103D01*
X23763Y24000D01*
X23776Y23897D01*
X23816Y23801D01*
X23879Y23719D01*
X23961Y23656D01*
X24057Y23616D01*
X24160Y23603D01*
X24263Y23616D01*
X24359Y23656D01*
X24441Y23719D01*
X24504Y23801D01*
X24544Y23897D01*
X24557Y24000D01*
X24544Y24103D01*
X24504Y24199D01*
X24441Y24281D01*
X24359Y24344D01*
X24263Y24384D01*
X24160Y24397D01*
D02*
G37*
G36*
Y21397D02*
X24057Y21384D01*
X23961Y21344D01*
X23879Y21281D01*
X23816Y21199D01*
X23776Y21103D01*
X23763Y21000D01*
X23776Y20897D01*
X23816Y20801D01*
X23879Y20719D01*
X23961Y20656D01*
X24057Y20616D01*
X24160Y20603D01*
X24263Y20616D01*
X24359Y20656D01*
X24441Y20719D01*
X24504Y20801D01*
X24544Y20897D01*
X24557Y21000D01*
X24544Y21103D01*
X24504Y21199D01*
X24441Y21281D01*
X24359Y21344D01*
X24263Y21384D01*
X24160Y21397D01*
D02*
G37*
G36*
Y22397D02*
X24057Y22384D01*
X23961Y22344D01*
X23879Y22281D01*
X23816Y22199D01*
X23776Y22103D01*
X23763Y22000D01*
X23776Y21897D01*
X23816Y21801D01*
X23879Y21719D01*
X23961Y21656D01*
X24057Y21616D01*
X24160Y21603D01*
X24263Y21616D01*
X24359Y21656D01*
X24441Y21719D01*
X24504Y21801D01*
X24544Y21897D01*
X24557Y22000D01*
X24544Y22103D01*
X24504Y22199D01*
X24441Y22281D01*
X24359Y22344D01*
X24263Y22384D01*
X24160Y22397D01*
D02*
G37*
%LPD*%
G36*
X6860Y14767D02*
X6859Y14762D01*
X6779Y14701D01*
X6716Y14619D01*
X6676Y14523D01*
X6663Y14420D01*
X6676Y14317D01*
X6716Y14221D01*
X6761Y14163D01*
X6517Y13918D01*
X5753D01*
X5417Y14254D01*
X5444Y14317D01*
X5457Y14420D01*
X5444Y14523D01*
X5404Y14619D01*
X5341Y14701D01*
X5261Y14762D01*
X5260Y14767D01*
X5279Y14812D01*
X5841D01*
X5860Y14767D01*
X5859Y14762D01*
X5779Y14701D01*
X5716Y14619D01*
X5676Y14523D01*
X5663Y14420D01*
X5676Y14317D01*
X5716Y14221D01*
X5779Y14139D01*
X5861Y14076D01*
X5957Y14036D01*
X6060Y14023D01*
X6163Y14036D01*
X6259Y14076D01*
X6341Y14139D01*
X6404Y14221D01*
X6444Y14317D01*
X6457Y14420D01*
X6444Y14523D01*
X6404Y14619D01*
X6341Y14701D01*
X6261Y14762D01*
X6260Y14767D01*
X6279Y14812D01*
X6841D01*
X6860Y14767D01*
D02*
G37*
%LPC*%
G36*
X16500Y30597D02*
X16397Y30584D01*
X16301Y30544D01*
X16219Y30481D01*
X16156Y30399D01*
X16116Y30303D01*
X16103Y30200D01*
X16116Y30097D01*
X16156Y30001D01*
X16219Y29919D01*
X16301Y29856D01*
X16397Y29816D01*
X16500Y29803D01*
X16603Y29816D01*
X16699Y29856D01*
X16781Y29919D01*
X16844Y30001D01*
X16884Y30097D01*
X16897Y30200D01*
X16884Y30303D01*
X16844Y30399D01*
X16781Y30481D01*
X16699Y30544D01*
X16603Y30584D01*
X16500Y30597D01*
D02*
G37*
G36*
X17500D02*
X17397Y30584D01*
X17301Y30544D01*
X17219Y30481D01*
X17156Y30399D01*
X17116Y30303D01*
X17103Y30200D01*
X17116Y30097D01*
X17156Y30001D01*
X17219Y29919D01*
X17301Y29856D01*
X17397Y29816D01*
X17500Y29803D01*
X17603Y29816D01*
X17699Y29856D01*
X17781Y29919D01*
X17844Y30001D01*
X17884Y30097D01*
X17897Y30200D01*
X17884Y30303D01*
X17844Y30399D01*
X17781Y30481D01*
X17699Y30544D01*
X17603Y30584D01*
X17500Y30597D01*
D02*
G37*
G36*
X18500D02*
X18397Y30584D01*
X18301Y30544D01*
X18219Y30481D01*
X18156Y30399D01*
X18116Y30303D01*
X18103Y30200D01*
X18116Y30097D01*
X18156Y30001D01*
X18219Y29919D01*
X18301Y29856D01*
X18397Y29816D01*
X18500Y29803D01*
X18603Y29816D01*
X18699Y29856D01*
X18781Y29919D01*
X18844Y30001D01*
X18884Y30097D01*
X18897Y30200D01*
X18884Y30303D01*
X18844Y30399D01*
X18781Y30481D01*
X18699Y30544D01*
X18603Y30584D01*
X18500Y30597D01*
D02*
G37*
G36*
X16500Y31597D02*
X16397Y31584D01*
X16301Y31544D01*
X16219Y31481D01*
X16156Y31399D01*
X16116Y31303D01*
X16103Y31200D01*
X16116Y31097D01*
X16156Y31001D01*
X16219Y30919D01*
X16301Y30856D01*
X16397Y30816D01*
X16500Y30803D01*
X16603Y30816D01*
X16699Y30856D01*
X16781Y30919D01*
X16844Y31001D01*
X16884Y31097D01*
X16897Y31200D01*
X16884Y31303D01*
X16844Y31399D01*
X16781Y31481D01*
X16699Y31544D01*
X16603Y31584D01*
X16500Y31597D01*
D02*
G37*
G36*
X14500D02*
X14397Y31584D01*
X14301Y31544D01*
X14219Y31481D01*
X14156Y31399D01*
X14116Y31303D01*
X14103Y31200D01*
X14116Y31097D01*
X14156Y31001D01*
X14219Y30919D01*
X14301Y30856D01*
X14397Y30816D01*
X14500Y30803D01*
X14603Y30816D01*
X14699Y30856D01*
X14781Y30919D01*
X14844Y31001D01*
X14884Y31097D01*
X14897Y31200D01*
X14884Y31303D01*
X14844Y31399D01*
X14781Y31481D01*
X14699Y31544D01*
X14603Y31584D01*
X14500Y31597D01*
D02*
G37*
G36*
X14350Y28207D02*
X14247Y28194D01*
X14151Y28154D01*
X14069Y28091D01*
X14006Y28009D01*
X13966Y27913D01*
X13953Y27810D01*
X13966Y27707D01*
X14006Y27611D01*
X14069Y27529D01*
X14151Y27466D01*
X14247Y27426D01*
X14350Y27413D01*
X14453Y27426D01*
X14549Y27466D01*
X14631Y27529D01*
X14694Y27611D01*
X14734Y27707D01*
X14747Y27810D01*
X14734Y27913D01*
X14694Y28009D01*
X14631Y28091D01*
X14549Y28154D01*
X14453Y28194D01*
X14350Y28207D01*
D02*
G37*
G36*
X15350D02*
X15247Y28194D01*
X15151Y28154D01*
X15069Y28091D01*
X15006Y28009D01*
X14966Y27913D01*
X14953Y27810D01*
X14966Y27707D01*
X15006Y27611D01*
X15069Y27529D01*
X15151Y27466D01*
X15247Y27426D01*
X15350Y27413D01*
X15453Y27426D01*
X15549Y27466D01*
X15631Y27529D01*
X15694Y27611D01*
X15734Y27707D01*
X15747Y27810D01*
X15734Y27913D01*
X15694Y28009D01*
X15631Y28091D01*
X15549Y28154D01*
X15453Y28194D01*
X15350Y28207D01*
D02*
G37*
G36*
X-8338Y32084D02*
X-9125D01*
Y31296D01*
X-8338D01*
Y32084D01*
D02*
G37*
G36*
X-8340Y26817D02*
X-8443Y26804D01*
X-8539Y26764D01*
X-8621Y26701D01*
X-8684Y26619D01*
X-8724Y26523D01*
X-8737Y26420D01*
X-8724Y26317D01*
X-8684Y26221D01*
X-8621Y26139D01*
X-8539Y26076D01*
X-8443Y26036D01*
X-8340Y26023D01*
X-8237Y26036D01*
X-8141Y26076D01*
X-8059Y26139D01*
X-7996Y26221D01*
X-7956Y26317D01*
X-7943Y26420D01*
X-7956Y26523D01*
X-7996Y26619D01*
X-8059Y26701D01*
X-8141Y26764D01*
X-8237Y26804D01*
X-8340Y26817D01*
D02*
G37*
G36*
X-7160Y26827D02*
X-7263Y26814D01*
X-7359Y26774D01*
X-7441Y26711D01*
X-7504Y26629D01*
X-7544Y26533D01*
X-7557Y26430D01*
X-7544Y26327D01*
X-7504Y26231D01*
X-7441Y26149D01*
X-7359Y26086D01*
X-7263Y26046D01*
X-7160Y26033D01*
X-7057Y26046D01*
X-6961Y26086D01*
X-6879Y26149D01*
X-6816Y26231D01*
X-6776Y26327D01*
X-6763Y26430D01*
X-6776Y26533D01*
X-6816Y26629D01*
X-6879Y26711D01*
X-6961Y26774D01*
X-7057Y26814D01*
X-7160Y26827D01*
D02*
G37*
G36*
X-4160D02*
X-4263Y26814D01*
X-4359Y26774D01*
X-4441Y26711D01*
X-4504Y26629D01*
X-4544Y26533D01*
X-4557Y26430D01*
X-4544Y26327D01*
X-4504Y26231D01*
X-4441Y26149D01*
X-4359Y26086D01*
X-4263Y26046D01*
X-4160Y26033D01*
X-4057Y26046D01*
X-3961Y26086D01*
X-3879Y26149D01*
X-3816Y26231D01*
X-3776Y26327D01*
X-3763Y26430D01*
X-3776Y26533D01*
X-3816Y26629D01*
X-3879Y26711D01*
X-3961Y26774D01*
X-4057Y26814D01*
X-4160Y26827D01*
D02*
G37*
G36*
X-9960Y25927D02*
X-10063Y25914D01*
X-10159Y25874D01*
X-10241Y25811D01*
X-10304Y25729D01*
X-10344Y25633D01*
X-10357Y25530D01*
X-10344Y25427D01*
X-10304Y25331D01*
X-10241Y25249D01*
X-10159Y25186D01*
X-10063Y25146D01*
X-9960Y25133D01*
X-9857Y25146D01*
X-9761Y25186D01*
X-9679Y25249D01*
X-9616Y25331D01*
X-9576Y25427D01*
X-9563Y25530D01*
X-9576Y25633D01*
X-9616Y25729D01*
X-9679Y25811D01*
X-9761Y25874D01*
X-9857Y25914D01*
X-9960Y25927D01*
D02*
G37*
G36*
X-2950Y26837D02*
X-3053Y26824D01*
X-3149Y26784D01*
X-3231Y26721D01*
X-3294Y26639D01*
X-3334Y26543D01*
X-3347Y26440D01*
X-3334Y26337D01*
X-3294Y26241D01*
X-3231Y26159D01*
X-3149Y26096D01*
X-3053Y26056D01*
X-2950Y26043D01*
X-2847Y26056D01*
X-2751Y26096D01*
X-2669Y26159D01*
X-2606Y26241D01*
X-2566Y26337D01*
X-2553Y26440D01*
X-2566Y26543D01*
X-2606Y26639D01*
X-2669Y26721D01*
X-2751Y26784D01*
X-2847Y26824D01*
X-2950Y26837D01*
D02*
G37*
G36*
X-8316Y30874D02*
X-9104D01*
Y30086D01*
X-8316D01*
Y30874D01*
D02*
G37*
G36*
X-8340Y27817D02*
X-8443Y27804D01*
X-8539Y27764D01*
X-8621Y27701D01*
X-8684Y27619D01*
X-8724Y27523D01*
X-8737Y27420D01*
X-8724Y27317D01*
X-8684Y27221D01*
X-8621Y27139D01*
X-8539Y27076D01*
X-8443Y27036D01*
X-8340Y27023D01*
X-8237Y27036D01*
X-8141Y27076D01*
X-8059Y27139D01*
X-7996Y27221D01*
X-7956Y27317D01*
X-7943Y27420D01*
X-7956Y27523D01*
X-7996Y27619D01*
X-8059Y27701D01*
X-8141Y27764D01*
X-8237Y27804D01*
X-8340Y27817D01*
D02*
G37*
G36*
X-7160Y27827D02*
X-7263Y27814D01*
X-7359Y27774D01*
X-7441Y27711D01*
X-7504Y27629D01*
X-7544Y27533D01*
X-7557Y27430D01*
X-7544Y27327D01*
X-7504Y27231D01*
X-7441Y27149D01*
X-7359Y27086D01*
X-7263Y27046D01*
X-7160Y27033D01*
X-7057Y27046D01*
X-6961Y27086D01*
X-6879Y27149D01*
X-6816Y27231D01*
X-6776Y27327D01*
X-6763Y27430D01*
X-6776Y27533D01*
X-6816Y27629D01*
X-6879Y27711D01*
X-6961Y27774D01*
X-7057Y27814D01*
X-7160Y27827D01*
D02*
G37*
G36*
X-9960Y26927D02*
X-10063Y26914D01*
X-10159Y26874D01*
X-10241Y26811D01*
X-10304Y26729D01*
X-10344Y26633D01*
X-10357Y26530D01*
X-10344Y26427D01*
X-10304Y26331D01*
X-10241Y26249D01*
X-10159Y26186D01*
X-10063Y26146D01*
X-9960Y26133D01*
X-9857Y26146D01*
X-9761Y26186D01*
X-9679Y26249D01*
X-9616Y26331D01*
X-9576Y26427D01*
X-9563Y26530D01*
X-9576Y26633D01*
X-9616Y26729D01*
X-9679Y26811D01*
X-9761Y26874D01*
X-9857Y26914D01*
X-9960Y26927D01*
D02*
G37*
G36*
X-1530Y25067D02*
X-1633Y25054D01*
X-1729Y25014D01*
X-1811Y24951D01*
X-1874Y24869D01*
X-1914Y24773D01*
X-1927Y24670D01*
X-1914Y24567D01*
X-1874Y24471D01*
X-1811Y24389D01*
X-1729Y24326D01*
X-1633Y24286D01*
X-1530Y24273D01*
X-1427Y24286D01*
X-1331Y24326D01*
X-1249Y24389D01*
X-1186Y24471D01*
X-1146Y24567D01*
X-1133Y24670D01*
X-1146Y24773D01*
X-1186Y24869D01*
X-1249Y24951D01*
X-1331Y25014D01*
X-1427Y25054D01*
X-1530Y25067D01*
D02*
G37*
G36*
X-4160Y24827D02*
X-4263Y24814D01*
X-4359Y24774D01*
X-4441Y24711D01*
X-4504Y24629D01*
X-4544Y24533D01*
X-4557Y24430D01*
X-4544Y24327D01*
X-4504Y24231D01*
X-4441Y24149D01*
X-4359Y24086D01*
X-4263Y24046D01*
X-4160Y24033D01*
X-4057Y24046D01*
X-3961Y24086D01*
X-3879Y24149D01*
X-3816Y24231D01*
X-3776Y24327D01*
X-3763Y24430D01*
X-3776Y24533D01*
X-3816Y24629D01*
X-3879Y24711D01*
X-3961Y24774D01*
X-4057Y24814D01*
X-4160Y24827D01*
D02*
G37*
G36*
X-2950Y24837D02*
X-3053Y24824D01*
X-3149Y24784D01*
X-3231Y24721D01*
X-3294Y24639D01*
X-3334Y24543D01*
X-3347Y24440D01*
X-3334Y24337D01*
X-3294Y24241D01*
X-3231Y24159D01*
X-3149Y24096D01*
X-3053Y24056D01*
X-2950Y24043D01*
X-2847Y24056D01*
X-2751Y24096D01*
X-2669Y24159D01*
X-2606Y24241D01*
X-2566Y24337D01*
X-2553Y24440D01*
X-2566Y24543D01*
X-2606Y24639D01*
X-2669Y24721D01*
X-2751Y24784D01*
X-2847Y24824D01*
X-2950Y24837D01*
D02*
G37*
G36*
X-9566Y24924D02*
X-10354D01*
Y24136D01*
X-9566D01*
Y24924D01*
D02*
G37*
G36*
X-5512Y32386D02*
X-5685Y32369D01*
X-5852Y32318D01*
X-6006Y32236D01*
X-6141Y32125D01*
X-6252Y31991D01*
X-6334Y31837D01*
X-6385Y31670D01*
X-6402Y31496D01*
X-6385Y31322D01*
X-6334Y31155D01*
X-6252Y31002D01*
X-6141Y30867D01*
X-6006Y30756D01*
X-5852Y30674D01*
X-5685Y30623D01*
X-5512Y30606D01*
X-5338Y30623D01*
X-5171Y30674D01*
X-5017Y30756D01*
X-4882Y30867D01*
X-4772Y31002D01*
X-4689Y31155D01*
X-4639Y31322D01*
X-4622Y31496D01*
X-4639Y31670D01*
X-4689Y31837D01*
X-4772Y31991D01*
X-4882Y32125D01*
X-5017Y32236D01*
X-5171Y32318D01*
X-5338Y32369D01*
X-5512Y32386D01*
D02*
G37*
G36*
X-4160Y25827D02*
X-4263Y25814D01*
X-4359Y25774D01*
X-4441Y25711D01*
X-4504Y25629D01*
X-4544Y25533D01*
X-4557Y25430D01*
X-4544Y25327D01*
X-4504Y25231D01*
X-4441Y25149D01*
X-4359Y25086D01*
X-4263Y25046D01*
X-4160Y25033D01*
X-4057Y25046D01*
X-3961Y25086D01*
X-3879Y25149D01*
X-3816Y25231D01*
X-3776Y25327D01*
X-3763Y25430D01*
X-3776Y25533D01*
X-3816Y25629D01*
X-3879Y25711D01*
X-3961Y25774D01*
X-4057Y25814D01*
X-4160Y25827D01*
D02*
G37*
G36*
X-2950Y25837D02*
X-3053Y25824D01*
X-3149Y25784D01*
X-3231Y25721D01*
X-3294Y25639D01*
X-3334Y25543D01*
X-3347Y25440D01*
X-3334Y25337D01*
X-3294Y25241D01*
X-3231Y25159D01*
X-3149Y25096D01*
X-3053Y25056D01*
X-2950Y25043D01*
X-2847Y25056D01*
X-2751Y25096D01*
X-2669Y25159D01*
X-2606Y25241D01*
X-2566Y25337D01*
X-2553Y25440D01*
X-2566Y25543D01*
X-2606Y25639D01*
X-2669Y25721D01*
X-2751Y25784D01*
X-2847Y25824D01*
X-2950Y25837D01*
D02*
G37*
G36*
X-8340Y25817D02*
X-8443Y25804D01*
X-8539Y25764D01*
X-8621Y25701D01*
X-8684Y25619D01*
X-8724Y25523D01*
X-8737Y25420D01*
X-8724Y25317D01*
X-8684Y25221D01*
X-8621Y25139D01*
X-8539Y25076D01*
X-8443Y25036D01*
X-8340Y25023D01*
X-8237Y25036D01*
X-8141Y25076D01*
X-8059Y25139D01*
X-7996Y25221D01*
X-7956Y25317D01*
X-7943Y25420D01*
X-7956Y25523D01*
X-7996Y25619D01*
X-8059Y25701D01*
X-8141Y25764D01*
X-8237Y25804D01*
X-8340Y25817D01*
D02*
G37*
G36*
X-7160Y25827D02*
X-7263Y25814D01*
X-7359Y25774D01*
X-7441Y25711D01*
X-7504Y25629D01*
X-7544Y25533D01*
X-7557Y25430D01*
X-7544Y25327D01*
X-7504Y25231D01*
X-7441Y25149D01*
X-7359Y25086D01*
X-7263Y25046D01*
X-7160Y25033D01*
X-7057Y25046D01*
X-6961Y25086D01*
X-6879Y25149D01*
X-6816Y25231D01*
X-6776Y25327D01*
X-6763Y25430D01*
X-6776Y25533D01*
X-6816Y25629D01*
X-6879Y25711D01*
X-6961Y25774D01*
X-7057Y25814D01*
X-7160Y25827D01*
D02*
G37*
G36*
X-4160Y27827D02*
X-4263Y27814D01*
X-4359Y27774D01*
X-4441Y27711D01*
X-4504Y27629D01*
X-4544Y27533D01*
X-4557Y27430D01*
X-4544Y27327D01*
X-4504Y27231D01*
X-4441Y27149D01*
X-4359Y27086D01*
X-4263Y27046D01*
X-4160Y27033D01*
X-4057Y27046D01*
X-3961Y27086D01*
X-3879Y27149D01*
X-3816Y27231D01*
X-3776Y27327D01*
X-3763Y27430D01*
X-3776Y27533D01*
X-3816Y27629D01*
X-3879Y27711D01*
X-3961Y27774D01*
X-4057Y27814D01*
X-4160Y27827D01*
D02*
G37*
G36*
X-2950Y29837D02*
X-3053Y29824D01*
X-3149Y29784D01*
X-3231Y29721D01*
X-3294Y29639D01*
X-3334Y29543D01*
X-3347Y29440D01*
X-3334Y29337D01*
X-3294Y29241D01*
X-3231Y29159D01*
X-3149Y29096D01*
X-3053Y29056D01*
X-2950Y29043D01*
X-2847Y29056D01*
X-2751Y29096D01*
X-2669Y29159D01*
X-2606Y29241D01*
X-2566Y29337D01*
X-2553Y29440D01*
X-2566Y29543D01*
X-2606Y29639D01*
X-2669Y29721D01*
X-2751Y29784D01*
X-2847Y29824D01*
X-2950Y29837D01*
D02*
G37*
G36*
X-1136Y29834D02*
X-1924D01*
Y29046D01*
X-1136D01*
Y29834D01*
D02*
G37*
G36*
X-8340Y29817D02*
X-8443Y29804D01*
X-8539Y29764D01*
X-8621Y29701D01*
X-8684Y29619D01*
X-8724Y29523D01*
X-8737Y29420D01*
X-8724Y29317D01*
X-8684Y29221D01*
X-8621Y29139D01*
X-8539Y29076D01*
X-8443Y29036D01*
X-8340Y29023D01*
X-8237Y29036D01*
X-8141Y29076D01*
X-8059Y29139D01*
X-7996Y29221D01*
X-7956Y29317D01*
X-7943Y29420D01*
X-7956Y29523D01*
X-7996Y29619D01*
X-8059Y29701D01*
X-8141Y29764D01*
X-8237Y29804D01*
X-8340Y29817D01*
D02*
G37*
G36*
X-7160Y29827D02*
X-7263Y29814D01*
X-7359Y29774D01*
X-7441Y29711D01*
X-7504Y29629D01*
X-7544Y29533D01*
X-7557Y29430D01*
X-7544Y29327D01*
X-7504Y29231D01*
X-7441Y29149D01*
X-7359Y29086D01*
X-7263Y29046D01*
X-7160Y29033D01*
X-7057Y29046D01*
X-6961Y29086D01*
X-6879Y29149D01*
X-6816Y29231D01*
X-6776Y29327D01*
X-6763Y29430D01*
X-6776Y29533D01*
X-6816Y29629D01*
X-6879Y29711D01*
X-6961Y29774D01*
X-7057Y29814D01*
X-7160Y29827D01*
D02*
G37*
G36*
X-4160D02*
X-4263Y29814D01*
X-4359Y29774D01*
X-4441Y29711D01*
X-4504Y29629D01*
X-4544Y29533D01*
X-4557Y29430D01*
X-4544Y29327D01*
X-4504Y29231D01*
X-4441Y29149D01*
X-4359Y29086D01*
X-4263Y29046D01*
X-4160Y29033D01*
X-4057Y29046D01*
X-3961Y29086D01*
X-3879Y29149D01*
X-3816Y29231D01*
X-3776Y29327D01*
X-3763Y29430D01*
X-3776Y29533D01*
X-3816Y29629D01*
X-3879Y29711D01*
X-3961Y29774D01*
X-4057Y29814D01*
X-4160Y29827D01*
D02*
G37*
G36*
X-7710Y30877D02*
X-7813Y30864D01*
X-7909Y30824D01*
X-7991Y30761D01*
X-8054Y30679D01*
X-8094Y30583D01*
X-8107Y30480D01*
X-8094Y30377D01*
X-8054Y30281D01*
X-7991Y30199D01*
X-7909Y30136D01*
X-7813Y30096D01*
X-7710Y30083D01*
X-7607Y30096D01*
X-7511Y30136D01*
X-7429Y30199D01*
X-7366Y30281D01*
X-7326Y30377D01*
X-7313Y30480D01*
X-7326Y30583D01*
X-7366Y30679D01*
X-7429Y30761D01*
X-7511Y30824D01*
X-7607Y30864D01*
X-7710Y30877D01*
D02*
G37*
G36*
X-2950Y27837D02*
X-3053Y27824D01*
X-3149Y27784D01*
X-3231Y27721D01*
X-3294Y27639D01*
X-3334Y27543D01*
X-3347Y27440D01*
X-3334Y27337D01*
X-3294Y27241D01*
X-3231Y27159D01*
X-3149Y27096D01*
X-3053Y27056D01*
X-2950Y27043D01*
X-2847Y27056D01*
X-2751Y27096D01*
X-2669Y27159D01*
X-2606Y27241D01*
X-2566Y27337D01*
X-2553Y27440D01*
X-2566Y27543D01*
X-2606Y27639D01*
X-2669Y27721D01*
X-2751Y27784D01*
X-2847Y27824D01*
X-2950Y27837D01*
D02*
G37*
G36*
X-1530D02*
X-1633Y27824D01*
X-1729Y27784D01*
X-1811Y27721D01*
X-1874Y27639D01*
X-1914Y27543D01*
X-1927Y27440D01*
X-1914Y27337D01*
X-1874Y27241D01*
X-1811Y27159D01*
X-1729Y27096D01*
X-1633Y27056D01*
X-1530Y27043D01*
X-1427Y27056D01*
X-1331Y27096D01*
X-1249Y27159D01*
X-1186Y27241D01*
X-1146Y27337D01*
X-1133Y27440D01*
X-1146Y27543D01*
X-1186Y27639D01*
X-1249Y27721D01*
X-1331Y27784D01*
X-1427Y27824D01*
X-1530Y27837D01*
D02*
G37*
G36*
X-9960Y27927D02*
X-10063Y27914D01*
X-10159Y27874D01*
X-10241Y27811D01*
X-10304Y27729D01*
X-10344Y27633D01*
X-10357Y27530D01*
X-10344Y27427D01*
X-10304Y27331D01*
X-10241Y27249D01*
X-10159Y27186D01*
X-10063Y27146D01*
X-9960Y27133D01*
X-9857Y27146D01*
X-9761Y27186D01*
X-9679Y27249D01*
X-9616Y27331D01*
X-9576Y27427D01*
X-9563Y27530D01*
X-9576Y27633D01*
X-9616Y27729D01*
X-9679Y27811D01*
X-9761Y27874D01*
X-9857Y27914D01*
X-9960Y27927D01*
D02*
G37*
G36*
X-4160Y28827D02*
X-4263Y28814D01*
X-4359Y28774D01*
X-4441Y28711D01*
X-4504Y28629D01*
X-4544Y28533D01*
X-4557Y28430D01*
X-4544Y28327D01*
X-4504Y28231D01*
X-4441Y28149D01*
X-4359Y28086D01*
X-4263Y28046D01*
X-4160Y28033D01*
X-4057Y28046D01*
X-3961Y28086D01*
X-3879Y28149D01*
X-3816Y28231D01*
X-3776Y28327D01*
X-3763Y28430D01*
X-3776Y28533D01*
X-3816Y28629D01*
X-3879Y28711D01*
X-3961Y28774D01*
X-4057Y28814D01*
X-4160Y28827D01*
D02*
G37*
G36*
X-2950Y28837D02*
X-3053Y28824D01*
X-3149Y28784D01*
X-3231Y28721D01*
X-3294Y28639D01*
X-3334Y28543D01*
X-3347Y28440D01*
X-3334Y28337D01*
X-3294Y28241D01*
X-3231Y28159D01*
X-3149Y28096D01*
X-3053Y28056D01*
X-2950Y28043D01*
X-2847Y28056D01*
X-2751Y28096D01*
X-2669Y28159D01*
X-2606Y28241D01*
X-2566Y28337D01*
X-2553Y28440D01*
X-2566Y28543D01*
X-2606Y28639D01*
X-2669Y28721D01*
X-2751Y28784D01*
X-2847Y28824D01*
X-2950Y28837D01*
D02*
G37*
G36*
X-1530D02*
X-1633Y28824D01*
X-1729Y28784D01*
X-1811Y28721D01*
X-1874Y28639D01*
X-1914Y28543D01*
X-1916Y28526D01*
X-1927Y28509D01*
X-1941Y28440D01*
X-1927Y28371D01*
X-1916Y28354D01*
X-1914Y28337D01*
X-1874Y28241D01*
X-1811Y28159D01*
X-1729Y28096D01*
X-1633Y28056D01*
X-1530Y28043D01*
X-1427Y28056D01*
X-1331Y28096D01*
X-1249Y28159D01*
X-1186Y28241D01*
X-1146Y28337D01*
X-1133Y28440D01*
X-1146Y28543D01*
X-1186Y28639D01*
X-1249Y28721D01*
X-1331Y28784D01*
X-1427Y28824D01*
X-1530Y28837D01*
D02*
G37*
G36*
X-8340Y28817D02*
X-8443Y28804D01*
X-8539Y28764D01*
X-8621Y28701D01*
X-8684Y28619D01*
X-8724Y28523D01*
X-8737Y28420D01*
X-8724Y28317D01*
X-8684Y28221D01*
X-8621Y28139D01*
X-8539Y28076D01*
X-8443Y28036D01*
X-8340Y28023D01*
X-8237Y28036D01*
X-8141Y28076D01*
X-8059Y28139D01*
X-7996Y28221D01*
X-7956Y28317D01*
X-7943Y28420D01*
X-7956Y28523D01*
X-7996Y28619D01*
X-8059Y28701D01*
X-8141Y28764D01*
X-8237Y28804D01*
X-8340Y28817D01*
D02*
G37*
G36*
X-7160Y28827D02*
X-7263Y28814D01*
X-7359Y28774D01*
X-7441Y28711D01*
X-7504Y28629D01*
X-7544Y28533D01*
X-7557Y28430D01*
X-7544Y28327D01*
X-7504Y28231D01*
X-7441Y28149D01*
X-7359Y28086D01*
X-7263Y28046D01*
X-7160Y28033D01*
X-7057Y28046D01*
X-6961Y28086D01*
X-6879Y28149D01*
X-6816Y28231D01*
X-6776Y28327D01*
X-6763Y28430D01*
X-6776Y28533D01*
X-6816Y28629D01*
X-6879Y28711D01*
X-6961Y28774D01*
X-7057Y28814D01*
X-7160Y28827D01*
D02*
G37*
G36*
Y24827D02*
X-7263Y24814D01*
X-7359Y24774D01*
X-7441Y24711D01*
X-7504Y24629D01*
X-7544Y24533D01*
X-7557Y24430D01*
X-7544Y24327D01*
X-7504Y24231D01*
X-7441Y24149D01*
X-7359Y24086D01*
X-7263Y24046D01*
X-7160Y24033D01*
X-7057Y24046D01*
X-6961Y24086D01*
X-6879Y24149D01*
X-6816Y24231D01*
X-6776Y24327D01*
X-6763Y24430D01*
X-6776Y24533D01*
X-6816Y24629D01*
X-6879Y24711D01*
X-6961Y24774D01*
X-7057Y24814D01*
X-7160Y24827D01*
D02*
G37*
G36*
X-3417Y19743D02*
X-4046D01*
Y19588D01*
X-6600D01*
X-6677Y19578D01*
X-6749Y19548D01*
X-6811Y19501D01*
X-8243Y18068D01*
X-8490D01*
Y18144D01*
X-9070D01*
X-9080Y18144D01*
X-9120D01*
X-9130Y18144D01*
X-9580D01*
X-9590Y18194D01*
X-9571Y18202D01*
X-9509Y18249D01*
X-8847Y18912D01*
X-8074D01*
X-8066Y18906D01*
X-7981Y18871D01*
X-7890Y18859D01*
X-7799Y18871D01*
X-7714Y18906D01*
X-7642Y18961D01*
X-7586Y19034D01*
X-7551Y19119D01*
X-7539Y19210D01*
X-7551Y19301D01*
X-7586Y19386D01*
X-7642Y19459D01*
X-7714Y19514D01*
X-7799Y19549D01*
X-7890Y19561D01*
X-7981Y19549D01*
X-8066Y19514D01*
X-8074Y19508D01*
X-8970D01*
X-9047Y19498D01*
X-9119Y19468D01*
X-9181Y19421D01*
X-9843Y18758D01*
X-10306D01*
X-10314Y18764D01*
X-10399Y18799D01*
X-10490Y18811D01*
X-10581Y18799D01*
X-10666Y18764D01*
X-10739Y18708D01*
X-10794Y18636D01*
X-10829Y18551D01*
X-10841Y18460D01*
X-10829Y18369D01*
X-10794Y18284D01*
X-10739Y18211D01*
X-10666Y18156D01*
X-10581Y18121D01*
X-10570Y18119D01*
X-10011Y17559D01*
X-10011Y17559D01*
X-9949Y17512D01*
X-9877Y17482D01*
X-9800Y17472D01*
X-9710D01*
Y17436D01*
X-9130D01*
X-9120Y17436D01*
X-9080D01*
X-9070Y17436D01*
X-8490D01*
Y17472D01*
X-8120D01*
X-8043Y17482D01*
X-7971Y17512D01*
X-7909Y17559D01*
X-6477Y18992D01*
X-4046D01*
Y18837D01*
X-3417D01*
Y19743D01*
D02*
G37*
G36*
X-1590Y19847D02*
X-1693Y19834D01*
X-1789Y19794D01*
X-1871Y19731D01*
X-1934Y19649D01*
X-1955Y19598D01*
X-2354D01*
Y19743D01*
X-2983D01*
Y18837D01*
X-2354D01*
Y19002D01*
X-1740D01*
X-1663Y19012D01*
X-1591Y19042D01*
X-1574Y19055D01*
X-1487Y19066D01*
X-1391Y19106D01*
X-1309Y19169D01*
X-1246Y19251D01*
X-1206Y19347D01*
X-1193Y19450D01*
X-1206Y19553D01*
X-1246Y19649D01*
X-1309Y19731D01*
X-1391Y19794D01*
X-1487Y19834D01*
X-1590Y19847D01*
D02*
G37*
G36*
X-3766Y20824D02*
X-4554D01*
Y20519D01*
X-4567Y20499D01*
X-4581Y20430D01*
X-4567Y20361D01*
X-4554Y20341D01*
Y20036D01*
X-3766D01*
Y20824D01*
D02*
G37*
G36*
X-2556Y20834D02*
X-3344D01*
Y20046D01*
X-2556D01*
Y20834D01*
D02*
G37*
G36*
X-1196Y20844D02*
X-1984D01*
Y20056D01*
X-1196D01*
Y20844D01*
D02*
G37*
G36*
X-7946Y20814D02*
X-8734D01*
Y20026D01*
X-7946D01*
Y20814D01*
D02*
G37*
G36*
X-7160Y20827D02*
X-7263Y20814D01*
X-7359Y20774D01*
X-7441Y20711D01*
X-7504Y20629D01*
X-7544Y20533D01*
X-7557Y20430D01*
X-7544Y20327D01*
X-7504Y20231D01*
X-7441Y20149D01*
X-7359Y20086D01*
X-7263Y20046D01*
X-7160Y20033D01*
X-7057Y20046D01*
X-6961Y20086D01*
X-6879Y20149D01*
X-6816Y20231D01*
X-6776Y20327D01*
X-6763Y20430D01*
X-6776Y20533D01*
X-6816Y20629D01*
X-6879Y20711D01*
X-6961Y20774D01*
X-7057Y20814D01*
X-7160Y20827D01*
D02*
G37*
G36*
X-7731Y32087D02*
X-7834Y32074D01*
X-7930Y32034D01*
X-8012Y31971D01*
X-8075Y31889D01*
X-8115Y31793D01*
X-8128Y31690D01*
X-8115Y31587D01*
X-8075Y31491D01*
X-8012Y31409D01*
X-7930Y31346D01*
X-7834Y31306D01*
X-7731Y31293D01*
X-7628Y31306D01*
X-7533Y31346D01*
X-7450Y31409D01*
X-7387Y31491D01*
X-7348Y31587D01*
X-7334Y31690D01*
X-7348Y31793D01*
X-7387Y31889D01*
X-7450Y31971D01*
X-7533Y32034D01*
X-7628Y32074D01*
X-7731Y32087D01*
D02*
G37*
G36*
X-5512Y18803D02*
X-5685Y18786D01*
X-5852Y18736D01*
X-6006Y18653D01*
X-6141Y18543D01*
X-6252Y18408D01*
X-6334Y18254D01*
X-6385Y18087D01*
X-6402Y17913D01*
X-6385Y17740D01*
X-6334Y17573D01*
X-6252Y17419D01*
X-6141Y17284D01*
X-6006Y17173D01*
X-5852Y17091D01*
X-5685Y17040D01*
X-5512Y17023D01*
X-5338Y17040D01*
X-5171Y17091D01*
X-5017Y17173D01*
X-4882Y17284D01*
X-4772Y17419D01*
X-4689Y17573D01*
X-4639Y17740D01*
X-4622Y17913D01*
X-4639Y18087D01*
X-4689Y18254D01*
X-4772Y18408D01*
X-4882Y18543D01*
X-5017Y18653D01*
X-5171Y18736D01*
X-5338Y18786D01*
X-5512Y18803D01*
D02*
G37*
G36*
X-8340Y23817D02*
X-8443Y23804D01*
X-8539Y23764D01*
X-8621Y23701D01*
X-8684Y23619D01*
X-8724Y23523D01*
X-8737Y23420D01*
X-8724Y23317D01*
X-8684Y23221D01*
X-8621Y23139D01*
X-8539Y23076D01*
X-8443Y23036D01*
X-8340Y23023D01*
X-8237Y23036D01*
X-8141Y23076D01*
X-8059Y23139D01*
X-7996Y23221D01*
X-7956Y23317D01*
X-7943Y23420D01*
X-7956Y23523D01*
X-7996Y23619D01*
X-8059Y23701D01*
X-8141Y23764D01*
X-8237Y23804D01*
X-8340Y23817D01*
D02*
G37*
G36*
X-4160Y22827D02*
X-4263Y22814D01*
X-4359Y22774D01*
X-4441Y22711D01*
X-4504Y22629D01*
X-4544Y22533D01*
X-4557Y22430D01*
X-4544Y22327D01*
X-4504Y22231D01*
X-4441Y22149D01*
X-4359Y22086D01*
X-4263Y22046D01*
X-4160Y22033D01*
X-4057Y22046D01*
X-3961Y22086D01*
X-3879Y22149D01*
X-3816Y22231D01*
X-3776Y22327D01*
X-3763Y22430D01*
X-3776Y22533D01*
X-3816Y22629D01*
X-3879Y22711D01*
X-3961Y22774D01*
X-4057Y22814D01*
X-4160Y22827D01*
D02*
G37*
G36*
X-2950Y22837D02*
X-3053Y22824D01*
X-3149Y22784D01*
X-3231Y22721D01*
X-3294Y22639D01*
X-3334Y22543D01*
X-3347Y22440D01*
X-3334Y22337D01*
X-3294Y22241D01*
X-3231Y22159D01*
X-3149Y22096D01*
X-3053Y22056D01*
X-2950Y22043D01*
X-2847Y22056D01*
X-2751Y22096D01*
X-2669Y22159D01*
X-2606Y22241D01*
X-2566Y22337D01*
X-2553Y22440D01*
X-2566Y22543D01*
X-2606Y22639D01*
X-2669Y22721D01*
X-2751Y22784D01*
X-2847Y22824D01*
X-2950Y22837D01*
D02*
G37*
G36*
X-1530Y23067D02*
X-1633Y23054D01*
X-1729Y23014D01*
X-1811Y22951D01*
X-1874Y22869D01*
X-1914Y22773D01*
X-1927Y22670D01*
X-1914Y22567D01*
X-1874Y22471D01*
X-1811Y22389D01*
X-1729Y22326D01*
X-1633Y22286D01*
X-1530Y22273D01*
X-1427Y22286D01*
X-1331Y22326D01*
X-1249Y22389D01*
X-1186Y22471D01*
X-1146Y22567D01*
X-1133Y22670D01*
X-1146Y22773D01*
X-1186Y22869D01*
X-1249Y22951D01*
X-1331Y23014D01*
X-1427Y23054D01*
X-1530Y23067D01*
D02*
G37*
G36*
X-7160Y23827D02*
X-7263Y23814D01*
X-7359Y23774D01*
X-7441Y23711D01*
X-7504Y23629D01*
X-7544Y23533D01*
X-7557Y23430D01*
X-7544Y23327D01*
X-7504Y23231D01*
X-7441Y23149D01*
X-7359Y23086D01*
X-7263Y23046D01*
X-7160Y23033D01*
X-7057Y23046D01*
X-6961Y23086D01*
X-6879Y23149D01*
X-6816Y23231D01*
X-6776Y23327D01*
X-6763Y23430D01*
X-6776Y23533D01*
X-6816Y23629D01*
X-6879Y23711D01*
X-6961Y23774D01*
X-7057Y23814D01*
X-7160Y23827D01*
D02*
G37*
G36*
X-8340Y24817D02*
X-8443Y24804D01*
X-8539Y24764D01*
X-8621Y24701D01*
X-8684Y24619D01*
X-8724Y24523D01*
X-8737Y24420D01*
X-8724Y24317D01*
X-8684Y24221D01*
X-8621Y24139D01*
X-8539Y24076D01*
X-8443Y24036D01*
X-8340Y24023D01*
X-8237Y24036D01*
X-8141Y24076D01*
X-8059Y24139D01*
X-7996Y24221D01*
X-7956Y24317D01*
X-7943Y24420D01*
X-7956Y24523D01*
X-7996Y24619D01*
X-8059Y24701D01*
X-8141Y24764D01*
X-8237Y24804D01*
X-8340Y24817D01*
D02*
G37*
G36*
X-4160Y23827D02*
X-4263Y23814D01*
X-4359Y23774D01*
X-4441Y23711D01*
X-4504Y23629D01*
X-4544Y23533D01*
X-4557Y23430D01*
X-4544Y23327D01*
X-4504Y23231D01*
X-4441Y23149D01*
X-4359Y23086D01*
X-4263Y23046D01*
X-4160Y23033D01*
X-4057Y23046D01*
X-3961Y23086D01*
X-3879Y23149D01*
X-3816Y23231D01*
X-3776Y23327D01*
X-3763Y23430D01*
X-3776Y23533D01*
X-3816Y23629D01*
X-3879Y23711D01*
X-3961Y23774D01*
X-4057Y23814D01*
X-4160Y23827D01*
D02*
G37*
G36*
X-2950Y23837D02*
X-3053Y23824D01*
X-3149Y23784D01*
X-3231Y23721D01*
X-3294Y23639D01*
X-3334Y23543D01*
X-3347Y23440D01*
X-3334Y23337D01*
X-3294Y23241D01*
X-3231Y23159D01*
X-3149Y23096D01*
X-3053Y23056D01*
X-2950Y23043D01*
X-2847Y23056D01*
X-2751Y23096D01*
X-2669Y23159D01*
X-2606Y23241D01*
X-2566Y23337D01*
X-2553Y23440D01*
X-2566Y23543D01*
X-2606Y23639D01*
X-2669Y23721D01*
X-2751Y23784D01*
X-2847Y23824D01*
X-2950Y23837D01*
D02*
G37*
G36*
X-1530Y24067D02*
X-1633Y24054D01*
X-1729Y24014D01*
X-1811Y23951D01*
X-1874Y23869D01*
X-1914Y23773D01*
X-1927Y23670D01*
X-1914Y23567D01*
X-1874Y23471D01*
X-1811Y23389D01*
X-1729Y23326D01*
X-1633Y23286D01*
X-1530Y23273D01*
X-1427Y23286D01*
X-1331Y23326D01*
X-1249Y23389D01*
X-1186Y23471D01*
X-1146Y23567D01*
X-1133Y23670D01*
X-1146Y23773D01*
X-1186Y23869D01*
X-1249Y23951D01*
X-1331Y24014D01*
X-1427Y24054D01*
X-1530Y24067D01*
D02*
G37*
G36*
X-8340Y21817D02*
X-8443Y21804D01*
X-8539Y21764D01*
X-8621Y21701D01*
X-8684Y21619D01*
X-8724Y21523D01*
X-8737Y21420D01*
X-8724Y21317D01*
X-8684Y21221D01*
X-8621Y21139D01*
X-8539Y21076D01*
X-8443Y21036D01*
X-8340Y21023D01*
X-8237Y21036D01*
X-8141Y21076D01*
X-8059Y21139D01*
X-7996Y21221D01*
X-7956Y21317D01*
X-7943Y21420D01*
X-7956Y21523D01*
X-7996Y21619D01*
X-8059Y21701D01*
X-8141Y21764D01*
X-8237Y21804D01*
X-8340Y21817D01*
D02*
G37*
G36*
X-7160Y21827D02*
X-7263Y21814D01*
X-7359Y21774D01*
X-7441Y21711D01*
X-7504Y21629D01*
X-7544Y21533D01*
X-7557Y21430D01*
X-7544Y21327D01*
X-7504Y21231D01*
X-7441Y21149D01*
X-7359Y21086D01*
X-7263Y21046D01*
X-7160Y21033D01*
X-7057Y21046D01*
X-6961Y21086D01*
X-6879Y21149D01*
X-6816Y21231D01*
X-6776Y21327D01*
X-6763Y21430D01*
X-6776Y21533D01*
X-6816Y21629D01*
X-6879Y21711D01*
X-6961Y21774D01*
X-7057Y21814D01*
X-7160Y21827D01*
D02*
G37*
G36*
X-4160D02*
X-4263Y21814D01*
X-4359Y21774D01*
X-4441Y21711D01*
X-4504Y21629D01*
X-4544Y21533D01*
X-4557Y21430D01*
X-4544Y21327D01*
X-4504Y21231D01*
X-4441Y21149D01*
X-4359Y21086D01*
X-4263Y21046D01*
X-4160Y21033D01*
X-4057Y21046D01*
X-3961Y21086D01*
X-3879Y21149D01*
X-3816Y21231D01*
X-3776Y21327D01*
X-3763Y21430D01*
X-3776Y21533D01*
X-3816Y21629D01*
X-3879Y21711D01*
X-3961Y21774D01*
X-4057Y21814D01*
X-4160Y21827D01*
D02*
G37*
G36*
X-7160Y22827D02*
X-7263Y22814D01*
X-7359Y22774D01*
X-7441Y22711D01*
X-7504Y22629D01*
X-7544Y22533D01*
X-7557Y22430D01*
X-7544Y22327D01*
X-7504Y22231D01*
X-7441Y22149D01*
X-7359Y22086D01*
X-7263Y22046D01*
X-7160Y22033D01*
X-7057Y22046D01*
X-6961Y22086D01*
X-6879Y22149D01*
X-6816Y22231D01*
X-6776Y22327D01*
X-6763Y22430D01*
X-6776Y22533D01*
X-6816Y22629D01*
X-6879Y22711D01*
X-6961Y22774D01*
X-7057Y22814D01*
X-7160Y22827D01*
D02*
G37*
G36*
X-8340Y22817D02*
X-8443Y22804D01*
X-8539Y22764D01*
X-8621Y22701D01*
X-8684Y22619D01*
X-8724Y22523D01*
X-8737Y22420D01*
X-8724Y22317D01*
X-8684Y22221D01*
X-8621Y22139D01*
X-8539Y22076D01*
X-8443Y22036D01*
X-8340Y22023D01*
X-8237Y22036D01*
X-8141Y22076D01*
X-8059Y22139D01*
X-7996Y22221D01*
X-7956Y22317D01*
X-7943Y22420D01*
X-7956Y22523D01*
X-7996Y22619D01*
X-8059Y22701D01*
X-8141Y22764D01*
X-8237Y22804D01*
X-8340Y22817D01*
D02*
G37*
G36*
X-2950Y21837D02*
X-3053Y21824D01*
X-3149Y21784D01*
X-3231Y21721D01*
X-3294Y21639D01*
X-3334Y21543D01*
X-3347Y21440D01*
X-3334Y21337D01*
X-3294Y21241D01*
X-3231Y21159D01*
X-3149Y21096D01*
X-3053Y21056D01*
X-2950Y21043D01*
X-2847Y21056D01*
X-2751Y21096D01*
X-2669Y21159D01*
X-2606Y21241D01*
X-2566Y21337D01*
X-2553Y21440D01*
X-2566Y21543D01*
X-2606Y21639D01*
X-2669Y21721D01*
X-2751Y21784D01*
X-2847Y21824D01*
X-2950Y21837D01*
D02*
G37*
G36*
X-1136Y22064D02*
X-1924D01*
Y21276D01*
X-1136D01*
Y22064D01*
D02*
G37*
G36*
X2173Y6277D02*
X1999Y6260D01*
X1832Y6209D01*
X1678Y6127D01*
X1543Y6016D01*
X1433Y5882D01*
X1350Y5728D01*
X1300Y5561D01*
X1283Y5387D01*
X1300Y5213D01*
X1350Y5046D01*
X1433Y4892D01*
X1543Y4758D01*
X1678Y4647D01*
X1832Y4565D01*
X1999Y4514D01*
X2173Y4497D01*
X2346Y4514D01*
X2513Y4565D01*
X2667Y4647D01*
X2802Y4758D01*
X2913Y4892D01*
X2995Y5046D01*
X3046Y5213D01*
X3063Y5387D01*
X3046Y5561D01*
X2995Y5728D01*
X2913Y5882D01*
X2802Y6016D01*
X2667Y6127D01*
X2513Y6209D01*
X2346Y6260D01*
X2173Y6277D01*
D02*
G37*
G36*
X9840Y1697D02*
X9737Y1684D01*
X9641Y1644D01*
X9559Y1581D01*
X9496Y1499D01*
X9456Y1403D01*
X9443Y1300D01*
X9456Y1197D01*
X9496Y1101D01*
X9559Y1019D01*
X9641Y956D01*
X9737Y916D01*
X9840Y903D01*
X9943Y916D01*
X10039Y956D01*
X10121Y1019D01*
X10184Y1101D01*
X10224Y1197D01*
X10237Y1300D01*
X10224Y1403D01*
X10184Y1499D01*
X10121Y1581D01*
X10039Y1644D01*
X9943Y1684D01*
X9840Y1697D01*
D02*
G37*
G36*
X10840D02*
X10737Y1684D01*
X10641Y1644D01*
X10559Y1581D01*
X10496Y1499D01*
X10456Y1403D01*
X10443Y1300D01*
X10456Y1197D01*
X10496Y1101D01*
X10559Y1019D01*
X10641Y956D01*
X10737Y916D01*
X10840Y903D01*
X10943Y916D01*
X11039Y956D01*
X11121Y1019D01*
X11184Y1101D01*
X11224Y1197D01*
X11237Y1300D01*
X11224Y1403D01*
X11184Y1499D01*
X11121Y1581D01*
X11039Y1644D01*
X10943Y1684D01*
X10840Y1697D01*
D02*
G37*
G36*
X9234Y1694D02*
X8446D01*
Y906D01*
X9234D01*
Y1694D01*
D02*
G37*
G36*
X6000Y1497D02*
X5897Y1484D01*
X5801Y1444D01*
X5719Y1381D01*
X5656Y1299D01*
X5616Y1203D01*
X5603Y1100D01*
X5616Y997D01*
X5656Y901D01*
X5719Y819D01*
X5801Y756D01*
X5897Y716D01*
X6000Y703D01*
X6103Y716D01*
X6199Y756D01*
X6281Y819D01*
X6344Y901D01*
X6384Y997D01*
X6397Y1100D01*
X6384Y1203D01*
X6344Y1299D01*
X6281Y1381D01*
X6199Y1444D01*
X6103Y1484D01*
X6000Y1497D01*
D02*
G37*
G36*
X7394Y1494D02*
X6606D01*
Y706D01*
X7394D01*
Y1494D01*
D02*
G37*
G36*
X5244Y1766D02*
X3040D01*
Y978D01*
X5244D01*
Y1766D01*
D02*
G37*
G36*
X4349Y3937D02*
X3561D01*
Y3150D01*
X4349D01*
Y3937D01*
D02*
G37*
G36*
X1969Y4040D02*
X1795Y4023D01*
X1628Y3972D01*
X1474Y3890D01*
X1339Y3779D01*
X1228Y3644D01*
X1146Y3490D01*
X1095Y3323D01*
X1078Y3150D01*
X1095Y2976D01*
X1146Y2809D01*
X1228Y2655D01*
X1339Y2520D01*
X1474Y2410D01*
X1628Y2327D01*
X1795Y2277D01*
X1969Y2259D01*
X2142Y2277D01*
X2309Y2327D01*
X2463Y2410D01*
X2598Y2520D01*
X2709Y2655D01*
X2791Y2809D01*
X2842Y2976D01*
X2859Y3150D01*
X2842Y3323D01*
X2791Y3490D01*
X2709Y3644D01*
X2598Y3779D01*
X2463Y3890D01*
X2309Y3972D01*
X2142Y4023D01*
X1969Y4040D01*
D02*
G37*
G36*
X-8220Y12127D02*
X-8323Y12114D01*
X-8419Y12074D01*
X-8501Y12011D01*
X-8564Y11929D01*
X-8604Y11833D01*
X-8617Y11730D01*
X-8604Y11627D01*
X-8564Y11531D01*
X-8501Y11449D01*
X-8419Y11386D01*
X-8323Y11346D01*
X-8220Y11333D01*
X-8117Y11346D01*
X-8021Y11386D01*
X-7939Y11449D01*
X-7876Y11531D01*
X-7836Y11627D01*
X-7823Y11730D01*
X-7836Y11833D01*
X-7876Y11929D01*
X-7939Y12011D01*
X-8021Y12074D01*
X-8117Y12114D01*
X-8220Y12127D01*
D02*
G37*
G36*
X-7040Y12137D02*
X-7143Y12124D01*
X-7239Y12084D01*
X-7321Y12021D01*
X-7384Y11939D01*
X-7424Y11843D01*
X-7437Y11740D01*
X-7424Y11637D01*
X-7384Y11541D01*
X-7321Y11459D01*
X-7239Y11396D01*
X-7143Y11356D01*
X-7040Y11343D01*
X-6937Y11356D01*
X-6841Y11396D01*
X-6759Y11459D01*
X-6696Y11541D01*
X-6656Y11637D01*
X-6643Y11740D01*
X-6656Y11843D01*
X-6696Y11939D01*
X-6759Y12021D01*
X-6841Y12084D01*
X-6937Y12124D01*
X-7040Y12137D01*
D02*
G37*
G36*
X-4040D02*
X-4143Y12124D01*
X-4239Y12084D01*
X-4321Y12021D01*
X-4384Y11939D01*
X-4424Y11843D01*
X-4437Y11740D01*
X-4424Y11637D01*
X-4384Y11541D01*
X-4321Y11459D01*
X-4239Y11396D01*
X-4143Y11356D01*
X-4040Y11343D01*
X-3937Y11356D01*
X-3841Y11396D01*
X-3759Y11459D01*
X-3696Y11541D01*
X-3656Y11637D01*
X-3643Y11740D01*
X-3656Y11843D01*
X-3696Y11939D01*
X-3759Y12021D01*
X-3841Y12084D01*
X-3937Y12124D01*
X-4040Y12137D01*
D02*
G37*
G36*
X-2830Y12147D02*
X-2933Y12134D01*
X-3029Y12094D01*
X-3111Y12031D01*
X-3174Y11949D01*
X-3214Y11853D01*
X-3227Y11750D01*
X-3214Y11647D01*
X-3174Y11551D01*
X-3111Y11469D01*
X-3029Y11406D01*
X-2933Y11366D01*
X-2830Y11353D01*
X-2727Y11366D01*
X-2631Y11406D01*
X-2549Y11469D01*
X-2486Y11551D01*
X-2446Y11647D01*
X-2433Y11750D01*
X-2446Y11853D01*
X-2486Y11949D01*
X-2549Y12031D01*
X-2631Y12094D01*
X-2727Y12134D01*
X-2830Y12147D01*
D02*
G37*
G36*
X-1410D02*
X-1513Y12134D01*
X-1609Y12094D01*
X-1691Y12031D01*
X-1754Y11949D01*
X-1794Y11853D01*
X-1796Y11836D01*
X-1807Y11819D01*
X-1821Y11750D01*
X-1807Y11681D01*
X-1796Y11664D01*
X-1794Y11647D01*
X-1754Y11551D01*
X-1691Y11469D01*
X-1609Y11406D01*
X-1513Y11366D01*
X-1410Y11353D01*
X-1307Y11366D01*
X-1211Y11406D01*
X-1129Y11469D01*
X-1066Y11551D01*
X-1026Y11647D01*
X-1013Y11750D01*
X-1026Y11853D01*
X-1066Y11949D01*
X-1129Y12031D01*
X-1211Y12094D01*
X-1307Y12134D01*
X-1410Y12147D01*
D02*
G37*
G36*
X-8220Y11127D02*
X-8323Y11114D01*
X-8419Y11074D01*
X-8501Y11011D01*
X-8564Y10929D01*
X-8604Y10833D01*
X-8617Y10730D01*
X-8604Y10627D01*
X-8564Y10531D01*
X-8501Y10449D01*
X-8419Y10386D01*
X-8323Y10346D01*
X-8220Y10333D01*
X-8117Y10346D01*
X-8021Y10386D01*
X-7939Y10449D01*
X-7876Y10531D01*
X-7836Y10627D01*
X-7823Y10730D01*
X-7836Y10833D01*
X-7876Y10929D01*
X-7939Y11011D01*
X-8021Y11074D01*
X-8117Y11114D01*
X-8220Y11127D01*
D02*
G37*
G36*
X-7040Y11137D02*
X-7143Y11124D01*
X-7239Y11084D01*
X-7321Y11021D01*
X-7384Y10939D01*
X-7424Y10843D01*
X-7437Y10740D01*
X-7424Y10637D01*
X-7384Y10541D01*
X-7321Y10459D01*
X-7239Y10396D01*
X-7143Y10356D01*
X-7040Y10343D01*
X-6937Y10356D01*
X-6841Y10396D01*
X-6759Y10459D01*
X-6696Y10541D01*
X-6656Y10637D01*
X-6643Y10740D01*
X-6656Y10843D01*
X-6696Y10939D01*
X-6759Y11021D01*
X-6841Y11084D01*
X-6937Y11124D01*
X-7040Y11137D01*
D02*
G37*
G36*
X-4040D02*
X-4143Y11124D01*
X-4239Y11084D01*
X-4321Y11021D01*
X-4384Y10939D01*
X-4424Y10843D01*
X-4437Y10740D01*
X-4424Y10637D01*
X-4384Y10541D01*
X-4321Y10459D01*
X-4239Y10396D01*
X-4143Y10356D01*
X-4040Y10343D01*
X-3937Y10356D01*
X-3841Y10396D01*
X-3759Y10459D01*
X-3696Y10541D01*
X-3656Y10637D01*
X-3643Y10740D01*
X-3656Y10843D01*
X-3696Y10939D01*
X-3759Y11021D01*
X-3841Y11084D01*
X-3937Y11124D01*
X-4040Y11137D01*
D02*
G37*
G36*
X-2830Y11147D02*
X-2933Y11134D01*
X-3029Y11094D01*
X-3111Y11031D01*
X-3174Y10949D01*
X-3214Y10853D01*
X-3227Y10750D01*
X-3214Y10647D01*
X-3174Y10551D01*
X-3111Y10469D01*
X-3029Y10406D01*
X-2933Y10366D01*
X-2830Y10353D01*
X-2727Y10366D01*
X-2631Y10406D01*
X-2549Y10469D01*
X-2486Y10551D01*
X-2446Y10647D01*
X-2433Y10750D01*
X-2446Y10853D01*
X-2486Y10949D01*
X-2549Y11031D01*
X-2631Y11094D01*
X-2727Y11134D01*
X-2830Y11147D01*
D02*
G37*
G36*
X-1410D02*
X-1513Y11134D01*
X-1609Y11094D01*
X-1691Y11031D01*
X-1754Y10949D01*
X-1794Y10853D01*
X-1807Y10750D01*
X-1794Y10647D01*
X-1754Y10551D01*
X-1691Y10469D01*
X-1609Y10406D01*
X-1513Y10366D01*
X-1410Y10353D01*
X-1307Y10366D01*
X-1211Y10406D01*
X-1129Y10469D01*
X-1066Y10551D01*
X-1026Y10647D01*
X-1013Y10750D01*
X-1026Y10853D01*
X-1066Y10949D01*
X-1129Y11031D01*
X-1211Y11094D01*
X-1307Y11134D01*
X-1410Y11147D01*
D02*
G37*
G36*
X-9840Y11237D02*
X-9943Y11224D01*
X-10039Y11184D01*
X-10121Y11121D01*
X-10184Y11039D01*
X-10224Y10943D01*
X-10237Y10840D01*
X-10224Y10737D01*
X-10184Y10641D01*
X-10121Y10559D01*
X-10039Y10496D01*
X-9943Y10456D01*
X-9840Y10443D01*
X-9737Y10456D01*
X-9641Y10496D01*
X-9559Y10559D01*
X-9496Y10641D01*
X-9456Y10737D01*
X-9443Y10840D01*
X-9456Y10943D01*
X-9496Y11039D01*
X-9559Y11121D01*
X-9641Y11184D01*
X-9737Y11224D01*
X-9840Y11237D01*
D02*
G37*
G36*
X-5512Y16048D02*
X-5685Y16030D01*
X-5852Y15980D01*
X-6006Y15898D01*
X-6141Y15787D01*
X-6252Y15652D01*
X-6334Y15498D01*
X-6385Y15331D01*
X-6402Y15157D01*
X-6385Y14984D01*
X-6334Y14817D01*
X-6252Y14663D01*
X-6141Y14528D01*
X-6006Y14417D01*
X-5852Y14335D01*
X-5685Y14284D01*
X-5512Y14267D01*
X-5338Y14284D01*
X-5171Y14335D01*
X-5017Y14417D01*
X-4882Y14528D01*
X-4772Y14663D01*
X-4689Y14817D01*
X-4639Y14984D01*
X-4622Y15157D01*
X-4639Y15331D01*
X-4689Y15498D01*
X-4772Y15652D01*
X-4882Y15787D01*
X-5017Y15898D01*
X-5171Y15980D01*
X-5338Y16030D01*
X-5512Y16048D01*
D02*
G37*
G36*
X-7640Y14597D02*
X-7743Y14584D01*
X-7839Y14544D01*
X-7921Y14481D01*
X-7984Y14399D01*
X-8024Y14303D01*
X-8037Y14200D01*
X-8024Y14097D01*
X-7984Y14001D01*
X-7921Y13919D01*
X-7839Y13856D01*
X-7743Y13816D01*
X-7640Y13803D01*
X-7537Y13816D01*
X-7441Y13856D01*
X-7359Y13919D01*
X-7296Y14001D01*
X-7256Y14097D01*
X-7243Y14200D01*
X-7256Y14303D01*
X-7296Y14399D01*
X-7359Y14481D01*
X-7441Y14544D01*
X-7537Y14584D01*
X-7640Y14597D01*
D02*
G37*
G36*
X-8246Y14594D02*
X-9034D01*
Y13806D01*
X-8246D01*
Y14594D01*
D02*
G37*
G36*
X-7661Y15807D02*
X-7764Y15794D01*
X-7860Y15754D01*
X-7942Y15691D01*
X-8005Y15609D01*
X-8045Y15513D01*
X-8058Y15410D01*
X-8045Y15307D01*
X-8005Y15211D01*
X-7942Y15129D01*
X-7860Y15066D01*
X-7764Y15026D01*
X-7661Y15013D01*
X-7558Y15026D01*
X-7463Y15066D01*
X-7380Y15129D01*
X-7317Y15211D01*
X-7278Y15307D01*
X-7264Y15410D01*
X-7278Y15513D01*
X-7317Y15609D01*
X-7380Y15691D01*
X-7463Y15754D01*
X-7558Y15794D01*
X-7661Y15807D01*
D02*
G37*
G36*
X-8268Y15804D02*
X-9055D01*
Y15016D01*
X-8268D01*
Y15804D01*
D02*
G37*
G36*
X-2830Y13147D02*
X-2933Y13134D01*
X-3029Y13094D01*
X-3111Y13031D01*
X-3174Y12949D01*
X-3214Y12853D01*
X-3227Y12750D01*
X-3214Y12647D01*
X-3174Y12551D01*
X-3111Y12469D01*
X-3029Y12406D01*
X-2933Y12366D01*
X-2830Y12353D01*
X-2727Y12366D01*
X-2631Y12406D01*
X-2549Y12469D01*
X-2486Y12551D01*
X-2446Y12647D01*
X-2433Y12750D01*
X-2446Y12853D01*
X-2486Y12949D01*
X-2549Y13031D01*
X-2631Y13094D01*
X-2727Y13134D01*
X-2830Y13147D01*
D02*
G37*
G36*
X-1016Y13144D02*
X-1804D01*
Y12356D01*
X-1016D01*
Y13144D01*
D02*
G37*
G36*
X-8220Y13127D02*
X-8323Y13114D01*
X-8419Y13074D01*
X-8501Y13011D01*
X-8564Y12929D01*
X-8604Y12833D01*
X-8617Y12730D01*
X-8604Y12627D01*
X-8564Y12531D01*
X-8501Y12449D01*
X-8419Y12386D01*
X-8323Y12346D01*
X-8220Y12333D01*
X-8117Y12346D01*
X-8021Y12386D01*
X-7939Y12449D01*
X-7876Y12531D01*
X-7836Y12627D01*
X-7823Y12730D01*
X-7836Y12833D01*
X-7876Y12929D01*
X-7939Y13011D01*
X-8021Y13074D01*
X-8117Y13114D01*
X-8220Y13127D01*
D02*
G37*
G36*
X-7040Y13137D02*
X-7143Y13124D01*
X-7239Y13084D01*
X-7321Y13021D01*
X-7384Y12939D01*
X-7424Y12843D01*
X-7437Y12740D01*
X-7424Y12637D01*
X-7384Y12541D01*
X-7321Y12459D01*
X-7239Y12396D01*
X-7143Y12356D01*
X-7040Y12343D01*
X-6937Y12356D01*
X-6841Y12396D01*
X-6759Y12459D01*
X-6696Y12541D01*
X-6656Y12637D01*
X-6643Y12740D01*
X-6656Y12843D01*
X-6696Y12939D01*
X-6759Y13021D01*
X-6841Y13084D01*
X-6937Y13124D01*
X-7040Y13137D01*
D02*
G37*
G36*
X-4040D02*
X-4143Y13124D01*
X-4239Y13084D01*
X-4321Y13021D01*
X-4384Y12939D01*
X-4424Y12843D01*
X-4437Y12740D01*
X-4424Y12637D01*
X-4384Y12541D01*
X-4321Y12459D01*
X-4239Y12396D01*
X-4143Y12356D01*
X-4040Y12343D01*
X-3937Y12356D01*
X-3841Y12396D01*
X-3759Y12459D01*
X-3696Y12541D01*
X-3656Y12637D01*
X-3643Y12740D01*
X-3656Y12843D01*
X-3696Y12939D01*
X-3759Y13021D01*
X-3841Y13084D01*
X-3937Y13124D01*
X-4040Y13137D01*
D02*
G37*
G36*
X-9840Y10237D02*
X-9943Y10224D01*
X-10039Y10184D01*
X-10121Y10121D01*
X-10184Y10039D01*
X-10224Y9943D01*
X-10237Y9840D01*
X-10224Y9737D01*
X-10184Y9641D01*
X-10121Y9559D01*
X-10039Y9496D01*
X-9943Y9456D01*
X-9840Y9443D01*
X-9737Y9456D01*
X-9641Y9496D01*
X-9559Y9559D01*
X-9496Y9641D01*
X-9456Y9737D01*
X-9443Y9840D01*
X-9456Y9943D01*
X-9496Y10039D01*
X-9559Y10121D01*
X-9641Y10184D01*
X-9737Y10224D01*
X-9840Y10237D01*
D02*
G37*
G36*
X-1076Y4154D02*
X-1864D01*
Y3366D01*
X-1076D01*
Y4154D01*
D02*
G37*
G36*
X-8220Y5127D02*
X-8323Y5114D01*
X-8419Y5074D01*
X-8501Y5011D01*
X-8564Y4929D01*
X-8604Y4833D01*
X-8617Y4730D01*
X-8604Y4627D01*
X-8564Y4531D01*
X-8501Y4449D01*
X-8419Y4386D01*
X-8323Y4346D01*
X-8220Y4333D01*
X-8117Y4346D01*
X-8021Y4386D01*
X-7939Y4449D01*
X-7876Y4531D01*
X-7836Y4627D01*
X-7823Y4730D01*
X-7836Y4833D01*
X-7876Y4929D01*
X-7939Y5011D01*
X-8021Y5074D01*
X-8117Y5114D01*
X-8220Y5127D01*
D02*
G37*
G36*
X-7040Y5137D02*
X-7143Y5124D01*
X-7239Y5084D01*
X-7321Y5021D01*
X-7384Y4939D01*
X-7424Y4843D01*
X-7437Y4740D01*
X-7424Y4637D01*
X-7384Y4541D01*
X-7321Y4459D01*
X-7239Y4396D01*
X-7143Y4356D01*
X-7040Y4343D01*
X-6937Y4356D01*
X-6841Y4396D01*
X-6759Y4459D01*
X-6696Y4541D01*
X-6656Y4637D01*
X-6643Y4740D01*
X-6656Y4843D01*
X-6696Y4939D01*
X-6759Y5021D01*
X-6841Y5084D01*
X-6937Y5124D01*
X-7040Y5137D01*
D02*
G37*
G36*
Y4137D02*
X-7143Y4124D01*
X-7239Y4084D01*
X-7321Y4021D01*
X-7384Y3939D01*
X-7424Y3843D01*
X-7437Y3740D01*
X-7424Y3637D01*
X-7384Y3541D01*
X-7321Y3459D01*
X-7239Y3396D01*
X-7143Y3356D01*
X-7040Y3343D01*
X-6937Y3356D01*
X-6841Y3396D01*
X-6759Y3459D01*
X-6696Y3541D01*
X-6656Y3637D01*
X-6643Y3740D01*
X-6656Y3843D01*
X-6696Y3939D01*
X-6759Y4021D01*
X-6841Y4084D01*
X-6937Y4124D01*
X-7040Y4137D01*
D02*
G37*
G36*
X-3646Y4134D02*
X-4434D01*
Y3829D01*
X-4447Y3809D01*
X-4461Y3740D01*
X-4447Y3671D01*
X-4434Y3651D01*
Y3346D01*
X-3646D01*
Y4134D01*
D02*
G37*
G36*
X-2436Y4144D02*
X-3224D01*
Y3356D01*
X-2436D01*
Y4144D01*
D02*
G37*
G36*
X-4040Y5137D02*
X-4143Y5124D01*
X-4239Y5084D01*
X-4321Y5021D01*
X-4384Y4939D01*
X-4424Y4843D01*
X-4437Y4740D01*
X-4424Y4637D01*
X-4384Y4541D01*
X-4321Y4459D01*
X-4239Y4396D01*
X-4143Y4356D01*
X-4040Y4343D01*
X-3937Y4356D01*
X-3841Y4396D01*
X-3759Y4459D01*
X-3696Y4541D01*
X-3656Y4637D01*
X-3643Y4740D01*
X-3656Y4843D01*
X-3696Y4939D01*
X-3759Y5021D01*
X-3841Y5084D01*
X-3937Y5124D01*
X-4040Y5137D01*
D02*
G37*
G36*
X-8220Y6127D02*
X-8323Y6114D01*
X-8419Y6074D01*
X-8501Y6011D01*
X-8564Y5929D01*
X-8604Y5833D01*
X-8617Y5730D01*
X-8604Y5627D01*
X-8564Y5531D01*
X-8501Y5449D01*
X-8419Y5386D01*
X-8323Y5346D01*
X-8220Y5333D01*
X-8117Y5346D01*
X-8021Y5386D01*
X-7939Y5449D01*
X-7876Y5531D01*
X-7836Y5627D01*
X-7823Y5730D01*
X-7836Y5833D01*
X-7876Y5929D01*
X-7939Y6011D01*
X-8021Y6074D01*
X-8117Y6114D01*
X-8220Y6127D01*
D02*
G37*
G36*
X-7040Y6137D02*
X-7143Y6124D01*
X-7239Y6084D01*
X-7321Y6021D01*
X-7384Y5939D01*
X-7424Y5843D01*
X-7437Y5740D01*
X-7424Y5637D01*
X-7384Y5541D01*
X-7321Y5459D01*
X-7239Y5396D01*
X-7143Y5356D01*
X-7040Y5343D01*
X-6937Y5356D01*
X-6841Y5396D01*
X-6759Y5459D01*
X-6696Y5541D01*
X-6656Y5637D01*
X-6643Y5740D01*
X-6656Y5843D01*
X-6696Y5939D01*
X-6759Y6021D01*
X-6841Y6084D01*
X-6937Y6124D01*
X-7040Y6137D01*
D02*
G37*
G36*
X-4040D02*
X-4143Y6124D01*
X-4239Y6084D01*
X-4321Y6021D01*
X-4384Y5939D01*
X-4424Y5843D01*
X-4437Y5740D01*
X-4424Y5637D01*
X-4384Y5541D01*
X-4321Y5459D01*
X-4239Y5396D01*
X-4143Y5356D01*
X-4040Y5343D01*
X-3937Y5356D01*
X-3841Y5396D01*
X-3759Y5459D01*
X-3696Y5541D01*
X-3656Y5637D01*
X-3643Y5740D01*
X-3656Y5843D01*
X-3696Y5939D01*
X-3759Y6021D01*
X-3841Y6084D01*
X-3937Y6124D01*
X-4040Y6137D01*
D02*
G37*
G36*
X-2830Y5147D02*
X-2933Y5134D01*
X-3029Y5094D01*
X-3111Y5031D01*
X-3174Y4949D01*
X-3214Y4853D01*
X-3227Y4750D01*
X-3214Y4647D01*
X-3174Y4551D01*
X-3111Y4469D01*
X-3029Y4406D01*
X-2933Y4366D01*
X-2830Y4353D01*
X-2727Y4366D01*
X-2631Y4406D01*
X-2549Y4469D01*
X-2486Y4551D01*
X-2446Y4647D01*
X-2433Y4750D01*
X-2446Y4853D01*
X-2486Y4949D01*
X-2549Y5031D01*
X-2631Y5094D01*
X-2727Y5134D01*
X-2830Y5147D01*
D02*
G37*
G36*
X-1016Y5374D02*
X-1804D01*
Y4586D01*
X-1016D01*
Y5374D01*
D02*
G37*
G36*
X-7826Y4124D02*
X-8614D01*
Y3336D01*
X-7826D01*
Y4124D01*
D02*
G37*
G36*
X-3297Y3053D02*
X-3926D01*
Y2898D01*
X-6480D01*
X-6557Y2888D01*
X-6629Y2858D01*
X-6691Y2811D01*
X-8123Y1378D01*
X-8370D01*
Y1454D01*
X-8950D01*
X-8960Y1454D01*
X-9000D01*
X-9010Y1454D01*
X-9460D01*
X-9470Y1504D01*
X-9451Y1512D01*
X-9389Y1559D01*
X-8727Y2222D01*
X-7954D01*
X-7946Y2216D01*
X-7861Y2181D01*
X-7770Y2169D01*
X-7679Y2181D01*
X-7594Y2216D01*
X-7521Y2271D01*
X-7466Y2344D01*
X-7431Y2429D01*
X-7419Y2520D01*
X-7431Y2611D01*
X-7466Y2696D01*
X-7521Y2768D01*
X-7594Y2824D01*
X-7679Y2859D01*
X-7770Y2871D01*
X-7861Y2859D01*
X-7946Y2824D01*
X-7954Y2818D01*
X-8850D01*
X-8927Y2808D01*
X-8999Y2778D01*
X-9061Y2731D01*
X-9723Y2068D01*
X-10186D01*
X-10194Y2074D01*
X-10279Y2109D01*
X-10370Y2121D01*
X-10461Y2109D01*
X-10546Y2074D01*
X-10618Y2018D01*
X-10674Y1946D01*
X-10709Y1861D01*
X-10721Y1770D01*
X-10709Y1679D01*
X-10674Y1594D01*
X-10618Y1522D01*
X-10546Y1466D01*
X-10461Y1431D01*
X-10450Y1429D01*
X-9891Y869D01*
X-9891Y869D01*
X-9829Y822D01*
X-9757Y792D01*
X-9680Y782D01*
X-9590D01*
Y746D01*
X-9010D01*
X-9000Y746D01*
X-8960D01*
X-8950Y746D01*
X-8370D01*
Y782D01*
X-8000D01*
X-7923Y792D01*
X-7851Y822D01*
X-7789Y869D01*
X-6357Y2302D01*
X-5676D01*
X-5673Y2252D01*
X-5685Y2251D01*
X-5852Y2200D01*
X-6006Y2118D01*
X-6141Y2007D01*
X-6252Y1872D01*
X-6334Y1719D01*
X-6385Y1552D01*
X-6402Y1378D01*
X-6385Y1204D01*
X-6334Y1037D01*
X-6252Y883D01*
X-6141Y749D01*
X-6006Y638D01*
X-5852Y556D01*
X-5685Y505D01*
X-5512Y488D01*
X-5338Y505D01*
X-5171Y556D01*
X-5017Y638D01*
X-4882Y749D01*
X-4772Y883D01*
X-4689Y1037D01*
X-4639Y1204D01*
X-4622Y1378D01*
X-4639Y1552D01*
X-4689Y1719D01*
X-4772Y1872D01*
X-4882Y2007D01*
X-5017Y2118D01*
X-5171Y2200D01*
X-5338Y2251D01*
X-5351Y2252D01*
X-5348Y2302D01*
X-3926D01*
Y2147D01*
X-3297D01*
Y3053D01*
D02*
G37*
G36*
X-1470Y3157D02*
X-1573Y3144D01*
X-1669Y3104D01*
X-1751Y3041D01*
X-1814Y2959D01*
X-1835Y2908D01*
X-2234D01*
Y3053D01*
X-2863D01*
Y2147D01*
X-2234D01*
Y2312D01*
X-1620D01*
X-1543Y2322D01*
X-1471Y2352D01*
X-1454Y2365D01*
X-1367Y2376D01*
X-1271Y2416D01*
X-1189Y2479D01*
X-1126Y2561D01*
X-1086Y2657D01*
X-1073Y2760D01*
X-1086Y2863D01*
X-1126Y2959D01*
X-1189Y3041D01*
X-1271Y3104D01*
X-1367Y3144D01*
X-1470Y3157D01*
D02*
G37*
G36*
X-7040Y9137D02*
X-7143Y9124D01*
X-7239Y9084D01*
X-7321Y9021D01*
X-7384Y8939D01*
X-7424Y8843D01*
X-7437Y8740D01*
X-7424Y8637D01*
X-7384Y8541D01*
X-7321Y8459D01*
X-7239Y8396D01*
X-7143Y8356D01*
X-7040Y8343D01*
X-6937Y8356D01*
X-6841Y8396D01*
X-6759Y8459D01*
X-6696Y8541D01*
X-6656Y8637D01*
X-6643Y8740D01*
X-6656Y8843D01*
X-6696Y8939D01*
X-6759Y9021D01*
X-6841Y9084D01*
X-6937Y9124D01*
X-7040Y9137D01*
D02*
G37*
G36*
X-4040D02*
X-4143Y9124D01*
X-4239Y9084D01*
X-4321Y9021D01*
X-4384Y8939D01*
X-4424Y8843D01*
X-4437Y8740D01*
X-4424Y8637D01*
X-4384Y8541D01*
X-4321Y8459D01*
X-4239Y8396D01*
X-4143Y8356D01*
X-4040Y8343D01*
X-3937Y8356D01*
X-3841Y8396D01*
X-3759Y8459D01*
X-3696Y8541D01*
X-3656Y8637D01*
X-3643Y8740D01*
X-3656Y8843D01*
X-3696Y8939D01*
X-3759Y9021D01*
X-3841Y9084D01*
X-3937Y9124D01*
X-4040Y9137D01*
D02*
G37*
G36*
X-2830Y9147D02*
X-2933Y9134D01*
X-3029Y9094D01*
X-3111Y9031D01*
X-3174Y8949D01*
X-3214Y8853D01*
X-3227Y8750D01*
X-3214Y8647D01*
X-3174Y8551D01*
X-3111Y8469D01*
X-3029Y8406D01*
X-2933Y8366D01*
X-2830Y8353D01*
X-2727Y8366D01*
X-2631Y8406D01*
X-2549Y8469D01*
X-2486Y8551D01*
X-2446Y8647D01*
X-2433Y8750D01*
X-2446Y8853D01*
X-2486Y8949D01*
X-2549Y9031D01*
X-2631Y9094D01*
X-2727Y9134D01*
X-2830Y9147D01*
D02*
G37*
G36*
X-8220Y9127D02*
X-8323Y9114D01*
X-8419Y9074D01*
X-8501Y9011D01*
X-8564Y8929D01*
X-8604Y8833D01*
X-8617Y8730D01*
X-8604Y8627D01*
X-8564Y8531D01*
X-8501Y8449D01*
X-8419Y8386D01*
X-8323Y8346D01*
X-8220Y8333D01*
X-8117Y8346D01*
X-8021Y8386D01*
X-7939Y8449D01*
X-7876Y8531D01*
X-7836Y8627D01*
X-7823Y8730D01*
X-7836Y8833D01*
X-7876Y8929D01*
X-7939Y9011D01*
X-8021Y9074D01*
X-8117Y9114D01*
X-8220Y9127D01*
D02*
G37*
G36*
X-9840Y9237D02*
X-9943Y9224D01*
X-10039Y9184D01*
X-10121Y9121D01*
X-10184Y9039D01*
X-10224Y8943D01*
X-10237Y8840D01*
X-10224Y8737D01*
X-10184Y8641D01*
X-10121Y8559D01*
X-10039Y8496D01*
X-9943Y8456D01*
X-9840Y8443D01*
X-9737Y8456D01*
X-9641Y8496D01*
X-9559Y8559D01*
X-9496Y8641D01*
X-9456Y8737D01*
X-9443Y8840D01*
X-9456Y8943D01*
X-9496Y9039D01*
X-9559Y9121D01*
X-9641Y9184D01*
X-9737Y9224D01*
X-9840Y9237D01*
D02*
G37*
G36*
X-7040Y10137D02*
X-7143Y10124D01*
X-7239Y10084D01*
X-7321Y10021D01*
X-7384Y9939D01*
X-7424Y9843D01*
X-7437Y9740D01*
X-7424Y9637D01*
X-7384Y9541D01*
X-7321Y9459D01*
X-7239Y9396D01*
X-7143Y9356D01*
X-7040Y9343D01*
X-6937Y9356D01*
X-6841Y9396D01*
X-6759Y9459D01*
X-6696Y9541D01*
X-6656Y9637D01*
X-6643Y9740D01*
X-6656Y9843D01*
X-6696Y9939D01*
X-6759Y10021D01*
X-6841Y10084D01*
X-6937Y10124D01*
X-7040Y10137D01*
D02*
G37*
G36*
X-4040D02*
X-4143Y10124D01*
X-4239Y10084D01*
X-4321Y10021D01*
X-4384Y9939D01*
X-4424Y9843D01*
X-4437Y9740D01*
X-4424Y9637D01*
X-4384Y9541D01*
X-4321Y9459D01*
X-4239Y9396D01*
X-4143Y9356D01*
X-4040Y9343D01*
X-3937Y9356D01*
X-3841Y9396D01*
X-3759Y9459D01*
X-3696Y9541D01*
X-3656Y9637D01*
X-3643Y9740D01*
X-3656Y9843D01*
X-3696Y9939D01*
X-3759Y10021D01*
X-3841Y10084D01*
X-3937Y10124D01*
X-4040Y10137D01*
D02*
G37*
G36*
X-2830Y10147D02*
X-2933Y10134D01*
X-3029Y10094D01*
X-3111Y10031D01*
X-3174Y9949D01*
X-3214Y9853D01*
X-3227Y9750D01*
X-3214Y9647D01*
X-3174Y9551D01*
X-3111Y9469D01*
X-3029Y9406D01*
X-2933Y9366D01*
X-2830Y9353D01*
X-2727Y9366D01*
X-2631Y9406D01*
X-2549Y9469D01*
X-2486Y9551D01*
X-2446Y9647D01*
X-2433Y9750D01*
X-2446Y9853D01*
X-2486Y9949D01*
X-2549Y10031D01*
X-2631Y10094D01*
X-2727Y10134D01*
X-2830Y10147D01*
D02*
G37*
G36*
X-8220Y10127D02*
X-8323Y10114D01*
X-8419Y10074D01*
X-8501Y10011D01*
X-8564Y9929D01*
X-8604Y9833D01*
X-8617Y9730D01*
X-8604Y9627D01*
X-8564Y9531D01*
X-8501Y9449D01*
X-8419Y9386D01*
X-8323Y9346D01*
X-8220Y9333D01*
X-8117Y9346D01*
X-8021Y9386D01*
X-7939Y9449D01*
X-7876Y9531D01*
X-7836Y9627D01*
X-7823Y9730D01*
X-7836Y9833D01*
X-7876Y9929D01*
X-7939Y10011D01*
X-8021Y10074D01*
X-8117Y10114D01*
X-8220Y10127D01*
D02*
G37*
G36*
X-7040Y7137D02*
X-7143Y7124D01*
X-7239Y7084D01*
X-7321Y7021D01*
X-7384Y6939D01*
X-7424Y6843D01*
X-7437Y6740D01*
X-7424Y6637D01*
X-7384Y6541D01*
X-7321Y6459D01*
X-7239Y6396D01*
X-7143Y6356D01*
X-7040Y6343D01*
X-6937Y6356D01*
X-6841Y6396D01*
X-6759Y6459D01*
X-6696Y6541D01*
X-6656Y6637D01*
X-6643Y6740D01*
X-6656Y6843D01*
X-6696Y6939D01*
X-6759Y7021D01*
X-6841Y7084D01*
X-6937Y7124D01*
X-7040Y7137D01*
D02*
G37*
G36*
X-4040D02*
X-4143Y7124D01*
X-4239Y7084D01*
X-4321Y7021D01*
X-4384Y6939D01*
X-4424Y6843D01*
X-4437Y6740D01*
X-4424Y6637D01*
X-4384Y6541D01*
X-4321Y6459D01*
X-4239Y6396D01*
X-4143Y6356D01*
X-4040Y6343D01*
X-3937Y6356D01*
X-3841Y6396D01*
X-3759Y6459D01*
X-3696Y6541D01*
X-3656Y6637D01*
X-3643Y6740D01*
X-3656Y6843D01*
X-3696Y6939D01*
X-3759Y7021D01*
X-3841Y7084D01*
X-3937Y7124D01*
X-4040Y7137D01*
D02*
G37*
G36*
X-2830Y7147D02*
X-2933Y7134D01*
X-3029Y7094D01*
X-3111Y7031D01*
X-3174Y6949D01*
X-3214Y6853D01*
X-3227Y6750D01*
X-3214Y6647D01*
X-3174Y6551D01*
X-3111Y6469D01*
X-3029Y6406D01*
X-2933Y6366D01*
X-2830Y6353D01*
X-2727Y6366D01*
X-2631Y6406D01*
X-2549Y6469D01*
X-2486Y6551D01*
X-2446Y6647D01*
X-2433Y6750D01*
X-2446Y6853D01*
X-2486Y6949D01*
X-2549Y7031D01*
X-2631Y7094D01*
X-2727Y7134D01*
X-2830Y7147D01*
D02*
G37*
G36*
Y6147D02*
X-2933Y6134D01*
X-3029Y6094D01*
X-3111Y6031D01*
X-3174Y5949D01*
X-3214Y5853D01*
X-3227Y5750D01*
X-3214Y5647D01*
X-3174Y5551D01*
X-3111Y5469D01*
X-3029Y5406D01*
X-2933Y5366D01*
X-2830Y5353D01*
X-2727Y5366D01*
X-2631Y5406D01*
X-2549Y5469D01*
X-2486Y5551D01*
X-2446Y5647D01*
X-2433Y5750D01*
X-2446Y5853D01*
X-2486Y5949D01*
X-2549Y6031D01*
X-2631Y6094D01*
X-2727Y6134D01*
X-2830Y6147D01*
D02*
G37*
G36*
X-1410Y6377D02*
X-1513Y6364D01*
X-1609Y6324D01*
X-1691Y6261D01*
X-1754Y6179D01*
X-1794Y6083D01*
X-1807Y5980D01*
X-1794Y5877D01*
X-1754Y5781D01*
X-1691Y5699D01*
X-1609Y5636D01*
X-1513Y5596D01*
X-1410Y5583D01*
X-1307Y5596D01*
X-1211Y5636D01*
X-1129Y5699D01*
X-1066Y5781D01*
X-1026Y5877D01*
X-1013Y5980D01*
X-1026Y6083D01*
X-1066Y6179D01*
X-1129Y6261D01*
X-1211Y6324D01*
X-1307Y6364D01*
X-1410Y6377D01*
D02*
G37*
G36*
X-8220Y7127D02*
X-8323Y7114D01*
X-8419Y7074D01*
X-8501Y7011D01*
X-8564Y6929D01*
X-8604Y6833D01*
X-8617Y6730D01*
X-8604Y6627D01*
X-8564Y6531D01*
X-8501Y6449D01*
X-8419Y6386D01*
X-8323Y6346D01*
X-8220Y6333D01*
X-8117Y6346D01*
X-8021Y6386D01*
X-7939Y6449D01*
X-7876Y6531D01*
X-7836Y6627D01*
X-7823Y6730D01*
X-7836Y6833D01*
X-7876Y6929D01*
X-7939Y7011D01*
X-8021Y7074D01*
X-8117Y7114D01*
X-8220Y7127D01*
D02*
G37*
G36*
X-1410Y7377D02*
X-1513Y7364D01*
X-1609Y7324D01*
X-1691Y7261D01*
X-1754Y7179D01*
X-1794Y7083D01*
X-1807Y6980D01*
X-1794Y6877D01*
X-1754Y6781D01*
X-1691Y6699D01*
X-1609Y6636D01*
X-1513Y6596D01*
X-1410Y6583D01*
X-1307Y6596D01*
X-1211Y6636D01*
X-1129Y6699D01*
X-1066Y6781D01*
X-1026Y6877D01*
X-1013Y6980D01*
X-1026Y7083D01*
X-1066Y7179D01*
X-1129Y7261D01*
X-1211Y7324D01*
X-1307Y7364D01*
X-1410Y7377D01*
D02*
G37*
G36*
X-2830Y8147D02*
X-2933Y8134D01*
X-3029Y8094D01*
X-3111Y8031D01*
X-3174Y7949D01*
X-3214Y7853D01*
X-3227Y7750D01*
X-3214Y7647D01*
X-3174Y7551D01*
X-3111Y7469D01*
X-3029Y7406D01*
X-2933Y7366D01*
X-2830Y7353D01*
X-2727Y7366D01*
X-2631Y7406D01*
X-2549Y7469D01*
X-2486Y7551D01*
X-2446Y7647D01*
X-2433Y7750D01*
X-2446Y7853D01*
X-2486Y7949D01*
X-2549Y8031D01*
X-2631Y8094D01*
X-2727Y8134D01*
X-2830Y8147D01*
D02*
G37*
G36*
X-9446Y8234D02*
X-10234D01*
Y7446D01*
X-9446D01*
Y8234D01*
D02*
G37*
G36*
X-1410Y8377D02*
X-1513Y8364D01*
X-1609Y8324D01*
X-1691Y8261D01*
X-1754Y8179D01*
X-1794Y8083D01*
X-1807Y7980D01*
X-1794Y7877D01*
X-1754Y7781D01*
X-1691Y7699D01*
X-1609Y7636D01*
X-1513Y7596D01*
X-1410Y7583D01*
X-1307Y7596D01*
X-1211Y7636D01*
X-1129Y7699D01*
X-1066Y7781D01*
X-1026Y7877D01*
X-1013Y7980D01*
X-1026Y8083D01*
X-1066Y8179D01*
X-1129Y8261D01*
X-1211Y8324D01*
X-1307Y8364D01*
X-1410Y8377D01*
D02*
G37*
G36*
X-8220Y8127D02*
X-8323Y8114D01*
X-8419Y8074D01*
X-8501Y8011D01*
X-8564Y7929D01*
X-8604Y7833D01*
X-8617Y7730D01*
X-8604Y7627D01*
X-8564Y7531D01*
X-8501Y7449D01*
X-8419Y7386D01*
X-8323Y7346D01*
X-8220Y7333D01*
X-8117Y7346D01*
X-8021Y7386D01*
X-7939Y7449D01*
X-7876Y7531D01*
X-7836Y7627D01*
X-7823Y7730D01*
X-7836Y7833D01*
X-7876Y7929D01*
X-7939Y8011D01*
X-8021Y8074D01*
X-8117Y8114D01*
X-8220Y8127D01*
D02*
G37*
G36*
X-7040Y8137D02*
X-7143Y8124D01*
X-7239Y8084D01*
X-7321Y8021D01*
X-7384Y7939D01*
X-7424Y7843D01*
X-7437Y7740D01*
X-7424Y7637D01*
X-7384Y7541D01*
X-7321Y7459D01*
X-7239Y7396D01*
X-7143Y7356D01*
X-7040Y7343D01*
X-6937Y7356D01*
X-6841Y7396D01*
X-6759Y7459D01*
X-6696Y7541D01*
X-6656Y7637D01*
X-6643Y7740D01*
X-6656Y7843D01*
X-6696Y7939D01*
X-6759Y8021D01*
X-6841Y8084D01*
X-6937Y8124D01*
X-7040Y8137D01*
D02*
G37*
G36*
X-4040D02*
X-4143Y8124D01*
X-4239Y8084D01*
X-4321Y8021D01*
X-4384Y7939D01*
X-4424Y7843D01*
X-4437Y7740D01*
X-4424Y7637D01*
X-4384Y7541D01*
X-4321Y7459D01*
X-4239Y7396D01*
X-4143Y7356D01*
X-4040Y7343D01*
X-3937Y7356D01*
X-3841Y7396D01*
X-3759Y7459D01*
X-3696Y7541D01*
X-3656Y7637D01*
X-3643Y7740D01*
X-3656Y7843D01*
X-3696Y7939D01*
X-3759Y8021D01*
X-3841Y8084D01*
X-3937Y8124D01*
X-4040Y8137D01*
D02*
G37*
G36*
X16750Y21457D02*
X16647Y21444D01*
X16551Y21404D01*
X16469Y21341D01*
X16406Y21259D01*
X16366Y21163D01*
X16353Y21060D01*
X16366Y20957D01*
X16406Y20861D01*
X16469Y20779D01*
X16551Y20716D01*
X16647Y20676D01*
X16750Y20663D01*
X16853Y20676D01*
X16949Y20716D01*
X17031Y20779D01*
X17094Y20861D01*
X17134Y20957D01*
X17147Y21060D01*
X17134Y21163D01*
X17094Y21259D01*
X17031Y21341D01*
X16949Y21404D01*
X16853Y21444D01*
X16750Y21457D01*
D02*
G37*
G36*
X7110Y19417D02*
X7007Y19404D01*
X6911Y19364D01*
X6829Y19301D01*
X6766Y19219D01*
X6726Y19123D01*
X6713Y19020D01*
X6726Y18917D01*
X6766Y18821D01*
X6829Y18739D01*
X6911Y18676D01*
X7007Y18636D01*
X7110Y18623D01*
X7213Y18636D01*
X7309Y18676D01*
X7391Y18739D01*
X7454Y18821D01*
X7494Y18917D01*
X7507Y19020D01*
X7494Y19123D01*
X7454Y19219D01*
X7391Y19301D01*
X7309Y19364D01*
X7213Y19404D01*
X7110Y19417D01*
D02*
G37*
G36*
X4110D02*
X4007Y19404D01*
X3911Y19364D01*
X3829Y19301D01*
X3766Y19219D01*
X3726Y19123D01*
X3713Y19020D01*
X3726Y18917D01*
X3766Y18821D01*
X3829Y18739D01*
X3911Y18676D01*
X4007Y18636D01*
X4110Y18623D01*
X4213Y18636D01*
X4309Y18676D01*
X4391Y18739D01*
X4454Y18821D01*
X4494Y18917D01*
X4507Y19020D01*
X4494Y19123D01*
X4454Y19219D01*
X4391Y19301D01*
X4309Y19364D01*
X4213Y19404D01*
X4110Y19417D01*
D02*
G37*
G36*
X5110D02*
X5007Y19404D01*
X4911Y19364D01*
X4829Y19301D01*
X4766Y19219D01*
X4726Y19123D01*
X4713Y19020D01*
X4726Y18917D01*
X4766Y18821D01*
X4829Y18739D01*
X4911Y18676D01*
X5007Y18636D01*
X5110Y18623D01*
X5213Y18636D01*
X5309Y18676D01*
X5391Y18739D01*
X5454Y18821D01*
X5494Y18917D01*
X5507Y19020D01*
X5494Y19123D01*
X5454Y19219D01*
X5391Y19301D01*
X5309Y19364D01*
X5213Y19404D01*
X5110Y19417D01*
D02*
G37*
G36*
X6110D02*
X6007Y19404D01*
X5911Y19364D01*
X5829Y19301D01*
X5766Y19219D01*
X5726Y19123D01*
X5713Y19020D01*
X5726Y18917D01*
X5766Y18821D01*
X5829Y18739D01*
X5911Y18676D01*
X6007Y18636D01*
X6110Y18623D01*
X6213Y18636D01*
X6309Y18676D01*
X6391Y18739D01*
X6454Y18821D01*
X6494Y18917D01*
X6507Y19020D01*
X6494Y19123D01*
X6454Y19219D01*
X6391Y19301D01*
X6309Y19364D01*
X6213Y19404D01*
X6110Y19417D01*
D02*
G37*
G36*
X3110D02*
X3007Y19404D01*
X2911Y19364D01*
X2829Y19301D01*
X2766Y19219D01*
X2726Y19123D01*
X2713Y19020D01*
X2726Y18917D01*
X2766Y18821D01*
X2829Y18739D01*
X2911Y18676D01*
X3007Y18636D01*
X3110Y18623D01*
X3213Y18636D01*
X3309Y18676D01*
X3391Y18739D01*
X3454Y18821D01*
X3494Y18917D01*
X3507Y19020D01*
X3494Y19123D01*
X3454Y19219D01*
X3391Y19301D01*
X3309Y19364D01*
X3213Y19404D01*
X3110Y19417D01*
D02*
G37*
G36*
X7894Y30594D02*
X7106D01*
Y30448D01*
X6134D01*
X6126Y30454D01*
X6041Y30489D01*
X5950Y30501D01*
X5859Y30489D01*
X5774Y30454D01*
X5702Y30398D01*
X5646Y30326D01*
X5611Y30241D01*
X5599Y30150D01*
X5611Y30059D01*
X5646Y29974D01*
X5702Y29901D01*
X5774Y29846D01*
X5859Y29811D01*
X5950Y29799D01*
X6041Y29811D01*
X6126Y29846D01*
X6134Y29852D01*
X7106D01*
Y29806D01*
X7894D01*
Y30594D01*
D02*
G37*
G36*
X9500Y30597D02*
X9397Y30584D01*
X9301Y30544D01*
X9219Y30481D01*
X9156Y30399D01*
X9116Y30303D01*
X9103Y30200D01*
X9116Y30097D01*
X9156Y30001D01*
X9219Y29919D01*
X9301Y29856D01*
X9397Y29816D01*
X9500Y29803D01*
X9603Y29816D01*
X9699Y29856D01*
X9781Y29919D01*
X9844Y30001D01*
X9884Y30097D01*
X9897Y30200D01*
X9884Y30303D01*
X9844Y30399D01*
X9781Y30481D01*
X9699Y30544D01*
X9603Y30584D01*
X9500Y30597D01*
D02*
G37*
G36*
X10500D02*
X10397Y30584D01*
X10301Y30544D01*
X10219Y30481D01*
X10156Y30399D01*
X10116Y30303D01*
X10103Y30200D01*
X10116Y30097D01*
X10156Y30001D01*
X10219Y29919D01*
X10301Y29856D01*
X10397Y29816D01*
X10500Y29803D01*
X10603Y29816D01*
X10699Y29856D01*
X10781Y29919D01*
X10844Y30001D01*
X10884Y30097D01*
X10897Y30200D01*
X10884Y30303D01*
X10844Y30399D01*
X10781Y30481D01*
X10699Y30544D01*
X10603Y30584D01*
X10500Y30597D01*
D02*
G37*
G36*
X9370Y28307D02*
X9267Y28294D01*
X9171Y28254D01*
X9089Y28191D01*
X9026Y28109D01*
X8986Y28013D01*
X8973Y27910D01*
X8986Y27807D01*
X9026Y27711D01*
X9089Y27629D01*
X9171Y27566D01*
X9267Y27526D01*
X9370Y27513D01*
X9473Y27526D01*
X9569Y27566D01*
X9651Y27629D01*
X9714Y27711D01*
X9754Y27807D01*
X9767Y27910D01*
X9754Y28013D01*
X9714Y28109D01*
X9651Y28191D01*
X9569Y28254D01*
X9473Y28294D01*
X9370Y28307D01*
D02*
G37*
G36*
X10370D02*
X10267Y28294D01*
X10171Y28254D01*
X10089Y28191D01*
X10026Y28109D01*
X9986Y28013D01*
X9973Y27910D01*
X9986Y27807D01*
X10026Y27711D01*
X10089Y27629D01*
X10171Y27566D01*
X10267Y27526D01*
X10370Y27513D01*
X10473Y27526D01*
X10569Y27566D01*
X10651Y27629D01*
X10714Y27711D01*
X10754Y27807D01*
X10767Y27910D01*
X10754Y28013D01*
X10714Y28109D01*
X10651Y28191D01*
X10569Y28254D01*
X10473Y28294D01*
X10370Y28307D01*
D02*
G37*
G36*
X11764Y28304D02*
X10976D01*
Y27516D01*
X11764D01*
Y28304D01*
D02*
G37*
G36*
X9500Y31597D02*
X9397Y31584D01*
X9301Y31544D01*
X9219Y31481D01*
X9156Y31399D01*
X9116Y31303D01*
X9103Y31200D01*
X9116Y31097D01*
X9156Y31001D01*
X9219Y30919D01*
X9301Y30856D01*
X9397Y30816D01*
X9500Y30803D01*
X9603Y30816D01*
X9699Y30856D01*
X9781Y30919D01*
X9844Y31001D01*
X9884Y31097D01*
X9897Y31200D01*
X9884Y31303D01*
X9844Y31399D01*
X9781Y31481D01*
X9699Y31544D01*
X9603Y31584D01*
X9500Y31597D01*
D02*
G37*
G36*
X11500D02*
X11397Y31584D01*
X11301Y31544D01*
X11219Y31481D01*
X11156Y31399D01*
X11116Y31303D01*
X11103Y31200D01*
X11116Y31097D01*
X11156Y31001D01*
X11219Y30919D01*
X11301Y30856D01*
X11397Y30816D01*
X11500Y30803D01*
X11603Y30816D01*
X11699Y30856D01*
X11781Y30919D01*
X11844Y31001D01*
X11884Y31097D01*
X11897Y31200D01*
X11884Y31303D01*
X11844Y31399D01*
X11781Y31481D01*
X11699Y31544D01*
X11603Y31584D01*
X11500Y31597D01*
D02*
G37*
G36*
X10500D02*
X10397Y31584D01*
X10301Y31544D01*
X10219Y31481D01*
X10156Y31399D01*
X10116Y31303D01*
X10103Y31200D01*
X10116Y31097D01*
X10156Y31001D01*
X10219Y30919D01*
X10301Y30856D01*
X10397Y30816D01*
X10500Y30803D01*
X10603Y30816D01*
X10699Y30856D01*
X10781Y30919D01*
X10844Y31001D01*
X10884Y31097D01*
X10897Y31200D01*
X10884Y31303D01*
X10844Y31399D01*
X10781Y31481D01*
X10699Y31544D01*
X10603Y31584D01*
X10500Y31597D01*
D02*
G37*
%LPD*%
D10*
X-9415Y17790D02*
D03*
X-8785D02*
D03*
X-9295Y1100D02*
D03*
X-8665D02*
D03*
D11*
X-3731Y19290D02*
D03*
X-2668D02*
D03*
X-3611Y2600D02*
D03*
X-2549D02*
D03*
D12*
X2420Y21539D02*
D03*
Y22601D02*
D03*
X3480Y21569D02*
D03*
Y22631D02*
D03*
D13*
X17370Y9360D02*
X20600D01*
X15890Y10840D02*
X17370Y9360D01*
X20600D02*
X21130Y9890D01*
X13294Y19346D02*
X13386D01*
X14690Y20650D02*
Y21060D01*
X7370Y15110D02*
X8060Y14420D01*
X4750Y15110D02*
X7370D01*
X4060Y14420D02*
X4750Y15110D01*
X1890Y17060D02*
X6160D01*
X7060Y14040D02*
Y14420D01*
X6640Y13620D02*
X7060Y14040D01*
X5630Y13620D02*
X6640D01*
X5060Y14190D02*
X5630Y13620D01*
X5060Y14190D02*
Y14420D01*
X8060Y11310D02*
Y11420D01*
X9060D02*
X9790D01*
X9060Y13720D02*
Y14420D01*
X8110Y17920D02*
Y18050D01*
X7020Y17920D02*
X8110D01*
X6160Y17060D02*
X7020Y17920D01*
X8110Y19020D02*
X8120Y18040D01*
X8120Y18010D01*
X8120Y18040D02*
X9110Y17050D01*
X8110Y18050D02*
X8120Y18040D01*
X9110Y16095D02*
Y17050D01*
X670Y18850D02*
X1590Y19770D01*
X670Y9530D02*
Y18850D01*
Y9530D02*
X5390Y4810D01*
X9110Y16020D02*
Y16095D01*
X-2578Y19300D02*
X-1740D01*
X-1590Y19450D01*
X-10490Y18460D02*
X-9720D01*
X-8970Y19210D02*
X-7890D01*
X-9720Y18460D02*
X-8970Y19210D01*
X-10490Y18460D02*
X-9800Y17770D01*
X-8775D02*
X-8120D01*
X-6600Y19290D01*
X-3731D01*
X-9800Y17770D02*
X-9405D01*
X10660Y21980D02*
X13294Y19346D01*
X8190Y21980D02*
X10660D01*
X13386Y18898D02*
Y19346D01*
X15200Y1970D02*
X23230D01*
X11010Y6160D02*
X15200Y1970D01*
X23230D02*
X25020Y3760D01*
X15940Y24940D02*
X21280Y19600D01*
X7620Y24940D02*
X15940D01*
X4960Y27600D02*
X7620Y24940D01*
X7080Y24330D02*
X15530D01*
X3980Y27430D02*
X7080Y24330D01*
X15530D02*
X19040Y20820D01*
X13080Y23730D02*
X15750Y21060D01*
X1600Y23730D02*
X13080D01*
X820Y22950D02*
X1600Y23730D01*
X11667Y23143D02*
X13750Y21060D01*
X2962Y23143D02*
X11667D01*
X2420Y22601D02*
X2962Y23143D01*
X7450Y30150D02*
X7500Y30200D01*
X5950Y30150D02*
X7450D01*
X3980Y27430D02*
Y28260D01*
X5908Y31848D02*
X7852D01*
X4960Y30900D02*
X5908Y31848D01*
X4960Y27600D02*
Y30900D01*
X13500Y30200D02*
Y31200D01*
X14340Y28640D02*
X16030D01*
X13500Y29480D02*
X14340Y28640D01*
X13500Y29480D02*
Y30200D01*
X13350Y27810D02*
Y28220D01*
X12500Y29070D02*
X13350Y28220D01*
X12500Y29070D02*
Y30200D01*
X16030Y28640D02*
X16350Y28320D01*
Y27810D02*
Y28320D01*
X820Y22520D02*
Y22950D01*
Y22520D02*
X1802Y21539D01*
X800Y22500D02*
Y29980D01*
Y22500D02*
X1540Y21760D01*
X800Y29980D02*
X3160Y32340D01*
X12360D01*
X12500Y30200D02*
Y31200D01*
X11500Y29520D02*
Y30200D01*
X10730Y28750D02*
X11500Y29520D01*
X8090Y28750D02*
X10730D01*
X7500Y28160D02*
X8090Y28750D01*
X7500Y27120D02*
Y28160D01*
Y27120D02*
X8440Y26180D01*
X16410D02*
X22082Y20508D01*
X8440Y26180D02*
X16410D01*
X16190Y25540D02*
X22000Y19730D01*
X8200Y25540D02*
X16190D01*
X6230Y27510D02*
X8200Y25540D01*
X8870Y26780D02*
X12840D01*
X8370Y27280D02*
X8870Y26780D01*
X8370Y27280D02*
Y27910D01*
X12840Y26780D02*
X13350Y27290D01*
Y27810D01*
X22082Y20508D02*
X22652D01*
X18590Y24880D02*
Y27980D01*
X17300Y29270D02*
X18590Y27980D01*
X15410Y29270D02*
X17300D01*
X22652Y20508D02*
X23160Y20000D01*
X22470Y21000D02*
X23160D01*
X18590Y24880D02*
X22470Y21000D01*
X19310Y24990D02*
Y31700D01*
Y24990D02*
X22300Y22000D01*
X23160D01*
X21360Y24000D02*
X23160D01*
X20000Y25360D02*
X21360Y24000D01*
X20000Y25360D02*
Y31930D01*
X6670Y29380D02*
X8190D01*
X6230Y28940D02*
X6670Y29380D01*
X6230Y27510D02*
Y28940D01*
X8500Y29690D02*
Y30200D01*
X8190Y29380D02*
X8500Y29690D01*
X19040Y19607D02*
Y20820D01*
X17331Y17898D02*
X19040Y19607D01*
X17323Y17898D02*
X17331D01*
X15890Y17465D02*
X17323Y18898D01*
X15890Y10840D02*
Y17465D01*
X21130Y9890D02*
Y13780D01*
X22350Y15000D01*
X12360Y32340D02*
X13500Y31200D01*
X2010Y19020D02*
X2110D01*
X1250Y18260D02*
X2010Y19020D01*
X1250Y15230D02*
Y18260D01*
Y15230D02*
X2060Y14420D01*
X8130Y15570D02*
Y15960D01*
Y15570D02*
X8450Y15250D01*
X10010Y16020D02*
X10710Y15320D01*
X9110Y16020D02*
X10010D01*
X10280Y17170D02*
Y19680D01*
X9205Y16095D02*
X10280Y17170D01*
X8450Y15250D02*
X9680D01*
X9990Y14940D01*
X8500Y19770D02*
X9070Y19200D01*
X1590Y19770D02*
X8500D01*
X8130Y20390D02*
X8310Y20570D01*
X4659Y20390D02*
X8130D01*
X3480Y21569D02*
X4659Y20390D01*
X8310Y20570D02*
Y21100D01*
X9640Y20320D02*
X10280Y19680D01*
X9090Y20320D02*
X9640D01*
X8310Y21100D02*
X9090Y20320D01*
X1802Y21539D02*
X2420D01*
X13386Y19346D02*
X14690Y20650D01*
X3480Y22631D02*
X5318D01*
X6310Y21640D01*
Y21100D02*
Y21640D01*
X3450Y21539D02*
X3480Y21569D01*
X2420Y21539D02*
X3450D01*
X19685Y10236D02*
Y15535D01*
X17323Y17898D02*
X19685Y15535D01*
X22350Y15000D02*
X23160D01*
X13386Y18898D02*
X17323D01*
X7310Y21100D02*
X8190Y21980D01*
X9990Y13480D02*
Y14940D01*
X8060Y11550D02*
X9990Y13480D01*
X8060Y11420D02*
Y11550D01*
X10710Y12340D02*
Y15320D01*
X9790Y11420D02*
X10710Y12340D01*
X1320Y10606D02*
Y11820D01*
X25020Y3760D02*
Y15580D01*
X24650Y15950D02*
X25020Y15580D01*
X24270Y15950D02*
X24650D01*
X5766Y6160D02*
X11010D01*
X1320Y10606D02*
X5766Y6160D01*
X5390Y4810D02*
X11100D01*
X15380Y530D01*
X25592Y2462D02*
Y16088D01*
X24680Y17000D02*
X25592Y16088D01*
X24160Y17000D02*
X24680D01*
X15380Y530D02*
X23660D01*
X25592Y2462D01*
X14480Y30200D02*
X14500D01*
X21280Y17690D02*
Y19600D01*
X22000Y17990D02*
Y19730D01*
X22970Y16000D02*
X23160D01*
X21280Y17690D02*
X22970Y16000D01*
X22990Y17000D02*
X23160D01*
X22000Y17990D02*
X22990Y17000D01*
X7852Y31848D02*
X8500Y31200D01*
X17500D02*
X18163Y31863D01*
X19147D01*
X19310Y31700D01*
X19575Y32355D02*
X20000Y31930D01*
X15500Y31200D02*
Y31295D01*
X16560Y32355D01*
X19575D01*
X-9680Y1080D02*
X-9285D01*
X-6480Y2600D02*
X-3611D01*
X-8000Y1080D02*
X-6480Y2600D01*
X-8655Y1080D02*
X-8000D01*
X-10370Y1770D02*
X-9680Y1080D01*
X-9600Y1770D02*
X-8850Y2520D01*
X-7770D01*
X-10370Y1770D02*
X-9600D01*
X-1620Y2610D02*
X-1470Y2760D01*
X-2458Y2610D02*
X-1620D01*
X8070Y16020D02*
X8130Y15960D01*
X9110Y16095D02*
X9205D01*
X14480Y30200D02*
X15410Y29270D01*
X1320Y11820D02*
X2110Y12610D01*
X7950D01*
X9060Y13720D01*
D14*
X-2960Y29430D02*
X-2950Y29440D01*
X-2960Y28430D02*
X-2950Y28440D01*
X-4160Y27430D02*
X-4150Y27440D01*
X-2960Y26430D02*
X-2950Y26440D01*
X-2960Y25430D02*
X-2950Y25440D01*
X-2960Y24430D02*
X-2950Y24440D01*
X-2960Y22430D02*
X-2950Y22440D01*
X-2960Y21430D02*
X-2950Y21440D01*
X-7170Y29420D02*
X-7160Y29430D01*
X-7170Y28420D02*
X-7160Y28430D01*
X-7170Y27420D02*
X-7160Y27430D01*
X-7170Y26420D02*
X-7160Y26430D01*
X-7170Y25420D02*
X-7160Y25430D01*
X-7170Y24420D02*
X-7160Y24430D01*
X-7170Y23420D02*
X-7160Y23430D01*
X-7170Y22420D02*
X-7160Y22430D01*
X-7170Y21420D02*
X-7160Y21430D01*
X-8400Y25480D02*
X-8340Y25420D01*
X-8400Y26480D02*
X-8340Y26420D01*
X-2960Y20430D02*
X-2950Y20440D01*
X-2960Y23430D02*
X-2950Y23440D01*
X-2880Y23370D01*
X-1760Y28440D02*
X-1530D01*
X-1330D01*
X-4400Y20430D02*
X-4160D01*
X-4280Y3740D02*
X-4040D01*
X-1410Y11750D02*
X-1210D01*
X-1640D02*
X-1410D01*
X-2830Y6750D02*
X-2760Y6680D01*
X-2840Y6740D02*
X-2830Y6750D01*
X-2840Y3740D02*
X-2830Y3750D01*
X-8280Y9790D02*
X-8220Y9730D01*
X-8280Y8790D02*
X-8220Y8730D01*
X-7050Y4730D02*
X-7040Y4740D01*
X-7050Y5730D02*
X-7040Y5740D01*
X-7050Y6730D02*
X-7040Y6740D01*
X-7050Y7730D02*
X-7040Y7740D01*
X-7050Y8730D02*
X-7040Y8740D01*
X-7050Y9730D02*
X-7040Y9740D01*
X-7050Y10730D02*
X-7040Y10740D01*
X-7050Y11730D02*
X-7040Y11740D01*
X-7050Y12730D02*
X-7040Y12740D01*
X-2840Y4740D02*
X-2830Y4750D01*
X-2840Y5740D02*
X-2830Y5750D01*
X-2840Y7740D02*
X-2830Y7750D01*
X-2840Y8740D02*
X-2830Y8750D01*
X-2840Y9740D02*
X-2830Y9750D01*
X-4040Y10740D02*
X-4030Y10750D01*
X-2840Y11740D02*
X-2830Y11750D01*
X-2840Y12740D02*
X-2830Y12750D01*
D15*
X-9960Y27530D02*
D03*
Y26530D02*
D03*
Y25530D02*
D03*
X-7710Y30480D02*
D03*
X-7731Y31690D02*
D03*
X-1590Y19450D02*
D03*
X-7160Y21430D02*
D03*
X-2950Y22440D02*
D03*
Y29440D02*
D03*
Y28440D02*
D03*
Y27440D02*
D03*
Y26440D02*
D03*
Y25440D02*
D03*
Y24440D02*
D03*
Y23440D02*
D03*
Y21440D02*
D03*
X-8340Y22420D02*
D03*
Y29420D02*
D03*
Y28420D02*
D03*
Y27420D02*
D03*
Y26420D02*
D03*
Y25420D02*
D03*
Y24420D02*
D03*
Y23420D02*
D03*
Y21420D02*
D03*
X-1530Y28440D02*
D03*
Y27440D02*
D03*
Y24670D02*
D03*
Y23670D02*
D03*
Y22670D02*
D03*
X8500Y30200D02*
D03*
X9500D02*
D03*
X10500D02*
D03*
X11500D02*
D03*
X12500D02*
D03*
X13500D02*
D03*
X14500D02*
D03*
X15500D02*
D03*
X16500D02*
D03*
X17500D02*
D03*
X18500D02*
D03*
X7500Y31200D02*
D03*
X8500D02*
D03*
X9500D02*
D03*
X10500D02*
D03*
X11500D02*
D03*
X12500D02*
D03*
X13500D02*
D03*
X14500D02*
D03*
X15500D02*
D03*
X16500D02*
D03*
X17500D02*
D03*
X18500D02*
D03*
X24160Y27000D02*
D03*
X23160Y26000D02*
D03*
X24160D02*
D03*
X23160Y25000D02*
D03*
X24160D02*
D03*
X23160Y24000D02*
D03*
X24160D02*
D03*
X23160Y23000D02*
D03*
X24160D02*
D03*
X23160Y22000D02*
D03*
X24160D02*
D03*
X23160Y21000D02*
D03*
X24160D02*
D03*
X23160Y20000D02*
D03*
X24160D02*
D03*
X23160Y19000D02*
D03*
X24160D02*
D03*
X23160Y18000D02*
D03*
X24160D02*
D03*
X23160Y17000D02*
D03*
X24160D02*
D03*
X23160Y16000D02*
D03*
X24160D02*
D03*
X23160Y15000D02*
D03*
X24160D02*
D03*
X23160Y14000D02*
D03*
X24160D02*
D03*
X23160Y13000D02*
D03*
X24160D02*
D03*
X23160Y12000D02*
D03*
X24160D02*
D03*
X23160Y11000D02*
D03*
X24160D02*
D03*
X23160Y10000D02*
D03*
X24160D02*
D03*
X23160Y9000D02*
D03*
X24160D02*
D03*
X23160Y8000D02*
D03*
X24160D02*
D03*
X5310Y21100D02*
D03*
X6310D02*
D03*
X7310D02*
D03*
X8310D02*
D03*
X9310D02*
D03*
X13386Y11898D02*
D03*
Y12898D02*
D03*
Y13898D02*
D03*
Y14898D02*
D03*
Y15898D02*
D03*
Y16898D02*
D03*
Y17898D02*
D03*
X-8220Y5730D02*
D03*
Y12730D02*
D03*
Y11730D02*
D03*
Y10730D02*
D03*
Y9730D02*
D03*
Y8730D02*
D03*
Y7730D02*
D03*
Y6730D02*
D03*
Y4730D02*
D03*
X-7040Y4740D02*
D03*
X-1410Y7980D02*
D03*
Y6980D02*
D03*
Y5980D02*
D03*
X6000Y1100D02*
D03*
X9840Y1300D02*
D03*
X10840D02*
D03*
X10370Y27910D02*
D03*
X9370D02*
D03*
X8370D02*
D03*
X15350Y27810D02*
D03*
X14350D02*
D03*
X13350D02*
D03*
X-7640Y14200D02*
D03*
X-7661Y15410D02*
D03*
X-2830Y5750D02*
D03*
Y12750D02*
D03*
Y11750D02*
D03*
Y10750D02*
D03*
Y9750D02*
D03*
Y8750D02*
D03*
Y7750D02*
D03*
Y6750D02*
D03*
Y4750D02*
D03*
X-1470Y2760D02*
D03*
X-1410Y11750D02*
D03*
Y10750D02*
D03*
X-9840Y10840D02*
D03*
Y9840D02*
D03*
Y8840D02*
D03*
X12750Y21060D02*
D03*
X13750D02*
D03*
X14750D02*
D03*
X15750D02*
D03*
X16750D02*
D03*
X17323Y11898D02*
D03*
Y12898D02*
D03*
Y13898D02*
D03*
Y14898D02*
D03*
Y15898D02*
D03*
Y16898D02*
D03*
Y17898D02*
D03*
D16*
X-9960Y24530D02*
D03*
X-1590Y20450D02*
D03*
X-2950Y20440D02*
D03*
X-8340Y20420D02*
D03*
X-1530Y29440D02*
D03*
Y21670D02*
D03*
X23160Y27000D02*
D03*
X3955Y3543D02*
D03*
X13386Y18898D02*
D03*
X-8220Y3730D02*
D03*
X-1410Y4980D02*
D03*
X3937Y10236D02*
D03*
X-2830Y3750D02*
D03*
X-1470Y3760D02*
D03*
X-1410Y12750D02*
D03*
X-9840Y7840D02*
D03*
X17323Y18898D02*
D03*
D17*
X-8710Y30480D02*
D03*
X-8731Y31690D02*
D03*
X7500Y30200D02*
D03*
X10310Y21100D02*
D03*
X7000Y1100D02*
D03*
X8840Y1300D02*
D03*
X11370Y27910D02*
D03*
X16350Y27810D02*
D03*
X19685Y3543D02*
D03*
X-8640Y14200D02*
D03*
X-8661Y15410D02*
D03*
X17750Y21060D02*
D03*
X19685Y10236D02*
D03*
D18*
X-7160Y29430D02*
D03*
Y28430D02*
D03*
Y27430D02*
D03*
Y26430D02*
D03*
Y25430D02*
D03*
Y24430D02*
D03*
Y23430D02*
D03*
Y22430D02*
D03*
Y20430D02*
D03*
X-4160Y29430D02*
D03*
Y28430D02*
D03*
Y27430D02*
D03*
Y26430D02*
D03*
Y25430D02*
D03*
Y24430D02*
D03*
Y23430D02*
D03*
Y22430D02*
D03*
Y21430D02*
D03*
X2110Y16020D02*
D03*
X3110D02*
D03*
X4110D02*
D03*
X5110D02*
D03*
X6110D02*
D03*
X7110D02*
D03*
X8110D02*
D03*
X9110D02*
D03*
X2110Y19020D02*
D03*
X3110D02*
D03*
X4110D02*
D03*
X5110D02*
D03*
X6110D02*
D03*
X7110D02*
D03*
X8110D02*
D03*
X-7040Y12740D02*
D03*
Y11740D02*
D03*
Y10740D02*
D03*
Y9740D02*
D03*
Y8740D02*
D03*
Y7740D02*
D03*
Y6740D02*
D03*
Y5740D02*
D03*
Y3740D02*
D03*
X-4040Y12740D02*
D03*
Y11740D02*
D03*
Y10740D02*
D03*
Y9740D02*
D03*
Y8740D02*
D03*
Y7740D02*
D03*
Y6740D02*
D03*
Y5740D02*
D03*
Y4740D02*
D03*
X2060Y11420D02*
D03*
X3060D02*
D03*
X4060D02*
D03*
X5060D02*
D03*
X6060D02*
D03*
X7060D02*
D03*
X8060D02*
D03*
X9060D02*
D03*
X2060Y14420D02*
D03*
X3060D02*
D03*
X4060D02*
D03*
X5060D02*
D03*
X6060D02*
D03*
X7060D02*
D03*
X8060D02*
D03*
D19*
X-4160Y20430D02*
D03*
X-4040Y3740D02*
D03*
D20*
X-5512Y31496D02*
D03*
Y17913D02*
D03*
X21260Y25984D02*
D03*
Y3150D02*
D03*
X1969D02*
D03*
Y25984D02*
D03*
X-5512Y1378D02*
D03*
Y15157D02*
D03*
X22843Y30191D02*
D03*
X2173Y5387D02*
D03*
X3157Y30191D02*
D03*
X23827Y5387D02*
D03*
D21*
X9110Y19020D02*
D03*
X9060Y14420D02*
D03*
D22*
X21858Y1372D02*
D03*
X4142D02*
D03*
D23*
X-10490Y18460D02*
D03*
X-7890Y19210D02*
D03*
X5950Y30150D02*
D03*
X3980Y28260D02*
D03*
X-7770Y2520D02*
D03*
X-10370Y1770D02*
D03*
M02*
