G04 Layer_Color=65535*
%FSLAX24Y24*%
%MOIN*%
G70*
G01*
G75*
%ADD25C,0.0098*%
%ADD26C,0.0079*%
%ADD27C,0.0059*%
%ADD28C,0.0100*%
%ADD29C,0.0080*%
D25*
X19734Y11043D02*
G03*
X19734Y11043I-49J0D01*
G01*
X3384Y1372D02*
G03*
X3384Y1372I-49J0D01*
G01*
X21100D02*
G03*
X21100Y1372I-49J0D01*
G01*
X19734Y4350D02*
G03*
X19734Y4350I-49J0D01*
G01*
X3179Y10236D02*
G03*
X3179Y10236I-49J0D01*
G01*
Y3543D02*
G03*
X3179Y3543I-49J0D01*
G01*
D26*
X9438Y13170D02*
G03*
X9438Y12670I0J-250D01*
G01*
X-5290Y3319D02*
G03*
X-5790Y3319I-250J0D01*
G01*
X9488Y17770D02*
G03*
X9488Y17270I0J-250D01*
G01*
X-5410Y20009D02*
G03*
X-5910Y20009I-250J0D01*
G01*
X16823Y11398D02*
X17823D01*
X16823D02*
Y19398D01*
X17823D01*
Y11398D02*
Y19398D01*
X19134Y9685D02*
Y10787D01*
X19134Y9685D02*
X20236D01*
Y10787D01*
X19134Y10787D02*
X20236D01*
X12250Y20560D02*
Y21560D01*
X18250Y20560D02*
Y21560D01*
X12250Y20560D02*
X18250D01*
X12250Y21560D02*
X18250D01*
X9438Y13170D02*
Y13963D01*
Y11877D02*
Y12670D01*
X1682Y11877D02*
Y13963D01*
X9438D01*
X1682Y11877D02*
X9438D01*
X-10340Y11340D02*
X-9340D01*
Y7340D02*
Y11340D01*
X-10340Y7340D02*
Y11340D01*
Y7340D02*
X-9340D01*
X-1910Y13250D02*
X-910D01*
Y10250D02*
Y13250D01*
X-1910Y10250D02*
X-910D01*
X-1910D02*
Y13250D01*
X-970Y2260D02*
Y4260D01*
X-1970D02*
X-970D01*
X-1970Y2260D02*
Y4260D01*
Y2260D02*
X-970D01*
X-3237Y2285D02*
X-2923D01*
X-3237Y2915D02*
X-2923D01*
X-3330Y13250D02*
X-2330D01*
Y3250D02*
Y13250D01*
X-3330Y3250D02*
X-2330D01*
X-3330D02*
Y4000D01*
Y13250D01*
X3591Y821D02*
X4693D01*
X4693Y821D02*
Y1923D01*
X3591D02*
X4693D01*
X3591Y821D02*
Y1923D01*
X21307Y821D02*
Y1923D01*
X21307Y1923D02*
X22409D01*
Y821D02*
Y1923D01*
X21307Y821D02*
X22409D01*
X19134Y2992D02*
Y4094D01*
X19134Y2992D02*
X20236D01*
Y4094D01*
X19134Y4094D02*
X20236D01*
X3795Y21943D02*
Y22257D01*
X3165Y21943D02*
Y22257D01*
X16850Y27310D02*
Y28310D01*
X12850Y27310D02*
X16850D01*
X12850Y28310D02*
X16850D01*
X12850Y27310D02*
Y28310D01*
X11870Y27410D02*
Y28410D01*
X7870Y27410D02*
X11870D01*
X7870Y28410D02*
X11870D01*
X7870Y27410D02*
Y28410D01*
X3386Y9685D02*
X4488D01*
X4488Y9685D02*
Y10787D01*
X3386D02*
X4488D01*
X3386Y9685D02*
Y10787D01*
X2735Y21913D02*
Y22227D01*
X2105Y21913D02*
Y22227D01*
X8340Y800D02*
Y1800D01*
X11340D01*
Y800D02*
Y1800D01*
X8340Y800D02*
X11340D01*
X5500Y600D02*
X7500D01*
Y1600D01*
X5500D02*
X7500D01*
X5500Y600D02*
Y1600D01*
X-1910Y8480D02*
X-910D01*
Y4480D02*
Y8480D01*
X-1910Y4480D02*
Y8480D01*
Y4480D02*
X-910D01*
X-5290Y3319D02*
X-4497D01*
X-6583D02*
X-5790D01*
X-6583Y13161D02*
X-4497D01*
Y3319D02*
Y13161D01*
X-6583Y3319D02*
Y13161D01*
X-8720Y13230D02*
X-7720D01*
Y3230D02*
Y13230D01*
X-8720Y3230D02*
X-7720D01*
X-8720D02*
Y3980D01*
Y13230D01*
X-8980Y883D02*
Y1317D01*
X12886Y11398D02*
X13886D01*
X12886D02*
Y19398D01*
X13886D01*
Y11398D02*
Y19398D01*
X4810Y20600D02*
Y21600D01*
X10810Y20600D02*
Y21600D01*
X4810Y20600D02*
X10810D01*
X4810Y21600D02*
X10810D01*
X3386Y2992D02*
X4488D01*
X4488Y2992D02*
Y4094D01*
X3386D02*
X4488D01*
X3386Y2992D02*
Y4094D01*
X9488Y17770D02*
Y18563D01*
Y16477D02*
Y17270D01*
X1732Y16477D02*
Y18563D01*
X9488D01*
X1732Y16477D02*
X9488D01*
X22660Y7500D02*
Y27500D01*
X24660Y7500D02*
Y27500D01*
X22660D02*
X24660D01*
X22660Y7500D02*
X24660D01*
X7000Y29700D02*
X19000D01*
Y31700D01*
X7000D02*
X19000D01*
X7000Y29700D02*
Y31700D01*
X-2030Y25170D02*
X-1030D01*
Y21170D02*
Y25170D01*
X-2030Y21170D02*
Y25170D01*
Y21170D02*
X-1030D01*
X-2030Y29940D02*
X-1030D01*
Y26940D02*
Y29940D01*
X-2030Y26940D02*
X-1030D01*
X-2030D02*
Y29940D01*
X-3357Y18975D02*
X-3043D01*
X-3357Y19605D02*
X-3043D01*
X-8840Y29920D02*
X-7840D01*
Y19920D02*
Y29920D01*
X-8840Y19920D02*
X-7840D01*
X-8840D02*
Y20670D01*
Y29920D01*
X-3450Y29940D02*
X-2450D01*
Y19940D02*
Y29940D01*
X-3450Y19940D02*
X-2450D01*
X-3450D02*
Y20690D01*
Y29940D01*
X-5410Y20009D02*
X-4617D01*
X-6703D02*
X-5910D01*
X-6703Y29851D02*
X-4617D01*
Y20009D02*
Y29851D01*
X-6703Y20009D02*
Y29851D01*
X-1090Y18950D02*
Y20950D01*
X-2090D02*
X-1090D01*
X-2090Y18950D02*
Y20950D01*
Y18950D02*
X-1090D01*
X-10460Y28030D02*
X-9460D01*
Y24030D02*
Y28030D01*
X-10460Y24030D02*
Y28030D01*
Y24030D02*
X-9460D01*
X-9100Y17573D02*
Y18007D01*
X12059Y2374D02*
Y2636D01*
X12190Y2767D01*
X12321Y2636D01*
Y2374D01*
Y2571D01*
X12059D01*
X12452Y2767D02*
X12584D01*
X12518D01*
Y2374D01*
X12452D01*
X12584D01*
X12977Y2767D02*
X12846D01*
X12780Y2702D01*
Y2439D01*
X12846Y2374D01*
X12977D01*
X13043Y2439D01*
Y2702D01*
X12977Y2767D01*
X13567Y2571D02*
X13830D01*
X14355Y2767D02*
X14617D01*
X14486D01*
Y2374D01*
X15011Y2702D02*
X14945Y2767D01*
X14814D01*
X14748Y2702D01*
Y2439D01*
X14814Y2374D01*
X14945D01*
X15011Y2439D01*
Y2571D01*
X14879D01*
X15535Y2374D02*
X15667D01*
X15601D01*
Y2767D01*
X15535Y2702D01*
X16126Y2767D02*
X15994Y2702D01*
X15863Y2571D01*
Y2439D01*
X15929Y2374D01*
X16060D01*
X16126Y2439D01*
Y2505D01*
X16060Y2571D01*
X15863D01*
X16257Y2702D02*
X16322Y2767D01*
X16454D01*
X16519Y2702D01*
Y2439D01*
X16454Y2374D01*
X16322D01*
X16257Y2439D01*
Y2702D01*
X16847Y2374D02*
Y2767D01*
X16650Y2571D01*
X16913D01*
X12059Y1712D02*
Y2106D01*
X12190Y1975D01*
X12321Y2106D01*
Y1712D01*
X12452D02*
X12584D01*
X12518D01*
Y1975D01*
X12452D01*
X12911Y1581D02*
X12977D01*
X13043Y1647D01*
Y1975D01*
X12846D01*
X12780Y1909D01*
Y1778D01*
X12846Y1712D01*
X13043D01*
X13174Y1975D02*
Y1778D01*
X13239Y1712D01*
X13436D01*
Y1975D01*
X13764Y1712D02*
X13633D01*
X13567Y1778D01*
Y1909D01*
X13633Y1975D01*
X13764D01*
X13830Y1909D01*
Y1844D01*
X13567D01*
X13961Y1712D02*
X14092D01*
X14027D01*
Y2106D01*
X13961D01*
X14683Y1712D02*
Y1975D01*
X14814Y2106D01*
X14945Y1975D01*
Y1712D01*
Y1909D01*
X14683D01*
X15076Y1712D02*
Y1975D01*
X15273D01*
X15339Y1909D01*
Y1712D01*
X15601Y1581D02*
X15667D01*
X15732Y1647D01*
Y1975D01*
X15535D01*
X15470Y1909D01*
Y1778D01*
X15535Y1712D01*
X15732D01*
X16060D02*
X15929D01*
X15863Y1778D01*
Y1909D01*
X15929Y1975D01*
X16060D01*
X16126Y1909D01*
Y1844D01*
X15863D01*
X16257Y1712D02*
X16388D01*
X16322D01*
Y2106D01*
X16257D01*
X16978D02*
Y1712D01*
X17175D01*
X17241Y1778D01*
Y1844D01*
X17175Y1909D01*
X16978D01*
X17175D01*
X17241Y1975D01*
Y2040D01*
X17175Y2106D01*
X16978D01*
X17569Y1712D02*
X17438D01*
X17372Y1778D01*
Y1909D01*
X17438Y1975D01*
X17569D01*
X17634Y1909D01*
Y1844D01*
X17372D01*
X17766Y1975D02*
Y1712D01*
Y1844D01*
X17831Y1909D01*
X17897Y1975D01*
X17962D01*
X18159Y1712D02*
Y1975D01*
X18225D01*
X18290Y1909D01*
Y1712D01*
Y1909D01*
X18356Y1975D01*
X18422Y1909D01*
Y1712D01*
X18750D02*
X18618D01*
X18553Y1778D01*
Y1909D01*
X18618Y1975D01*
X18750D01*
X18815Y1909D01*
Y1844D01*
X18553D01*
X19012Y1712D02*
X19143D01*
X19209Y1778D01*
Y1909D01*
X19143Y1975D01*
X19012D01*
X18946Y1909D01*
Y1778D01*
X19012Y1712D01*
X12321Y1314D02*
X12059D01*
Y1117D01*
X12190D01*
X12059D01*
Y920D01*
X12518Y1182D02*
X12649D01*
X12715Y1117D01*
Y920D01*
X12518D01*
X12452Y986D01*
X12518Y1051D01*
X12715D01*
X12846Y1314D02*
Y920D01*
X13043D01*
X13108Y986D01*
Y1051D01*
Y1117D01*
X13043Y1182D01*
X12846D01*
X13239Y920D02*
X13371D01*
X13305D01*
Y1182D01*
X13239D01*
X13633D02*
X13764D01*
X13830Y1117D01*
Y920D01*
X13633D01*
X13567Y986D01*
X13633Y1051D01*
X13830D01*
X13961Y920D02*
Y1182D01*
X14158D01*
X14223Y1117D01*
Y920D01*
X14748D02*
Y1182D01*
X14879Y1314D01*
X15011Y1182D01*
Y920D01*
Y1117D01*
X14748D01*
X15142Y920D02*
Y1182D01*
X15339D01*
X15404Y1117D01*
Y920D01*
X15798Y1314D02*
Y920D01*
X15601D01*
X15535Y986D01*
Y1117D01*
X15601Y1182D01*
X15798D01*
X15929D02*
Y920D01*
Y1051D01*
X15994Y1117D01*
X16060Y1182D01*
X16126D01*
X16519Y920D02*
X16388D01*
X16322Y986D01*
Y1117D01*
X16388Y1182D01*
X16519D01*
X16585Y1117D01*
Y1051D01*
X16322D01*
X16716Y920D02*
X16913D01*
X16978Y986D01*
X16913Y1051D01*
X16782D01*
X16716Y1117D01*
X16782Y1182D01*
X16978D01*
X17503Y920D02*
Y1314D01*
X17634Y1182D01*
X17766Y1314D01*
Y920D01*
X18094D02*
X17962D01*
X17897Y986D01*
Y1117D01*
X17962Y1182D01*
X18094D01*
X18159Y1117D01*
Y1051D01*
X17897D01*
X18290Y1182D02*
Y920D01*
Y1051D01*
X18356Y1117D01*
X18422Y1182D01*
X18487D01*
X18946D02*
X18750D01*
X18684Y1117D01*
Y986D01*
X18750Y920D01*
X18946D01*
X19077Y1314D02*
Y920D01*
Y1117D01*
X19143Y1182D01*
X19274D01*
X19340Y1117D01*
Y920D01*
X19537Y1182D02*
X19668D01*
X19733Y1117D01*
Y920D01*
X19537D01*
X19471Y986D01*
X19537Y1051D01*
X19733D01*
X19865Y920D02*
Y1182D01*
X20061D01*
X20127Y1117D01*
Y920D01*
X12059Y652D02*
Y259D01*
X12256D01*
X12321Y324D01*
Y587D01*
X12256Y652D01*
X12059D01*
X12518Y521D02*
X12649D01*
X12715Y456D01*
Y259D01*
X12518D01*
X12452Y324D01*
X12518Y390D01*
X12715D01*
X12846Y521D02*
X12977Y259D01*
X13108Y521D01*
X13239Y259D02*
X13371D01*
X13305D01*
Y521D01*
X13239D01*
X13830Y652D02*
Y259D01*
X13633D01*
X13567Y324D01*
Y456D01*
X13633Y521D01*
X13830D01*
X14617Y587D02*
X14551Y652D01*
X14420D01*
X14355Y587D01*
Y521D01*
X14420Y456D01*
X14551D01*
X14617Y390D01*
Y324D01*
X14551Y259D01*
X14420D01*
X14355Y324D01*
X14814Y587D02*
Y521D01*
X14748D01*
X14879D01*
X14814D01*
Y324D01*
X14879Y259D01*
X15076D02*
X15207D01*
X15142D01*
Y521D01*
X15076D01*
X15404D02*
X15535Y259D01*
X15667Y521D01*
X15994Y259D02*
X15863D01*
X15798Y324D01*
Y456D01*
X15863Y521D01*
X15994D01*
X16060Y456D01*
Y390D01*
X15798D01*
X16191Y259D02*
Y521D01*
X16388D01*
X16454Y456D01*
Y259D01*
X16978D02*
Y521D01*
X17110Y652D01*
X17241Y521D01*
Y259D01*
Y456D01*
X16978D01*
X17372Y521D02*
X17503Y259D01*
X17634Y521D01*
X17766Y259D02*
X17897D01*
X17831D01*
Y521D01*
X17766D01*
X18094Y259D02*
X18225D01*
X18159D01*
Y652D01*
X18094D01*
X18487Y521D02*
X18618D01*
X18684Y456D01*
Y259D01*
X18487D01*
X18422Y324D01*
X18487Y390D01*
X18684D01*
X-8955Y634D02*
Y240D01*
Y634D02*
X-8824D01*
X-8768Y615D01*
X-8730Y577D01*
X-8711Y540D01*
X-8693Y484D01*
Y390D01*
X-8711Y334D01*
X-8730Y296D01*
X-8768Y259D01*
X-8824Y240D01*
X-8955D01*
X-8605Y559D02*
X-8567Y577D01*
X-8511Y634D01*
Y240D01*
X-3040Y13430D02*
Y13824D01*
X-2843D01*
X-2778Y13758D01*
Y13627D01*
X-2843Y13561D01*
X-3040D01*
X-2646Y13430D02*
X-2515D01*
X-2581D01*
Y13824D01*
X-2646Y13758D01*
X-9570Y12690D02*
Y13084D01*
X-9373D01*
X-9308Y13018D01*
Y12887D01*
X-9373Y12821D01*
X-9570D01*
X-8914Y12690D02*
X-9176D01*
X-8914Y12952D01*
Y13018D01*
X-8980Y13084D01*
X-9111D01*
X-9176Y13018D01*
X-3460Y1720D02*
Y2035D01*
X-3303D01*
X-3250Y1982D01*
Y1877D01*
X-3303Y1825D01*
X-3460D01*
X-3355D02*
X-3250Y1720D01*
X-3145Y2035D02*
Y1720D01*
X-2935D01*
X-2620Y2035D02*
X-2830D01*
Y1720D01*
X-2620D01*
X-2830Y1877D02*
X-2725D01*
X-2515Y2035D02*
Y1720D01*
X-2358D01*
X-2306Y1772D01*
Y1982D01*
X-2358Y2035D01*
X-2515D01*
X-10344Y11864D02*
X-10213Y11865D01*
X-10279Y11864D01*
X-10274Y11471D01*
X-10340Y11470D01*
X-10209Y11471D01*
X-9750Y11476D02*
X-10012Y11473D01*
X-9752Y11739D01*
X-9753Y11804D01*
X-9819Y11869D01*
X-9951Y11868D01*
X-10015Y11801D01*
X-9360Y11808D02*
X-9426Y11873D01*
X-9557Y11872D01*
X-9622Y11805D01*
X-9619Y11543D01*
X-9553Y11478D01*
X-9422Y11480D01*
X-9357Y11546D01*
X-1994Y10066D02*
X-2048Y10117D01*
X-2152Y10116D01*
X-2204Y10062D01*
X-2203Y10010D01*
X-2150Y9958D01*
X-2045Y9960D01*
X-1992Y9908D01*
X-1991Y9856D01*
X-2043Y9802D01*
X-2148Y9801D01*
X-2201Y9852D01*
X-1728Y9807D02*
X-1833Y9806D01*
X-1886Y9857D01*
X-1888Y9962D01*
X-1836Y10016D01*
X-1731Y10017D01*
X-1678Y9966D01*
X-1677Y9913D01*
X-1887Y9910D01*
X-1574Y10020D02*
X-1570Y9810D01*
X-1572Y9915D01*
X-1520Y9968D01*
X-1469Y10021D01*
X-1416Y10022D01*
X-1259Y10025D02*
X-1151Y9816D01*
X-1049Y10028D01*
X-888Y9821D02*
X-783Y9822D01*
X-732Y9875D01*
X-733Y9980D01*
X-787Y10032D01*
X-892Y10030D01*
X-943Y9977D01*
X-942Y9872D01*
X-888Y9821D01*
X-6550Y13340D02*
Y13655D01*
X-6445Y13550D01*
X-6340Y13655D01*
Y13340D01*
X-6025Y13602D02*
X-6078Y13655D01*
X-6183D01*
X-6235Y13602D01*
Y13550D01*
X-6183Y13497D01*
X-6078D01*
X-6025Y13445D01*
Y13392D01*
X-6078Y13340D01*
X-6183D01*
X-6235Y13392D01*
X-5920Y13340D02*
Y13655D01*
X-5763D01*
X-5710Y13602D01*
Y13497D01*
X-5763Y13445D01*
X-5920D01*
X-5605Y13288D02*
X-5396D01*
X-5291Y13340D02*
Y13655D01*
X-5133D01*
X-5081Y13602D01*
Y13497D01*
X-5133Y13445D01*
X-5291D01*
X-4976Y13655D02*
X-4871D01*
X-4923D01*
Y13340D01*
X-4976D01*
X-4871D01*
X-4503Y13602D02*
X-4556Y13655D01*
X-4661D01*
X-4713Y13602D01*
Y13392D01*
X-4661Y13340D01*
X-4556D01*
X-4503Y13392D01*
X-2138Y9064D02*
X-2140Y8736D01*
X-2074Y8670D01*
X-1943Y8669D01*
X-1877Y8734D01*
X-1875Y9062D01*
X-1746Y8668D02*
X-1745Y8930D01*
X-1613Y9061D01*
X-1483Y8929D01*
X-1484Y8666D01*
X-1483Y8863D01*
X-1745Y8865D01*
X-1353Y8665D02*
X-1351Y9059D01*
X-1154Y9058D01*
X-1089Y8992D01*
X-1089Y8861D01*
X-1155Y8796D01*
X-1352Y8797D01*
X-1221Y8796D02*
X-1090Y8664D01*
X-957Y9057D02*
X-695Y9055D01*
X-826Y9056D01*
X-828Y8662D01*
X-2258Y25754D02*
X-2260Y25426D01*
X-2194Y25360D01*
X-2063Y25359D01*
X-1997Y25424D01*
X-1995Y25752D01*
X-1866Y25358D02*
X-1865Y25620D01*
X-1733Y25751D01*
X-1603Y25619D01*
X-1604Y25356D01*
X-1603Y25553D01*
X-1865Y25555D01*
X-1473Y25355D02*
X-1471Y25749D01*
X-1274Y25748D01*
X-1209Y25682D01*
X-1209Y25551D01*
X-1275Y25486D01*
X-1472Y25487D01*
X-1341Y25486D02*
X-1210Y25354D01*
X-1077Y25747D02*
X-815Y25745D01*
X-946Y25746D01*
X-948Y25352D01*
X-686Y25285D02*
X-424Y25284D01*
X-292Y25349D02*
X-161Y25348D01*
X-227Y25348D01*
X-224Y25742D01*
X-290Y25677D01*
X-2114Y26756D02*
X-2168Y26807D01*
X-2272Y26806D01*
X-2324Y26752D01*
X-2323Y26700D01*
X-2270Y26648D01*
X-2165Y26650D01*
X-2112Y26598D01*
X-2111Y26546D01*
X-2163Y26492D01*
X-2268Y26491D01*
X-2321Y26542D01*
X-1848Y26497D02*
X-1953Y26496D01*
X-2006Y26547D01*
X-2008Y26652D01*
X-1956Y26706D01*
X-1851Y26707D01*
X-1798Y26656D01*
X-1797Y26603D01*
X-2007Y26600D01*
X-1694Y26710D02*
X-1690Y26500D01*
X-1692Y26605D01*
X-1640Y26658D01*
X-1589Y26711D01*
X-1536Y26712D01*
X-1379Y26715D02*
X-1271Y26506D01*
X-1169Y26718D01*
X-1008Y26511D02*
X-903Y26512D01*
X-852Y26565D01*
X-853Y26670D01*
X-907Y26722D01*
X-1012Y26720D01*
X-1063Y26667D01*
X-1062Y26562D01*
X-1008Y26511D01*
X-745Y26462D02*
X-535Y26465D01*
X-431Y26520D02*
X-326Y26521D01*
X-379Y26520D01*
X-384Y26835D01*
X-435Y26782D01*
X-3580Y18410D02*
Y18725D01*
X-3423D01*
X-3370Y18672D01*
Y18567D01*
X-3423Y18515D01*
X-3580D01*
X-3475D02*
X-3370Y18410D01*
X-3265Y18725D02*
Y18410D01*
X-3055D01*
X-2740Y18725D02*
X-2950D01*
Y18410D01*
X-2740D01*
X-2950Y18567D02*
X-2845D01*
X-2635Y18725D02*
Y18410D01*
X-2478D01*
X-2426Y18462D01*
Y18672D01*
X-2478Y18725D01*
X-2635D01*
X-2321Y18358D02*
X-2111D01*
X-2006Y18410D02*
X-1901D01*
X-1953D01*
Y18725D01*
X-2006Y18672D01*
X-9690Y29380D02*
Y29774D01*
X-9493D01*
X-9428Y29708D01*
Y29577D01*
X-9493Y29511D01*
X-9690D01*
X-9034Y29380D02*
X-9296D01*
X-9034Y29642D01*
Y29708D01*
X-9100Y29774D01*
X-9231D01*
X-9296Y29708D01*
X-8903Y29314D02*
X-8640D01*
X-8509Y29380D02*
X-8378D01*
X-8444D01*
Y29774D01*
X-8509Y29708D01*
X-3160Y30120D02*
Y30514D01*
X-2963D01*
X-2898Y30448D01*
Y30317D01*
X-2963Y30251D01*
X-3160D01*
X-2766Y30120D02*
X-2635D01*
X-2701D01*
Y30514D01*
X-2766Y30448D01*
X-2438Y30054D02*
X-2176D01*
X-2045Y30120D02*
X-1914D01*
X-1979D01*
Y30514D01*
X-2045Y30448D01*
X-6670Y30030D02*
Y30345D01*
X-6565Y30240D01*
X-6460Y30345D01*
Y30030D01*
X-6145Y30292D02*
X-6198Y30345D01*
X-6303D01*
X-6355Y30292D01*
Y30240D01*
X-6303Y30187D01*
X-6198D01*
X-6145Y30135D01*
Y30082D01*
X-6198Y30030D01*
X-6303D01*
X-6355Y30082D01*
X-6040Y30030D02*
Y30345D01*
X-5883D01*
X-5830Y30292D01*
Y30187D01*
X-5883Y30135D01*
X-6040D01*
X-5725Y29978D02*
X-5516D01*
X-5411Y30030D02*
Y30345D01*
X-5253D01*
X-5201Y30292D01*
Y30187D01*
X-5253Y30135D01*
X-5411D01*
X-5096Y30345D02*
X-4991D01*
X-5043D01*
Y30030D01*
X-5096D01*
X-4991D01*
X-4623Y30292D02*
X-4676Y30345D01*
X-4781D01*
X-4833Y30292D01*
Y30082D01*
X-4781Y30030D01*
X-4676D01*
X-4623Y30082D01*
X-4518Y29978D02*
X-4309D01*
X-4204Y30030D02*
X-4099D01*
X-4151D01*
Y30345D01*
X-4204Y30292D01*
X-10464Y28554D02*
X-10333Y28555D01*
X-10399Y28554D01*
X-10394Y28161D01*
X-10460Y28160D01*
X-10329Y28161D01*
X-9870Y28166D02*
X-10132Y28163D01*
X-9872Y28429D01*
X-9873Y28494D01*
X-9939Y28559D01*
X-10071Y28558D01*
X-10135Y28491D01*
X-9480Y28498D02*
X-9546Y28563D01*
X-9677Y28562D01*
X-9742Y28495D01*
X-9739Y28233D01*
X-9673Y28168D01*
X-9542Y28170D01*
X-9477Y28236D01*
X-9344Y28106D02*
X-9082Y28109D01*
X-8951Y28176D02*
X-8820Y28177D01*
X-8886Y28176D01*
X-8890Y28570D01*
X-8955Y28504D01*
X-9075Y17324D02*
Y16930D01*
Y17324D02*
X-8944D01*
X-8888Y17305D01*
X-8850Y17267D01*
X-8831Y17230D01*
X-8813Y17174D01*
Y17080D01*
X-8831Y17024D01*
X-8850Y16986D01*
X-8888Y16949D01*
X-8944Y16930D01*
X-9075D01*
X-8725Y17249D02*
X-8687Y17267D01*
X-8631Y17324D01*
Y16930D01*
X-8436Y16799D02*
X-8136D01*
X-8085Y17249D02*
X-8048Y17267D01*
X-7992Y17324D01*
Y16930D01*
D27*
X-387Y2679D02*
Y2810D01*
Y2744D01*
X-715D01*
X-781Y2810D01*
Y2875D01*
X-715Y2941D01*
X-453Y2547D02*
X-387Y2482D01*
Y2351D01*
X-453Y2285D01*
X-519D01*
X-584Y2351D01*
Y2416D01*
Y2351D01*
X-650Y2285D01*
X-715D01*
X-781Y2351D01*
Y2482D01*
X-715Y2547D01*
X-442Y19369D02*
Y19500D01*
Y19434D01*
X-770D01*
X-835Y19500D01*
Y19565D01*
X-770Y19631D01*
X-507Y19237D02*
X-442Y19172D01*
Y19041D01*
X-507Y18975D01*
X-573D01*
X-639Y19041D01*
Y19106D01*
Y19041D01*
X-704Y18975D01*
X-770D01*
X-835Y19041D01*
Y19172D01*
X-770Y19237D01*
X-901Y18844D02*
Y18581D01*
X-835Y18450D02*
Y18319D01*
Y18385D01*
X-442D01*
X-507Y18450D01*
D28*
X520Y1570D02*
Y970D01*
X820D01*
X920Y1070D01*
Y1170D01*
X820Y1270D01*
X520D01*
X820D01*
X920Y1370D01*
Y1470D01*
X820Y1570D01*
X520D01*
X1120Y970D02*
Y1370D01*
X1320Y1570D01*
X1520Y1370D01*
Y970D01*
Y1270D01*
X1120D01*
X1720Y1570D02*
X2119D01*
X1920D01*
Y970D01*
X2319Y1270D02*
X2719D01*
X23260Y1770D02*
Y1170D01*
X23560D01*
X23660Y1270D01*
Y1370D01*
X23560Y1470D01*
X23260D01*
X23560D01*
X23660Y1570D01*
Y1670D01*
X23560Y1770D01*
X23260D01*
X23860Y1170D02*
Y1570D01*
X24060Y1770D01*
X24260Y1570D01*
Y1170D01*
Y1470D01*
X23860D01*
X24460Y1770D02*
X24859D01*
X24660D01*
Y1170D01*
X25059Y1470D02*
X25459D01*
X25259Y1670D02*
Y1270D01*
X12970Y26370D02*
Y25870D01*
X13070Y25770D01*
X13270D01*
X13370Y25870D01*
Y26370D01*
X13570Y25770D02*
Y26170D01*
X13770Y26370D01*
X13970Y26170D01*
Y25770D01*
Y26070D01*
X13570D01*
X14170Y25770D02*
Y26370D01*
X14470D01*
X14569Y26270D01*
Y26070D01*
X14470Y25970D01*
X14170D01*
X14370D02*
X14569Y25770D01*
X14769Y26370D02*
X15169D01*
X14969D01*
Y25770D01*
X15369Y25670D02*
X15769D01*
X16269Y26370D02*
X16069D01*
X15969Y26270D01*
Y25870D01*
X16069Y25770D01*
X16269D01*
X16369Y25870D01*
Y26270D01*
X16269Y26370D01*
X16969Y25770D02*
X16569D01*
X16969Y26170D01*
Y26270D01*
X16869Y26370D01*
X16669D01*
X16569Y26270D01*
X10590Y29300D02*
X10490Y29400D01*
X10290D01*
X10190Y29300D01*
Y29200D01*
X10290Y29100D01*
X10490D01*
X10590Y29000D01*
Y28900D01*
X10490Y28800D01*
X10290D01*
X10190Y28900D01*
X11090Y28800D02*
X10890D01*
X10790Y28900D01*
Y29100D01*
X10890Y29200D01*
X11090D01*
X11190Y29100D01*
Y29000D01*
X10790D01*
X11390Y28800D02*
Y29200D01*
X11690D01*
X11789Y29100D01*
Y28800D01*
X11989D02*
X12289D01*
X12389Y28900D01*
X12289Y29000D01*
X12089D01*
X11989Y29100D01*
X12089Y29200D01*
X12389D01*
X12689Y28800D02*
X12889D01*
X12989Y28900D01*
Y29100D01*
X12889Y29200D01*
X12689D01*
X12589Y29100D01*
Y28900D01*
X12689Y28800D01*
X13189Y29200D02*
Y28800D01*
Y29000D01*
X13289Y29100D01*
X13389Y29200D01*
X13489D01*
X13789Y28700D02*
X14189D01*
X14389Y28800D02*
Y29200D01*
X14589Y29400D01*
X14789Y29200D01*
Y28800D01*
Y29100D01*
X14389D01*
X14988Y29200D02*
Y28800D01*
Y29000D01*
X15088Y29100D01*
X15188Y29200D01*
X15288D01*
X15588D02*
Y28800D01*
Y29000D01*
X15688Y29100D01*
X15788Y29200D01*
X15888D01*
X16288D02*
X16488D01*
X16588Y29100D01*
Y28800D01*
X16288D01*
X16188Y28900D01*
X16288Y29000D01*
X16588D01*
X16788Y29200D02*
Y28900D01*
X16888Y28800D01*
X17188D01*
Y28700D01*
X17088Y28600D01*
X16988D01*
X17188Y28800D02*
Y29200D01*
X3170Y23210D02*
Y23810D01*
X3470D01*
X3570Y23710D01*
Y23510D01*
X3470Y23410D01*
X3170D01*
X3370D02*
X3570Y23210D01*
X4170D02*
X3770D01*
X4170Y23610D01*
Y23710D01*
X4070Y23810D01*
X3870D01*
X3770Y23710D01*
X1220Y10550D02*
X1420D01*
X1320D01*
Y9950D01*
X1220D01*
X1420D01*
X1720D02*
Y10550D01*
X2120Y9950D01*
Y10550D01*
X2320Y10250D02*
X2720D01*
X2520Y10450D02*
Y10050D01*
X20850Y4870D02*
X20650D01*
X20550Y4770D01*
Y4370D01*
X20650Y4270D01*
X20850D01*
X20950Y4370D01*
Y4770D01*
X20850Y4870D01*
X21150D02*
Y4370D01*
X21250Y4270D01*
X21450D01*
X21550Y4370D01*
Y4870D01*
X21750D02*
X22149D01*
X21950D01*
Y4270D01*
X22349Y4570D02*
X22749D01*
X19490Y12040D02*
X19290D01*
X19190Y11940D01*
Y11540D01*
X19290Y11440D01*
X19490D01*
X19590Y11540D01*
Y11940D01*
X19490Y12040D01*
X19790D02*
Y11540D01*
X19890Y11440D01*
X20090D01*
X20190Y11540D01*
Y12040D01*
X20390D02*
X20789D01*
X20590D01*
Y11440D01*
X20989Y11740D02*
X21389D01*
X21189Y11940D02*
Y11540D01*
X24990Y21860D02*
Y21660D01*
X25090Y21560D01*
X25490D01*
X25590Y21660D01*
Y21860D01*
X25490Y21960D01*
X25090D01*
X24990Y21860D01*
Y22560D02*
X25590D01*
Y22260D01*
X25490Y22160D01*
X25290D01*
X25190Y22260D01*
Y22560D01*
Y22760D02*
X25590D01*
X25390D01*
X25290Y22860D01*
X25190Y22960D01*
Y23060D01*
X25590Y23459D02*
Y23659D01*
X25490Y23759D01*
X25290D01*
X25190Y23659D01*
Y23459D01*
X25290Y23359D01*
X25490D01*
X25590Y23459D01*
Y23959D02*
Y24159D01*
Y24059D01*
X25190D01*
Y23959D01*
X24990Y24859D02*
X25590D01*
Y24559D01*
X25490Y24459D01*
X25290D01*
X25190Y24559D01*
Y24859D01*
X25090Y25459D02*
X24990Y25359D01*
Y25159D01*
X25090Y25059D01*
X25490D01*
X25590Y25159D01*
Y25359D01*
X25490Y25459D01*
X25590Y26059D02*
Y25659D01*
X25190Y26059D01*
X25090D01*
X24990Y25959D01*
Y25759D01*
X25090Y25659D01*
X1740Y15060D02*
Y15660D01*
X1940Y15460D01*
X2140Y15660D01*
Y15060D01*
X2340Y15660D02*
Y15160D01*
X2440Y15060D01*
X2640D01*
X2740Y15160D01*
Y15660D01*
X2940D02*
X3339Y15060D01*
Y15660D02*
X2940Y15060D01*
X3939D02*
X3539D01*
X3939Y15460D01*
Y15560D01*
X3839Y15660D01*
X3639D01*
X3539Y15560D01*
X1790Y19660D02*
Y20260D01*
X1990Y20060D01*
X2190Y20260D01*
Y19660D01*
X2390Y20260D02*
Y19760D01*
X2490Y19660D01*
X2690D01*
X2790Y19760D01*
Y20260D01*
X2990D02*
X3389Y19660D01*
Y20260D02*
X2990Y19660D01*
X3589D02*
X3789D01*
X3689D01*
Y20260D01*
X3589Y20160D01*
X3130Y5030D02*
X3330D01*
X3230D01*
Y4430D01*
X3130D01*
X3330D01*
X3630D02*
Y5030D01*
X4030Y4430D01*
Y5030D01*
X4230Y4730D02*
X4630D01*
X12310Y21900D02*
Y22500D01*
X12510Y22300D01*
X12710Y22500D01*
Y21900D01*
X13310D02*
X12910D01*
X13310Y22300D01*
Y22400D01*
X13210Y22500D01*
X13010D01*
X12910Y22400D01*
X4870Y21940D02*
Y22540D01*
X5070Y22340D01*
X5270Y22540D01*
Y21940D01*
X5470D02*
X5670D01*
X5570D01*
Y22540D01*
X5470Y22440D01*
X8160Y26570D02*
X8360D01*
X8260D01*
Y25970D01*
X8160D01*
X8360D01*
X9060D02*
X8660D01*
X9060Y26370D01*
Y26470D01*
X8960Y26570D01*
X8760D01*
X8660Y26470D01*
X9660D02*
X9560Y26570D01*
X9360D01*
X9260Y26470D01*
Y26070D01*
X9360Y25970D01*
X9560D01*
X9660Y26070D01*
X9859Y25870D02*
X10259D01*
X10759Y26570D02*
X10559D01*
X10459Y26470D01*
Y26070D01*
X10559Y25970D01*
X10759D01*
X10859Y26070D01*
Y26470D01*
X10759Y26570D01*
X11459Y25970D02*
X11059D01*
X11459Y26370D01*
Y26470D01*
X11359Y26570D01*
X11159D01*
X11059Y26470D01*
X16880Y20340D02*
Y19740D01*
X17180D01*
X17280Y19840D01*
Y20240D01*
X17180Y20340D01*
X16880D01*
X17480Y19740D02*
Y20340D01*
X17780D01*
X17880Y20240D01*
Y20040D01*
X17780Y19940D01*
X17480D01*
X17680D02*
X17880Y19740D01*
X18080Y20340D02*
Y19940D01*
X18280Y19740D01*
X18479Y19940D01*
Y20340D01*
X19079Y19740D02*
X18679D01*
X19079Y20140D01*
Y20240D01*
X18979Y20340D01*
X18779D01*
X18679Y20240D01*
X12950Y20340D02*
Y19740D01*
X13250D01*
X13350Y19840D01*
Y20240D01*
X13250Y20340D01*
X12950D01*
X13550Y19740D02*
Y20340D01*
X13850D01*
X13950Y20240D01*
Y20040D01*
X13850Y19940D01*
X13550D01*
X13750D02*
X13950Y19740D01*
X14150Y20340D02*
Y19940D01*
X14350Y19740D01*
X14549Y19940D01*
Y20340D01*
X14749Y19740D02*
X14949D01*
X14849D01*
Y20340D01*
X14749Y20240D01*
X5844Y2030D02*
X5798Y2076D01*
X5706D01*
X5660Y2030D01*
Y1846D01*
X5706Y1800D01*
X5798D01*
X5844Y1846D01*
X5936Y2076D02*
Y1800D01*
Y1938D01*
X6119D01*
Y2076D01*
Y1800D01*
X6211D02*
Y1984D01*
X6303Y2076D01*
X6395Y1984D01*
Y1800D01*
Y1938D01*
X6211D01*
X6487Y1800D02*
Y2076D01*
X6624D01*
X6670Y2030D01*
Y1938D01*
X6624Y1892D01*
X6487D01*
X6578D02*
X6670Y1800D01*
X6946Y2030D02*
X6900Y2076D01*
X6808D01*
X6762Y2030D01*
Y1846D01*
X6808Y1800D01*
X6900D01*
X6946Y1846D01*
Y1938D01*
X6854D01*
X7221Y2076D02*
X7038D01*
Y1800D01*
X7221D01*
X7038Y1938D02*
X7129D01*
X8800Y2640D02*
X8700Y2740D01*
X8500D01*
X8400Y2640D01*
Y2540D01*
X8500Y2440D01*
X8700D01*
X8800Y2340D01*
Y2240D01*
X8700Y2140D01*
X8500D01*
X8400Y2240D01*
X9000Y2740D02*
Y2140D01*
X9200Y2340D01*
X9400Y2140D01*
Y2740D01*
X9600D02*
X9800D01*
X9700D01*
Y2140D01*
X9600D01*
X9800D01*
X10099Y2740D02*
X10499D01*
X10299D01*
Y2140D01*
X11099Y2640D02*
X10999Y2740D01*
X10799D01*
X10699Y2640D01*
Y2240D01*
X10799Y2140D01*
X10999D01*
X11099Y2240D01*
X11299Y2740D02*
Y2140D01*
Y2440D01*
X11699D01*
Y2740D01*
Y2140D01*
X2110Y23180D02*
Y23780D01*
X2410D01*
X2510Y23680D01*
Y23480D01*
X2410Y23380D01*
X2110D01*
X2310D02*
X2510Y23180D01*
X2710D02*
X2910D01*
X2810D01*
Y23780D01*
X2710Y23680D01*
X8952Y614D02*
X8915Y595D01*
X8877Y557D01*
X8859Y520D01*
X8840Y464D01*
Y370D01*
X8859Y314D01*
X8877Y276D01*
X8915Y239D01*
X8952Y220D01*
X9027D01*
X9065Y239D01*
X9102Y276D01*
X9121Y314D01*
X9140Y370D01*
Y464D01*
X9121Y520D01*
X9102Y557D01*
X9065Y595D01*
X9027Y614D01*
X8952D01*
X9232D02*
Y220D01*
Y614D02*
X9475D01*
X9232Y426D02*
X9382D01*
X9520Y614D02*
Y220D01*
Y614D02*
X9764D01*
X9520Y426D02*
X9670D01*
X10231Y614D02*
X10193Y595D01*
X10156Y557D01*
X10137Y520D01*
X10118Y464D01*
Y370D01*
X10137Y314D01*
X10156Y276D01*
X10193Y239D01*
X10231Y220D01*
X10306D01*
X10343Y239D01*
X10381Y276D01*
X10399Y314D01*
X10418Y370D01*
Y464D01*
X10399Y520D01*
X10381Y557D01*
X10343Y595D01*
X10306Y614D01*
X10231D01*
X10510D02*
Y220D01*
Y614D02*
X10772Y220D01*
Y614D02*
Y220D01*
D29*
X22960Y28000D02*
Y27833D01*
Y27917D01*
X23460D01*
X23377Y28000D01*
X23960Y27667D02*
Y28000D01*
X24293Y27667D01*
X24377D01*
X24460Y27750D01*
Y27917D01*
X24377Y28000D01*
X23960Y6950D02*
X24460D01*
X24210Y7200D01*
Y6867D01*
X24377Y6700D02*
X24460Y6617D01*
Y6450D01*
X24377Y6367D01*
X24043D01*
X23960Y6450D01*
Y6617D01*
X24043Y6700D01*
X24377D01*
X23377Y7200D02*
X23460Y7117D01*
Y6950D01*
X23377Y6867D01*
X23293D01*
X23210Y6950D01*
Y7033D01*
Y6950D01*
X23127Y6867D01*
X23043D01*
X22960Y6950D01*
Y7117D01*
X23043Y7200D01*
Y6700D02*
X22960Y6617D01*
Y6450D01*
X23043Y6367D01*
X23377D01*
X23460Y6450D01*
Y6617D01*
X23377Y6700D01*
X23293D01*
X23210Y6617D01*
Y6367D01*
X6500Y29800D02*
X6667D01*
X6583D01*
Y30300D01*
X6500Y30217D01*
X6100Y31000D02*
X6267D01*
X6183D01*
Y31500D01*
X6100Y31417D01*
X6517D02*
X6600Y31500D01*
X6766D01*
X6850Y31417D01*
Y31333D01*
X6766Y31250D01*
X6683D01*
X6766D01*
X6850Y31167D01*
Y31083D01*
X6766Y31000D01*
X6600D01*
X6517Y31083D01*
X19100Y30000D02*
X19267D01*
X19183D01*
Y30500D01*
X19100Y30417D01*
X19850Y30000D02*
X19517D01*
X19850Y30333D01*
Y30417D01*
X19766Y30500D01*
X19600D01*
X19517Y30417D01*
X19433Y31000D02*
X19100D01*
X19433Y31333D01*
Y31417D01*
X19350Y31500D01*
X19183D01*
X19100Y31417D01*
X19850Y31000D02*
Y31500D01*
X19600Y31250D01*
X19933D01*
M02*
