M48
;Layer_Color=9474304
;FILE_FORMAT=2:4
INCH,TZ
;TYPE=PLATED
T1F00S00C0.0280
T2F00S00C0.0354
T4F00S00C0.1181
%
T01
X-10370Y1770
X-7770Y2520
X-7890Y19210
X-10490Y18460
X3980Y28260
X5950Y30150
T02
X19685Y3543
X23160Y8000
X24160
Y9000
X23160
X10840Y1300
X9840
X8840
X7000Y1100
X6000
X3955Y3543
X-1470Y3760
Y2760
X-1410Y4980
Y5980
Y6980
Y7980
X-2830Y7750
Y6750
Y5750
Y4750
Y3750
X-4040Y3740
Y4740
Y5740
Y6740
Y7740
Y8740
X-2830Y8750
X-7040Y8740
Y7740
Y6740
Y5740
Y4740
Y3740
X-8220Y3730
Y4730
Y5730
Y6730
Y7730
Y8730
X-9840Y8840
Y7840
Y9840
Y10840
X-8220Y10730
Y9730
X-7040Y9740
Y10740
Y11740
Y12740
X-8220Y12730
Y11730
X-8640Y14200
X-7640
X-7661Y15410
X-8661
X-8340Y20420
Y21420
Y22420
Y23420
Y24420
X-7160Y24430
Y23430
Y22430
Y21430
Y20430
X-4160
Y21430
Y22430
Y23430
Y24430
X-2950Y24440
Y23440
Y22440
Y21440
Y20440
X-1590Y20450
Y19450
X-1530Y21670
Y22670
Y23670
Y24670
X-9960Y24530
X-4040Y12740
Y11740
Y10740
Y9740
X-2830Y9750
Y10750
Y11750
Y12750
X-1410
Y11750
Y10750
X2060Y11420
X3060
X4060
X5060
X6060
X7060
X8060
X9060
Y14420
X8060
X7060
X6060
X5060
X4060
X3060
X2060
X2110Y16020
X3110
X4110
X5110
X6110
X7110
X8110
X9110
Y19020
X8110
X7110
X6110
X5110
X4110
X3110
X2110
X5310Y21100
X6310
X7310
X8310
X9310
X10310
X12750Y21060
X13750
X14750
X15750
X13386Y18898
Y17898
Y16898
Y15898
Y14898
Y13898
Y12898
Y11898
X3937Y10236
X17323Y11898
Y12898
Y13898
Y14898
Y15898
Y16898
Y17898
Y18898
X17750Y21060
X16750
X23160Y21000
Y20000
Y19000
Y18000
Y17000
Y16000
Y15000
Y14000
Y13000
Y12000
Y11000
Y10000
X24160
Y11000
Y12000
Y13000
Y14000
Y15000
Y16000
Y17000
Y18000
Y19000
Y20000
Y21000
Y22000
X23160
Y23000
X24160
Y24000
X23160
X19685Y10236
X23160Y25000
X24160
Y26000
X23160
Y27000
X24160
X18500Y30200
Y31200
X17500
Y30200
X16500
Y31200
X15500
X14500
X13500
X12500
X11500
X10500
X9500
X8500
X7500
Y30200
X8500
X9500
X10500
X11500
X12500
X13500
X14500
X15500
X15350Y27810
X14350
X13350
X11370Y27910
X10370
X9370
X8370
X16350Y27810
X-1530Y27440
Y28440
Y29440
X-2950
Y28440
Y27440
Y26440
Y25440
X-4160Y25430
Y26430
Y27430
Y28430
Y29430
X-7160
Y28430
Y27430
Y26430
Y25430
X-8340Y25420
Y26420
Y27420
Y28420
Y29420
X-8710Y30480
X-7710
X-7731Y31690
X-8731
X-9960Y27530
Y26530
Y25530
T04
X21260Y3150
X23827Y5387
X2173
X1969Y3150
X-5512Y1378
Y15157
Y17913
X21260Y25984
X22843Y30191
X3157
X1969Y25984
X-5512Y31496
M30
