G04 Layer_Color=16711935*
%FSLAX24Y24*%
%MOIN*%
G70*
G01*
G75*
%ADD43C,0.0039*%
D43*
X-3749Y2246D02*
X-2411D01*
X-3749Y2954D02*
X-2411D01*
Y2246D02*
Y2954D01*
X-3749Y2246D02*
Y2954D01*
X-8936Y4201D02*
Y5539D01*
X-9644Y4201D02*
Y5539D01*
Y4201D02*
X-8936D01*
X-9644Y5539D02*
X-8936D01*
X-9077Y6305D02*
Y6875D01*
X-9943Y6305D02*
Y6875D01*
X-9077D01*
X-9943Y6305D02*
X-9077D01*
X-11039Y15056D02*
X-9701D01*
X-11039Y15764D02*
X-9701D01*
X-11039Y15056D02*
Y15764D01*
X-9701Y15056D02*
Y15764D01*
X-10629Y13866D02*
X-9291D01*
X-10629Y14574D02*
X-9291D01*
X-10629Y13866D02*
Y14574D01*
X-9291Y13866D02*
Y14574D01*
X3126Y22769D02*
X3834D01*
X3126Y21431D02*
X3834D01*
Y22769D01*
X3126Y21431D02*
Y22769D01*
X2066Y22739D02*
X2774D01*
X2066Y21401D02*
X2774D01*
Y22739D01*
X2066Y21401D02*
Y22739D01*
X-8557Y824D02*
Y1376D01*
X-9403Y824D02*
Y1376D01*
Y824D02*
X-8557D01*
X-9403Y1376D02*
X-8557D01*
X-9483Y2185D02*
Y2755D01*
X-8617Y2185D02*
Y2755D01*
X-9483Y2185D02*
X-8617D01*
X-9483Y2755D02*
X-8617D01*
X-3869Y18936D02*
X-2531D01*
X-3869Y19644D02*
X-2531D01*
Y18936D02*
Y19644D01*
X-3869Y18936D02*
Y19644D01*
X-9056Y20891D02*
Y22229D01*
X-9764Y20891D02*
Y22229D01*
Y20891D02*
X-9056D01*
X-9764Y22229D02*
X-9056D01*
X-11109Y31336D02*
X-9771D01*
X-11109Y32044D02*
X-9771D01*
X-11109Y31336D02*
Y32044D01*
X-9771Y31336D02*
Y32044D01*
X-10699Y30146D02*
X-9361D01*
X-10699Y30854D02*
X-9361D01*
X-10699Y30146D02*
Y30854D01*
X-9361Y30146D02*
Y30854D01*
X-8677Y17514D02*
Y18066D01*
X-9523Y17514D02*
Y18066D01*
Y17514D02*
X-8677D01*
X-9523Y18066D02*
X-8677D01*
X-9603Y18875D02*
Y19445D01*
X-8737Y18875D02*
Y19445D01*
X-9603Y18875D02*
X-8737D01*
X-9603Y19445D02*
X-8737D01*
X-9197Y22995D02*
Y23565D01*
X-10063Y22995D02*
Y23565D01*
X-9197D01*
X-10063Y22995D02*
X-9197D01*
M02*
