G04 Layer_Color=8388736*
%FSLAX24Y24*%
%MOIN*%
G70*
G01*
G75*
%ADD30R,0.0513X0.0789*%
%ADD31R,0.0789X0.0513*%
%ADD32R,0.0474X0.0592*%
%ADD33R,0.0671X0.0671*%
%ADD34C,0.0671*%
%ADD35R,0.0671X0.0671*%
%ADD36R,0.0671X0.0671*%
%ADD37C,0.0671*%
%ADD38C,0.1655*%
%ADD39R,0.2088X0.0671*%
%ADD40R,0.0671X0.0671*%
%ADD41C,0.0580*%
D30*
X-2549Y2600D02*
D03*
X-3611D02*
D03*
X-2668Y19290D02*
D03*
X-3731D02*
D03*
D31*
X3480Y22631D02*
D03*
Y21569D02*
D03*
X2420Y22601D02*
D03*
Y21539D02*
D03*
D32*
X-8665Y1100D02*
D03*
X-9295D02*
D03*
X-8785Y17790D02*
D03*
X-9415D02*
D03*
D33*
X17323Y18898D02*
D03*
X-9840Y7840D02*
D03*
X-1410Y12750D02*
D03*
X-1470Y3760D02*
D03*
X-2830Y3750D02*
D03*
X3937Y10236D02*
D03*
X-1410Y4980D02*
D03*
X-8220Y3730D02*
D03*
X13386Y18898D02*
D03*
X3955Y3543D02*
D03*
X23160Y27000D02*
D03*
X-1530Y21670D02*
D03*
Y29440D02*
D03*
X-8340Y20420D02*
D03*
X-2950Y20440D02*
D03*
X-1590Y20450D02*
D03*
X-9960Y24530D02*
D03*
D34*
X17323Y17898D02*
D03*
Y16898D02*
D03*
Y15898D02*
D03*
Y14898D02*
D03*
Y13898D02*
D03*
Y12898D02*
D03*
Y11898D02*
D03*
X16750Y21060D02*
D03*
X15750D02*
D03*
X14750D02*
D03*
X13750D02*
D03*
X12750D02*
D03*
X-9840Y8840D02*
D03*
Y9840D02*
D03*
Y10840D02*
D03*
X-1410Y10750D02*
D03*
Y11750D02*
D03*
X-1470Y2760D02*
D03*
X-2830Y4750D02*
D03*
Y6750D02*
D03*
Y7750D02*
D03*
Y8750D02*
D03*
Y9750D02*
D03*
Y10750D02*
D03*
Y11750D02*
D03*
Y12750D02*
D03*
Y5750D02*
D03*
X-7661Y15410D02*
D03*
X-7640Y14200D02*
D03*
X13350Y27810D02*
D03*
X14350D02*
D03*
X15350D02*
D03*
X8370Y27910D02*
D03*
X9370D02*
D03*
X10370D02*
D03*
X10840Y1300D02*
D03*
X9840D02*
D03*
X6000Y1100D02*
D03*
X-1410Y5980D02*
D03*
Y6980D02*
D03*
Y7980D02*
D03*
X-7040Y4740D02*
D03*
X-8220Y4730D02*
D03*
Y6730D02*
D03*
Y7730D02*
D03*
Y8730D02*
D03*
Y9730D02*
D03*
Y10730D02*
D03*
Y11730D02*
D03*
Y12730D02*
D03*
Y5730D02*
D03*
X13386Y17898D02*
D03*
Y16898D02*
D03*
Y15898D02*
D03*
Y14898D02*
D03*
Y13898D02*
D03*
Y12898D02*
D03*
Y11898D02*
D03*
X9310Y21100D02*
D03*
X8310D02*
D03*
X7310D02*
D03*
X6310D02*
D03*
X5310D02*
D03*
X24160Y8000D02*
D03*
X23160D02*
D03*
X24160Y9000D02*
D03*
X23160D02*
D03*
X24160Y10000D02*
D03*
X23160D02*
D03*
X24160Y11000D02*
D03*
X23160D02*
D03*
X24160Y12000D02*
D03*
X23160D02*
D03*
X24160Y13000D02*
D03*
X23160D02*
D03*
X24160Y14000D02*
D03*
X23160D02*
D03*
X24160Y15000D02*
D03*
X23160D02*
D03*
X24160Y16000D02*
D03*
X23160D02*
D03*
X24160Y17000D02*
D03*
X23160D02*
D03*
X24160Y18000D02*
D03*
X23160D02*
D03*
X24160Y19000D02*
D03*
X23160D02*
D03*
X24160Y20000D02*
D03*
X23160D02*
D03*
X24160Y21000D02*
D03*
X23160D02*
D03*
X24160Y22000D02*
D03*
X23160D02*
D03*
X24160Y23000D02*
D03*
X23160D02*
D03*
X24160Y24000D02*
D03*
X23160D02*
D03*
X24160Y25000D02*
D03*
X23160D02*
D03*
X24160Y26000D02*
D03*
X23160D02*
D03*
X24160Y27000D02*
D03*
X18500Y31200D02*
D03*
X17500D02*
D03*
X16500D02*
D03*
X15500D02*
D03*
X14500D02*
D03*
X13500D02*
D03*
X12500D02*
D03*
X11500D02*
D03*
X10500D02*
D03*
X9500D02*
D03*
X8500D02*
D03*
X7500D02*
D03*
X18500Y30200D02*
D03*
X17500D02*
D03*
X16500D02*
D03*
X15500D02*
D03*
X14500D02*
D03*
X13500D02*
D03*
X12500D02*
D03*
X11500D02*
D03*
X10500D02*
D03*
X9500D02*
D03*
X8500D02*
D03*
X-1530Y22670D02*
D03*
Y23670D02*
D03*
Y24670D02*
D03*
Y27440D02*
D03*
Y28440D02*
D03*
X-8340Y21420D02*
D03*
Y23420D02*
D03*
Y24420D02*
D03*
Y25420D02*
D03*
Y26420D02*
D03*
Y27420D02*
D03*
Y28420D02*
D03*
Y29420D02*
D03*
Y22420D02*
D03*
X-2950Y21440D02*
D03*
Y23440D02*
D03*
Y24440D02*
D03*
Y25440D02*
D03*
Y26440D02*
D03*
Y27440D02*
D03*
Y28440D02*
D03*
Y29440D02*
D03*
Y22440D02*
D03*
X-7160Y21430D02*
D03*
X-1590Y19450D02*
D03*
X-7731Y31690D02*
D03*
X-7710Y30480D02*
D03*
X-9960Y25530D02*
D03*
Y26530D02*
D03*
Y27530D02*
D03*
D35*
X19685Y10236D02*
D03*
X17750Y21060D02*
D03*
X-8661Y15410D02*
D03*
X-8640Y14200D02*
D03*
X19685Y3543D02*
D03*
X16350Y27810D02*
D03*
X11370Y27910D02*
D03*
X8840Y1300D02*
D03*
X7000Y1100D02*
D03*
X10310Y21100D02*
D03*
X7500Y30200D02*
D03*
X-8731Y31690D02*
D03*
X-8710Y30480D02*
D03*
D36*
X9060Y14420D02*
D03*
X9110Y19020D02*
D03*
D37*
X8060Y14420D02*
D03*
X7060D02*
D03*
X6060D02*
D03*
X5060D02*
D03*
X4060D02*
D03*
X3060D02*
D03*
X2060D02*
D03*
X9060Y11420D02*
D03*
X8060D02*
D03*
X7060D02*
D03*
X6060D02*
D03*
X5060D02*
D03*
X4060D02*
D03*
X3060D02*
D03*
X2060D02*
D03*
X-4040Y4740D02*
D03*
Y5740D02*
D03*
Y6740D02*
D03*
Y7740D02*
D03*
Y8740D02*
D03*
Y9740D02*
D03*
Y10740D02*
D03*
Y11740D02*
D03*
Y12740D02*
D03*
X-7040Y3740D02*
D03*
Y5740D02*
D03*
Y6740D02*
D03*
Y7740D02*
D03*
Y8740D02*
D03*
Y9740D02*
D03*
Y10740D02*
D03*
Y11740D02*
D03*
Y12740D02*
D03*
X8110Y19020D02*
D03*
X7110D02*
D03*
X6110D02*
D03*
X5110D02*
D03*
X4110D02*
D03*
X3110D02*
D03*
X2110D02*
D03*
X9110Y16020D02*
D03*
X8110D02*
D03*
X7110D02*
D03*
X6110D02*
D03*
X5110D02*
D03*
X4110D02*
D03*
X3110D02*
D03*
X2110D02*
D03*
X-4160Y21430D02*
D03*
Y22430D02*
D03*
Y23430D02*
D03*
Y24430D02*
D03*
Y25430D02*
D03*
Y26430D02*
D03*
Y27430D02*
D03*
Y28430D02*
D03*
Y29430D02*
D03*
X-7160Y20430D02*
D03*
Y22430D02*
D03*
Y23430D02*
D03*
Y24430D02*
D03*
Y25430D02*
D03*
Y26430D02*
D03*
Y27430D02*
D03*
Y28430D02*
D03*
Y29430D02*
D03*
D38*
X23827Y5387D02*
D03*
X3157Y30191D02*
D03*
X2173Y5387D02*
D03*
X22843Y30191D02*
D03*
X-5512Y15157D02*
D03*
Y1378D02*
D03*
X1969Y25984D02*
D03*
Y3150D02*
D03*
X21260D02*
D03*
Y25984D02*
D03*
X-5512Y17913D02*
D03*
Y31496D02*
D03*
D39*
X4142Y1372D02*
D03*
X21858D02*
D03*
D40*
X-4040Y3740D02*
D03*
X-4160Y20430D02*
D03*
D41*
X-10370Y1770D02*
D03*
X-7770Y2520D02*
D03*
X3980Y28260D02*
D03*
X5950Y30150D02*
D03*
X-7890Y19210D02*
D03*
X-10490Y18460D02*
D03*
M02*
